<svg xmlns="http://www.w3.org/2000/svg" viewBox="0 0 560 340" width="560" height="340">
  <defs>
    <linearGradient id="fillGrad" x1="0" y1="0" x2="0" y2="1">
      <stop offset="0%" stop-color="#C8622A" stop-opacity="0.55"/>
      <stop offset="100%" stop-color="#C8622A" stop-opacity="0.04"/>
    </linearGradient>
    <clipPath id="plotClip">
      <rect x="54" y="48" width="478" height="240"/>
    </clipPath>
  </defs>

  <!-- background -->
  <rect width="560" height="340" fill="#FFFAF3" rx="14"/>
  <rect x="54" y="48" width="478" height="240" fill="#FDF6EC" rx="4"/>

  <!-- grid -->
  <g clip-path="url(#plotClip)">
    <line x1="54" y1="220.7" x2="532" y2="220.7" stroke="#E8D9C0" stroke-width="1" stroke-dasharray="4 4"/>
<line x1="54" y1="153.3" x2="532" y2="153.3" stroke="#E8D9C0" stroke-width="1" stroke-dasharray="4 4"/>
<line x1="54" y1="86.0" x2="532" y2="86.0" stroke="#E8D9C0" stroke-width="1" stroke-dasharray="4 4"/>
<line x1="101.8" y1="48" x2="101.8" y2="288" stroke="#E8D9C0" stroke-width="1" stroke-dasharray="4 4"/>
<line x1="149.6" y1="48" x2="149.6" y2="288" stroke="#E8D9C0" stroke-width="1" stroke-dasharray="4 4"/>
<line x1="197.4" y1="48" x2="197.4" y2="288" stroke="#E8D9C0" stroke-width="1" stroke-dasharray="4 4"/>
<line x1="245.2" y1="48" x2="245.2" y2="288" stroke="#E8D9C0" stroke-width="1" stroke-dasharray="4 4"/>
<line x1="293.0" y1="48" x2="293.0" y2="288" stroke="#E8D9C0" stroke-width="1" stroke-dasharray="4 4"/>
<line x1="340.8" y1="48" x2="340.8" y2="288" stroke="#E8D9C0" stroke-width="1" stroke-dasharray="4 4"/>
<line x1="388.6" y1="48" x2="388.6" y2="288" stroke="#E8D9C0" stroke-width="1" stroke-dasharray="4 4"/>
<line x1="436.4" y1="48" x2="436.4" y2="288" stroke="#E8D9C0" stroke-width="1" stroke-dasharray="4 4"/>
<line x1="484.2" y1="48" x2="484.2" y2="288" stroke="#E8D9C0" stroke-width="1" stroke-dasharray="4 4"/>

  </g>

  <!-- fill under curve -->
  <g clip-path="url(#plotClip)">
    <path d="M54.00,288.00 L54.00,279.76 L55.20,279.68 L56.40,279.60 L57.59,279.51 L58.79,279.43 L59.99,279.35 L61.19,279.26 L62.39,279.17 L63.58,279.08 L64.78,278.99 L65.98,278.90 L67.18,278.81 L68.38,278.72 L69.57,278.62 L70.77,278.52 L71.97,278.42 L73.17,278.32 L74.37,278.22 L75.56,278.12 L76.76,278.02 L77.96,277.91 L79.16,277.80 L80.36,277.69 L81.55,277.58 L82.75,277.47 L83.95,277.35 L85.15,277.23 L86.35,277.12 L87.54,277.00 L88.74,276.87 L89.94,276.75 L91.14,276.62 L92.34,276.49 L93.53,276.36 L94.73,276.23 L95.93,276.09 L97.13,275.95 L98.33,275.81 L99.52,275.67 L100.72,275.53 L101.92,275.38 L103.12,275.23 L104.32,275.07 L105.51,274.92 L106.71,274.76 L107.91,274.60 L109.11,274.44 L110.31,274.27 L111.50,274.10 L112.70,273.93 L113.90,273.75 L115.10,273.57 L116.30,273.39 L117.49,273.20 L118.69,273.01 L119.89,272.82 L121.09,272.62 L122.29,272.42 L123.48,272.21 L124.68,272.01 L125.88,271.79 L127.08,271.58 L128.28,271.35 L129.47,271.13 L130.67,270.90 L131.87,270.66 L133.07,270.43 L134.27,270.18 L135.46,269.93 L136.66,269.68 L137.86,269.42 L139.06,269.15 L140.26,268.88 L141.45,268.61 L142.65,268.33 L143.85,268.04 L145.05,267.74 L146.25,267.44 L147.44,267.14 L148.64,266.82 L149.84,266.50 L151.04,266.18 L152.24,265.84 L153.43,265.50 L154.63,265.15 L155.83,264.79 L157.03,264.43 L158.23,264.05 L159.42,263.67 L160.62,263.28 L161.82,262.88 L163.02,262.47 L164.22,262.05 L165.41,261.62 L166.61,261.18 L167.81,260.73 L169.01,260.27 L170.21,259.80 L171.40,259.31 L172.60,258.82 L173.80,258.31 L175.00,257.79 L176.20,257.26 L177.39,256.71 L178.59,256.15 L179.79,255.57 L180.99,254.98 L182.19,254.38 L183.38,253.76 L184.58,253.12 L185.78,252.47 L186.98,251.80 L188.18,251.11 L189.37,250.40 L190.57,249.67 L191.77,248.93 L192.97,248.16 L194.17,247.37 L195.36,246.56 L196.56,245.73 L197.76,244.88 L198.96,244.00 L200.16,243.10 L201.35,242.17 L202.55,241.21 L203.75,240.23 L204.95,239.22 L206.15,238.18 L207.34,237.11 L208.54,236.01 L209.74,234.87 L210.94,233.71 L212.14,232.50 L213.33,231.27 L214.53,230.00 L215.73,228.68 L216.93,227.33 L218.13,225.94 L219.32,224.51 L220.52,223.04 L221.72,221.52 L222.92,219.95 L224.12,218.34 L225.31,216.68 L226.51,214.97 L227.71,213.21 L228.91,211.40 L230.11,209.53 L231.30,207.61 L232.50,205.63 L233.70,203.59 L234.90,201.49 L236.10,199.34 L237.29,197.12 L238.49,194.83 L239.69,192.49 L240.89,190.07 L242.09,187.60 L243.28,185.05 L244.48,182.44 L245.68,179.76 L246.88,177.01 L248.08,174.20 L249.27,171.32 L250.47,168.38 L251.67,165.37 L252.87,162.29 L254.07,159.16 L255.26,155.97 L256.46,152.73 L257.66,149.43 L258.86,146.09 L260.06,142.70 L261.25,139.28 L262.45,135.83 L263.65,132.36 L264.85,128.88 L266.05,125.39 L267.24,121.91 L268.44,118.44 L269.64,115.00 L270.84,111.60 L272.04,108.26 L273.23,104.98 L274.43,101.78 L275.63,98.68 L276.83,95.70 L278.03,92.84 L279.22,90.12 L280.42,87.56 L281.62,85.18 L282.82,82.98 L284.02,80.99 L285.21,79.22 L286.41,77.68 L287.61,76.37 L288.81,75.32 L290.01,74.52 L291.20,73.98 L292.40,73.71 L293.60,73.71 L294.80,73.98 L295.99,74.52 L297.19,75.32 L298.39,76.37 L299.59,77.68 L300.79,79.22 L301.98,80.99 L303.18,82.98 L304.38,85.18 L305.58,87.56 L306.78,90.12 L307.97,92.84 L309.17,95.70 L310.37,98.68 L311.57,101.78 L312.77,104.98 L313.96,108.26 L315.16,111.60 L316.36,115.00 L317.56,118.44 L318.76,121.91 L319.95,125.39 L321.15,128.88 L322.35,132.36 L323.55,135.83 L324.75,139.28 L325.94,142.70 L327.14,146.09 L328.34,149.43 L329.54,152.73 L330.74,155.97 L331.93,159.16 L333.13,162.29 L334.33,165.37 L335.53,168.38 L336.73,171.32 L337.92,174.20 L339.12,177.01 L340.32,179.76 L341.52,182.44 L342.72,185.05 L343.91,187.60 L345.11,190.07 L346.31,192.49 L347.51,194.83 L348.71,197.12 L349.90,199.34 L351.10,201.49 L352.30,203.59 L353.50,205.63 L354.70,207.61 L355.89,209.53 L357.09,211.40 L358.29,213.21 L359.49,214.97 L360.69,216.68 L361.88,218.34 L363.08,219.95 L364.28,221.52 L365.48,223.04 L366.68,224.51 L367.87,225.94 L369.07,227.33 L370.27,228.68 L371.47,230.00 L372.67,231.27 L373.86,232.50 L375.06,233.71 L376.26,234.87 L377.46,236.01 L378.66,237.11 L379.85,238.18 L381.05,239.22 L382.25,240.23 L383.45,241.21 L384.65,242.17 L385.84,243.10 L387.04,244.00 L388.24,244.88 L389.44,245.73 L390.64,246.56 L391.83,247.37 L393.03,248.16 L394.23,248.93 L395.43,249.67 L396.63,250.40 L397.82,251.11 L399.02,251.80 L400.22,252.47 L401.42,253.12 L402.62,253.76 L403.81,254.38 L405.01,254.98 L406.21,255.57 L407.41,256.15 L408.61,256.71 L409.80,257.26 L411.00,257.79 L412.20,258.31 L413.40,258.82 L414.60,259.31 L415.79,259.80 L416.99,260.27 L418.19,260.73 L419.39,261.18 L420.59,261.62 L421.78,262.05 L422.98,262.47 L424.18,262.88 L425.38,263.28 L426.58,263.67 L427.77,264.05 L428.97,264.43 L430.17,264.79 L431.37,265.15 L432.57,265.50 L433.76,265.84 L434.96,266.18 L436.16,266.50 L437.36,266.82 L438.56,267.14 L439.75,267.44 L440.95,267.74 L442.15,268.04 L443.35,268.33 L444.55,268.61 L445.74,268.88 L446.94,269.15 L448.14,269.42 L449.34,269.68 L450.54,269.93 L451.73,270.18 L452.93,270.43 L454.13,270.66 L455.33,270.90 L456.53,271.13 L457.72,271.35 L458.92,271.58 L460.12,271.79 L461.32,272.01 L462.52,272.21 L463.71,272.42 L464.91,272.62 L466.11,272.82 L467.31,273.01 L468.51,273.20 L469.70,273.39 L470.90,273.57 L472.10,273.75 L473.30,273.93 L474.50,274.10 L475.69,274.27 L476.89,274.44 L478.09,274.60 L479.29,274.76 L480.49,274.92 L481.68,275.07 L482.88,275.23 L484.08,275.38 L485.28,275.53 L486.48,275.67 L487.67,275.81 L488.87,275.95 L490.07,276.09 L491.27,276.23 L492.47,276.36 L493.66,276.49 L494.86,276.62 L496.06,276.75 L497.26,276.87 L498.46,277.00 L499.65,277.12 L500.85,277.23 L502.05,277.35 L503.25,277.47 L504.45,277.58 L505.64,277.69 L506.84,277.80 L508.04,277.91 L509.24,278.02 L510.44,278.12 L511.63,278.22 L512.83,278.32 L514.03,278.42 L515.23,278.52 L516.43,278.62 L517.62,278.72 L518.82,278.81 L520.02,278.90 L521.22,278.99 L522.42,279.08 L523.61,279.17 L524.81,279.26 L526.01,279.35 L527.21,279.43 L528.41,279.51 L529.60,279.60 L530.80,279.68 L532.00,279.76 L532.00,288.00Z" fill="url(#fillGrad)"/>
  </g>

  <!-- normal ref curve -->
  <g clip-path="url(#plotClip)">
    <path d="M54.00,288.00 L55.20,288.00 L56.40,288.00 L57.59,288.00 L58.79,288.00 L59.99,288.00 L61.19,288.00 L62.39,288.00 L63.58,288.00 L64.78,288.00 L65.98,288.00 L67.18,288.00 L68.38,288.00 L69.57,288.00 L70.77,287.99 L71.97,287.99 L73.17,287.99 L74.37,287.99 L75.56,287.99 L76.76,287.99 L77.96,287.99 L79.16,287.99 L80.36,287.99 L81.55,287.98 L82.75,287.98 L83.95,287.98 L85.15,287.98 L86.35,287.98 L87.54,287.97 L88.74,287.97 L89.94,287.97 L91.14,287.96 L92.34,287.96 L93.53,287.96 L94.73,287.95 L95.93,287.95 L97.13,287.94 L98.33,287.93 L99.52,287.93 L100.72,287.92 L101.92,287.91 L103.12,287.90 L104.32,287.89 L105.51,287.88 L106.71,287.86 L107.91,287.85 L109.11,287.84 L110.31,287.82 L111.50,287.80 L112.70,287.78 L113.90,287.76 L115.10,287.74 L116.30,287.71 L117.49,287.68 L118.69,287.65 L119.89,287.62 L121.09,287.58 L122.29,287.54 L123.48,287.50 L124.68,287.45 L125.88,287.40 L127.08,287.35 L128.28,287.29 L129.47,287.23 L130.67,287.16 L131.87,287.08 L133.07,287.00 L134.27,286.92 L135.46,286.82 L136.66,286.72 L137.86,286.61 L139.06,286.50 L140.26,286.37 L141.45,286.24 L142.65,286.09 L143.85,285.94 L145.05,285.77 L146.25,285.59 L147.44,285.40 L148.64,285.19 L149.84,284.97 L151.04,284.74 L152.24,284.48 L153.43,284.22 L154.63,283.93 L155.83,283.63 L157.03,283.30 L158.23,282.96 L159.42,282.59 L160.62,282.20 L161.82,281.78 L163.02,281.34 L164.22,280.87 L165.41,280.38 L166.61,279.85 L167.81,279.30 L169.01,278.71 L170.21,278.09 L171.40,277.43 L172.60,276.74 L173.80,276.01 L175.00,275.24 L176.20,274.43 L177.39,273.58 L178.59,272.68 L179.79,271.74 L180.99,270.75 L182.19,269.72 L183.38,268.63 L184.58,267.49 L185.78,266.30 L186.98,265.05 L188.18,263.74 L189.37,262.38 L190.57,260.96 L191.77,259.48 L192.97,257.93 L194.17,256.32 L195.36,254.65 L196.56,252.91 L197.76,251.10 L198.96,249.22 L200.16,247.27 L201.35,245.26 L202.55,243.16 L203.75,241.00 L204.95,238.77 L206.15,236.46 L207.34,234.07 L208.54,231.61 L209.74,229.08 L210.94,226.47 L212.14,223.78 L213.33,221.02 L214.53,218.19 L215.73,215.28 L216.93,212.29 L218.13,209.24 L219.32,206.11 L220.52,202.91 L221.72,199.64 L222.92,196.31 L224.12,192.91 L225.31,189.44 L226.51,185.91 L227.71,182.32 L228.91,178.68 L230.11,174.98 L231.30,171.22 L232.50,167.42 L233.70,163.57 L234.90,159.68 L236.10,155.76 L237.29,151.79 L238.49,147.80 L239.69,143.78 L240.89,139.74 L242.09,135.68 L243.28,131.61 L244.48,127.53 L245.68,123.45 L246.88,119.37 L248.08,115.29 L249.27,111.23 L250.47,107.19 L251.67,103.17 L252.87,99.18 L254.07,95.22 L255.26,91.31 L256.46,87.44 L257.66,83.63 L258.86,79.87 L260.06,76.18 L261.25,72.56 L262.45,69.01 L263.65,65.54 L264.85,62.16 L266.05,58.88 L267.24,55.69 L268.44,52.60 L269.64,49.63 L270.84,46.77 L272.04,44.02 L273.23,41.40 L274.43,38.91 L275.63,36.55 L276.83,34.33 L278.03,32.25 L279.22,30.32 L280.42,28.53 L281.62,26.90 L282.82,25.42 L284.02,24.09 L285.21,22.93 L286.41,21.93 L287.61,21.09 L288.81,20.42 L290.01,19.92 L291.20,19.58 L292.40,19.41 L293.60,19.41 L294.80,19.58 L295.99,19.92 L297.19,20.42 L298.39,21.09 L299.59,21.93 L300.79,22.93 L301.98,24.09 L303.18,25.42 L304.38,26.90 L305.58,28.53 L306.78,30.32 L307.97,32.25 L309.17,34.33 L310.37,36.55 L311.57,38.91 L312.77,41.40 L313.96,44.02 L315.16,46.77 L316.36,49.63 L317.56,52.60 L318.76,55.69 L319.95,58.88 L321.15,62.16 L322.35,65.54 L323.55,69.01 L324.75,72.56 L325.94,76.18 L327.14,79.87 L328.34,83.63 L329.54,87.44 L330.74,91.31 L331.93,95.22 L333.13,99.18 L334.33,103.17 L335.53,107.19 L336.73,111.23 L337.92,115.29 L339.12,119.37 L340.32,123.45 L341.52,127.53 L342.72,131.61 L343.91,135.68 L345.11,139.74 L346.31,143.78 L347.51,147.80 L348.71,151.79 L349.90,155.76 L351.10,159.68 L352.30,163.57 L353.50,167.42 L354.70,171.22 L355.89,174.98 L357.09,178.68 L358.29,182.32 L359.49,185.91 L360.69,189.44 L361.88,192.91 L363.08,196.31 L364.28,199.64 L365.48,202.91 L366.68,206.11 L367.87,209.24 L369.07,212.29 L370.27,215.28 L371.47,218.19 L372.67,221.02 L373.86,223.78 L375.06,226.47 L376.26,229.08 L377.46,231.61 L378.66,234.07 L379.85,236.46 L381.05,238.77 L382.25,241.00 L383.45,243.16 L384.65,245.26 L385.84,247.27 L387.04,249.22 L388.24,251.10 L389.44,252.91 L390.64,254.65 L391.83,256.32 L393.03,257.93 L394.23,259.48 L395.43,260.96 L396.63,262.38 L397.82,263.74 L399.02,265.05 L400.22,266.30 L401.42,267.49 L402.62,268.63 L403.81,269.72 L405.01,270.75 L406.21,271.74 L407.41,272.68 L408.61,273.58 L409.80,274.43 L411.00,275.24 L412.20,276.01 L413.40,276.74 L414.60,277.43 L415.79,278.09 L416.99,278.71 L418.19,279.30 L419.39,279.85 L420.59,280.38 L421.78,280.87 L422.98,281.34 L424.18,281.78 L425.38,282.20 L426.58,282.59 L427.77,282.96 L428.97,283.30 L430.17,283.63 L431.37,283.93 L432.57,284.22 L433.76,284.48 L434.96,284.74 L436.16,284.97 L437.36,285.19 L438.56,285.40 L439.75,285.59 L440.95,285.77 L442.15,285.94 L443.35,286.09 L444.55,286.24 L445.74,286.37 L446.94,286.50 L448.14,286.61 L449.34,286.72 L450.54,286.82 L451.73,286.92 L452.93,287.00 L454.13,287.08 L455.33,287.16 L456.53,287.23 L457.72,287.29 L458.92,287.35 L460.12,287.40 L461.32,287.45 L462.52,287.50 L463.71,287.54 L464.91,287.58 L466.11,287.62 L467.31,287.65 L468.51,287.68 L469.70,287.71 L470.90,287.74 L472.10,287.76 L473.30,287.78 L474.50,287.80 L475.69,287.82 L476.89,287.84 L478.09,287.85 L479.29,287.86 L480.49,287.88 L481.68,287.89 L482.88,287.90 L484.08,287.91 L485.28,287.92 L486.48,287.93 L487.67,287.93 L488.87,287.94 L490.07,287.95 L491.27,287.95 L492.47,287.96 L493.66,287.96 L494.86,287.96 L496.06,287.97 L497.26,287.97 L498.46,287.97 L499.65,287.98 L500.85,287.98 L502.05,287.98 L503.25,287.98 L504.45,287.98 L505.64,287.99 L506.84,287.99 L508.04,287.99 L509.24,287.99 L510.44,287.99 L511.63,287.99 L512.83,287.99 L514.03,287.99 L515.23,287.99 L516.43,288.00 L517.62,288.00 L518.82,288.00 L520.02,288.00 L521.22,288.00 L522.42,288.00 L523.61,288.00 L524.81,288.00 L526.01,288.00 L527.21,288.00 L528.41,288.00 L529.60,288.00 L530.80,288.00 L532.00,288.00" fill="none" stroke="#C8D8B0" stroke-width="1.5" stroke-dasharray="6 4" opacity="0.7"/>
  </g>

  <!-- main t curve -->
  <g clip-path="url(#plotClip)">
    <path d="M54.00,279.76 L55.20,279.68 L56.40,279.60 L57.59,279.51 L58.79,279.43 L59.99,279.35 L61.19,279.26 L62.39,279.17 L63.58,279.08 L64.78,278.99 L65.98,278.90 L67.18,278.81 L68.38,278.72 L69.57,278.62 L70.77,278.52 L71.97,278.42 L73.17,278.32 L74.37,278.22 L75.56,278.12 L76.76,278.02 L77.96,277.91 L79.16,277.80 L80.36,277.69 L81.55,277.58 L82.75,277.47 L83.95,277.35 L85.15,277.23 L86.35,277.12 L87.54,277.00 L88.74,276.87 L89.94,276.75 L91.14,276.62 L92.34,276.49 L93.53,276.36 L94.73,276.23 L95.93,276.09 L97.13,275.95 L98.33,275.81 L99.52,275.67 L100.72,275.53 L101.92,275.38 L103.12,275.23 L104.32,275.07 L105.51,274.92 L106.71,274.76 L107.91,274.60 L109.11,274.44 L110.31,274.27 L111.50,274.10 L112.70,273.93 L113.90,273.75 L115.10,273.57 L116.30,273.39 L117.49,273.20 L118.69,273.01 L119.89,272.82 L121.09,272.62 L122.29,272.42 L123.48,272.21 L124.68,272.01 L125.88,271.79 L127.08,271.58 L128.28,271.35 L129.47,271.13 L130.67,270.90 L131.87,270.66 L133.07,270.43 L134.27,270.18 L135.46,269.93 L136.66,269.68 L137.86,269.42 L139.06,269.15 L140.26,268.88 L141.45,268.61 L142.65,268.33 L143.85,268.04 L145.05,267.74 L146.25,267.44 L147.44,267.14 L148.64,266.82 L149.84,266.50 L151.04,266.18 L152.24,265.84 L153.43,265.50 L154.63,265.15 L155.83,264.79 L157.03,264.43 L158.23,264.05 L159.42,263.67 L160.62,263.28 L161.82,262.88 L163.02,262.47 L164.22,262.05 L165.41,261.62 L166.61,261.18 L167.81,260.73 L169.01,260.27 L170.21,259.80 L171.40,259.31 L172.60,258.82 L173.80,258.31 L175.00,257.79 L176.20,257.26 L177.39,256.71 L178.59,256.15 L179.79,255.57 L180.99,254.98 L182.19,254.38 L183.38,253.76 L184.58,253.12 L185.78,252.47 L186.98,251.80 L188.18,251.11 L189.37,250.40 L190.57,249.67 L191.77,248.93 L192.97,248.16 L194.17,247.37 L195.36,246.56 L196.56,245.73 L197.76,244.88 L198.96,244.00 L200.16,243.10 L201.35,242.17 L202.55,241.21 L203.75,240.23 L204.95,239.22 L206.15,238.18 L207.34,237.11 L208.54,236.01 L209.74,234.87 L210.94,233.71 L212.14,232.50 L213.33,231.27 L214.53,230.00 L215.73,228.68 L216.93,227.33 L218.13,225.94 L219.32,224.51 L220.52,223.04 L221.72,221.52 L222.92,219.95 L224.12,218.34 L225.31,216.68 L226.51,214.97 L227.71,213.21 L228.91,211.40 L230.11,209.53 L231.30,207.61 L232.50,205.63 L233.70,203.59 L234.90,201.49 L236.10,199.34 L237.29,197.12 L238.49,194.83 L239.69,192.49 L240.89,190.07 L242.09,187.60 L243.28,185.05 L244.48,182.44 L245.68,179.76 L246.88,177.01 L248.08,174.20 L249.27,171.32 L250.47,168.38 L251.67,165.37 L252.87,162.29 L254.07,159.16 L255.26,155.97 L256.46,152.73 L257.66,149.43 L258.86,146.09 L260.06,142.70 L261.25,139.28 L262.45,135.83 L263.65,132.36 L264.85,128.88 L266.05,125.39 L267.24,121.91 L268.44,118.44 L269.64,115.00 L270.84,111.60 L272.04,108.26 L273.23,104.98 L274.43,101.78 L275.63,98.68 L276.83,95.70 L278.03,92.84 L279.22,90.12 L280.42,87.56 L281.62,85.18 L282.82,82.98 L284.02,80.99 L285.21,79.22 L286.41,77.68 L287.61,76.37 L288.81,75.32 L290.01,74.52 L291.20,73.98 L292.40,73.71 L293.60,73.71 L294.80,73.98 L295.99,74.52 L297.19,75.32 L298.39,76.37 L299.59,77.68 L300.79,79.22 L301.98,80.99 L303.18,82.98 L304.38,85.18 L305.58,87.56 L306.78,90.12 L307.97,92.84 L309.17,95.70 L310.37,98.68 L311.57,101.78 L312.77,104.98 L313.96,108.26 L315.16,111.60 L316.36,115.00 L317.56,118.44 L318.76,121.91 L319.95,125.39 L321.15,128.88 L322.35,132.36 L323.55,135.83 L324.75,139.28 L325.94,142.70 L327.14,146.09 L328.34,149.43 L329.54,152.73 L330.74,155.97 L331.93,159.16 L333.13,162.29 L334.33,165.37 L335.53,168.38 L336.73,171.32 L337.92,174.20 L339.12,177.01 L340.32,179.76 L341.52,182.44 L342.72,185.05 L343.91,187.60 L345.11,190.07 L346.31,192.49 L347.51,194.83 L348.71,197.12 L349.90,199.34 L351.10,201.49 L352.30,203.59 L353.50,205.63 L354.70,207.61 L355.89,209.53 L357.09,211.40 L358.29,213.21 L359.49,214.97 L360.69,216.68 L361.88,218.34 L363.08,219.95 L364.28,221.52 L365.48,223.04 L366.68,224.51 L367.87,225.94 L369.07,227.33 L370.27,228.68 L371.47,230.00 L372.67,231.27 L373.86,232.50 L375.06,233.71 L376.26,234.87 L377.46,236.01 L378.66,237.11 L379.85,238.18 L381.05,239.22 L382.25,240.23 L383.45,241.21 L384.65,242.17 L385.84,243.10 L387.04,244.00 L388.24,244.88 L389.44,245.73 L390.64,246.56 L391.83,247.37 L393.03,248.16 L394.23,248.93 L395.43,249.67 L396.63,250.40 L397.82,251.11 L399.02,251.80 L400.22,252.47 L401.42,253.12 L402.62,253.76 L403.81,254.38 L405.01,254.98 L406.21,255.57 L407.41,256.15 L408.61,256.71 L409.80,257.26 L411.00,257.79 L412.20,258.31 L413.40,258.82 L414.60,259.31 L415.79,259.80 L416.99,260.27 L418.19,260.73 L419.39,261.18 L420.59,261.62 L421.78,262.05 L422.98,262.47 L424.18,262.88 L425.38,263.28 L426.58,263.67 L427.77,264.05 L428.97,264.43 L430.17,264.79 L431.37,265.15 L432.57,265.50 L433.76,265.84 L434.96,266.18 L436.16,266.50 L437.36,266.82 L438.56,267.14 L439.75,267.44 L440.95,267.74 L442.15,268.04 L443.35,268.33 L444.55,268.61 L445.74,268.88 L446.94,269.15 L448.14,269.42 L449.34,269.68 L450.54,269.93 L451.73,270.18 L452.93,270.43 L454.13,270.66 L455.33,270.90 L456.53,271.13 L457.72,271.35 L458.92,271.58 L460.12,271.79 L461.32,272.01 L462.52,272.21 L463.71,272.42 L464.91,272.62 L466.11,272.82 L467.31,273.01 L468.51,273.20 L469.70,273.39 L470.90,273.57 L472.10,273.75 L473.30,273.93 L474.50,274.10 L475.69,274.27 L476.89,274.44 L478.09,274.60 L479.29,274.76 L480.49,274.92 L481.68,275.07 L482.88,275.23 L484.08,275.38 L485.28,275.53 L486.48,275.67 L487.67,275.81 L488.87,275.95 L490.07,276.09 L491.27,276.23 L492.47,276.36 L493.66,276.49 L494.86,276.62 L496.06,276.75 L497.26,276.87 L498.46,277.00 L499.65,277.12 L500.85,277.23 L502.05,277.35 L503.25,277.47 L504.45,277.58 L505.64,277.69 L506.84,277.80 L508.04,277.91 L509.24,278.02 L510.44,278.12 L511.63,278.22 L512.83,278.32 L514.03,278.42 L515.23,278.52 L516.43,278.62 L517.62,278.72 L518.82,278.81 L520.02,278.90 L521.22,278.99 L522.42,279.08 L523.61,279.17 L524.81,279.26 L526.01,279.35 L527.21,279.43 L528.41,279.51 L529.60,279.60 L530.80,279.68 L532.00,279.76" fill="none" stroke="#C8622A" stroke-width="2.4" stroke-linejoin="round" stroke-linecap="round"/>
  </g>

  <!-- axes -->
  <line x1="54" y1="288" x2="532" y2="288" stroke="#C8B89A" stroke-width="1.5"/>
  <line x1="54" y1="48" x2="54" y2="288" stroke="#C8B89A" stroke-width="1.5"/>

  <!-- zero vertical -->
  <line x1="293.0" y1="48" x2="293.0" y2="288" stroke="#B8A888" stroke-width="1" stroke-dasharray="3 3" opacity="0.5"/>

  <!-- tick labels -->
  <text x="101.8" y="306" text-anchor="middle" font-family="Courier New,monospace" font-size="11" fill="#7A6A56">-4</text>
<text x="149.6" y="306" text-anchor="middle" font-family="Courier New,monospace" font-size="11" fill="#7A6A56">-3</text>
<text x="197.4" y="306" text-anchor="middle" font-family="Courier New,monospace" font-size="11" fill="#7A6A56">-2</text>
<text x="245.2" y="306" text-anchor="middle" font-family="Courier New,monospace" font-size="11" fill="#7A6A56">-1</text>
<text x="293.0" y="306" text-anchor="middle" font-family="Courier New,monospace" font-size="11" fill="#7A6A56">0</text>
<text x="340.8" y="306" text-anchor="middle" font-family="Courier New,monospace" font-size="11" fill="#7A6A56">1</text>
<text x="388.6" y="306" text-anchor="middle" font-family="Courier New,monospace" font-size="11" fill="#7A6A56">2</text>
<text x="436.4" y="306" text-anchor="middle" font-family="Courier New,monospace" font-size="11" fill="#7A6A56">3</text>
<text x="484.2" y="306" text-anchor="middle" font-family="Courier New,monospace" font-size="11" fill="#7A6A56">4</text>

  <text x="46" y="292.0" text-anchor="end" font-family="Courier New,monospace" font-size="10" fill="#7A6A56">0</text>
<text x="46" y="224.7" text-anchor="end" font-family="Courier New,monospace" font-size="10" fill="#7A6A56">0.10</text>
<text x="46" y="157.3" text-anchor="end" font-family="Courier New,monospace" font-size="10" fill="#7A6A56">0.20</text>
<text x="46" y="90.0" text-anchor="end" font-family="Courier New,monospace" font-size="10" fill="#7A6A56">0.30</text>


  <!-- axis labels -->
  <text x="293.0" y="332" text-anchor="middle" font-family="Palatino Linotype,Palatino,Georgia,serif" font-size="12" fill="#7A6A56" font-style="italic">t</text>
  <text x="13" y="168.0" text-anchor="middle" font-family="Palatino Linotype,Palatino,Georgia,serif" font-size="12" fill="#7A6A56" font-style="italic" transform="rotate(-90,13,168.0)">f(t)</text>

  <!-- legend -->
  <rect x="372" y="62" width="152" height="46" rx="7" fill="#FFF1DC" stroke="#E8D9C0" stroke-width="1"/>
  <line x1="384" y1="76" x2="404" y2="76" stroke="#C8622A" stroke-width="2.4"/>
  <text x="410" y="80" font-family="Courier New,monospace" font-size="11" fill="#3A2E22">t (ν = 1)</text>
  <line x1="384" y1="96" x2="404" y2="96" stroke="#C8D8B0" stroke-width="1.5" stroke-dasharray="6 4"/>
  <text x="410" y="100" font-family="Courier New,monospace" font-size="11" fill="#7A6A56">Normal (ref)</text>

  <!-- title -->
  <text x="54" y="30" font-family="Didot,Bodoni MT,Georgia,serif" font-size="15" font-weight="700" fill="#3A2E22">Student t Distribution — ν = 1 (Cauchy)</text>
  <text x="54" y="44" font-family="Palatino Linotype,Palatino,Georgia,serif" font-size="11" fill="#7A6A56" font-style="italic">Heavy tails · Undefined mean and variance</text>

  <!-- border -->
  <rect width="560" height="340" fill="none" stroke="#E8D9C0" stroke-width="1.5" rx="14"/>
</svg>