<svg xmlns="http://www.w3.org/2000/svg" viewBox="0 0 560 340" width="560" height="340">
  <defs>
    <linearGradient id="fillGrad" x1="0" y1="0" x2="0" y2="1">
      <stop offset="0%" stop-color="#3A7DB8" stop-opacity="0.55"/>
      <stop offset="100%" stop-color="#3A7DB8" stop-opacity="0.04"/>
    </linearGradient>
    <clipPath id="plotClip">
      <rect x="54" y="48" width="478" height="240"/>
    </clipPath>
  </defs>

  <!-- background -->
  <rect width="560" height="340" fill="#FFFAF3" rx="14"/>
  <rect x="54" y="48" width="478" height="240" fill="#FDF6EC" rx="4"/>

  <!-- grid -->
  <g clip-path="url(#plotClip)">
    <line x1="54" y1="233.8" x2="532" y2="233.8" stroke="#E8D9C0" stroke-width="1" stroke-dasharray="4 4"/>
<line x1="54" y1="179.7" x2="532" y2="179.7" stroke="#E8D9C0" stroke-width="1" stroke-dasharray="4 4"/>
<line x1="54" y1="125.5" x2="532" y2="125.5" stroke="#E8D9C0" stroke-width="1" stroke-dasharray="4 4"/>
<line x1="54" y1="71.3" x2="532" y2="71.3" stroke="#E8D9C0" stroke-width="1" stroke-dasharray="4 4"/>
<line x1="101.8" y1="48" x2="101.8" y2="288" stroke="#E8D9C0" stroke-width="1" stroke-dasharray="4 4"/>
<line x1="149.6" y1="48" x2="149.6" y2="288" stroke="#E8D9C0" stroke-width="1" stroke-dasharray="4 4"/>
<line x1="197.4" y1="48" x2="197.4" y2="288" stroke="#E8D9C0" stroke-width="1" stroke-dasharray="4 4"/>
<line x1="245.2" y1="48" x2="245.2" y2="288" stroke="#E8D9C0" stroke-width="1" stroke-dasharray="4 4"/>
<line x1="293.0" y1="48" x2="293.0" y2="288" stroke="#E8D9C0" stroke-width="1" stroke-dasharray="4 4"/>
<line x1="340.8" y1="48" x2="340.8" y2="288" stroke="#E8D9C0" stroke-width="1" stroke-dasharray="4 4"/>
<line x1="388.6" y1="48" x2="388.6" y2="288" stroke="#E8D9C0" stroke-width="1" stroke-dasharray="4 4"/>
<line x1="436.4" y1="48" x2="436.4" y2="288" stroke="#E8D9C0" stroke-width="1" stroke-dasharray="4 4"/>
<line x1="484.2" y1="48" x2="484.2" y2="288" stroke="#E8D9C0" stroke-width="1" stroke-dasharray="4 4"/>

  </g>

  <!-- fill under curve -->
  <g clip-path="url(#plotClip)">
    <path d="M54.00,288.00 L54.00,287.98 L55.20,287.98 L56.40,287.98 L57.59,287.98 L58.79,287.98 L59.99,287.97 L61.19,287.97 L62.39,287.97 L63.58,287.97 L64.78,287.97 L65.98,287.96 L67.18,287.96 L68.38,287.96 L69.57,287.96 L70.77,287.95 L71.97,287.95 L73.17,287.95 L74.37,287.94 L75.56,287.94 L76.76,287.93 L77.96,287.93 L79.16,287.92 L80.36,287.92 L81.55,287.91 L82.75,287.90 L83.95,287.90 L85.15,287.89 L86.35,287.88 L87.54,287.87 L88.74,287.86 L89.94,287.86 L91.14,287.84 L92.34,287.83 L93.53,287.82 L94.73,287.81 L95.93,287.80 L97.13,287.78 L98.33,287.77 L99.52,287.75 L100.72,287.73 L101.92,287.71 L103.12,287.69 L104.32,287.67 L105.51,287.65 L106.71,287.63 L107.91,287.60 L109.11,287.57 L110.31,287.54 L111.50,287.51 L112.70,287.48 L113.90,287.44 L115.10,287.40 L116.30,287.36 L117.49,287.32 L118.69,287.27 L119.89,287.22 L121.09,287.17 L122.29,287.12 L123.48,287.06 L124.68,286.99 L125.88,286.93 L127.08,286.86 L128.28,286.78 L129.47,286.70 L130.67,286.62 L131.87,286.52 L133.07,286.43 L134.27,286.33 L135.46,286.22 L136.66,286.10 L137.86,285.98 L139.06,285.85 L140.26,285.71 L141.45,285.57 L142.65,285.42 L143.85,285.25 L145.05,285.08 L146.25,284.90 L147.44,284.70 L148.64,284.50 L149.84,284.28 L151.04,284.06 L152.24,283.81 L153.43,283.56 L154.63,283.29 L155.83,283.01 L157.03,282.71 L158.23,282.39 L159.42,282.06 L160.62,281.71 L161.82,281.34 L163.02,280.96 L164.22,280.55 L165.41,280.12 L166.61,279.67 L167.81,279.19 L169.01,278.69 L170.21,278.17 L171.40,277.62 L172.60,277.04 L173.80,276.44 L175.00,275.81 L176.20,275.14 L177.39,274.45 L178.59,273.72 L179.79,272.96 L180.99,272.17 L182.19,271.34 L183.38,270.47 L184.58,269.57 L185.78,268.62 L186.98,267.64 L188.18,266.61 L189.37,265.54 L190.57,264.43 L191.77,263.28 L192.97,262.07 L194.17,260.82 L195.36,259.52 L196.56,258.18 L197.76,256.78 L198.96,255.33 L200.16,253.83 L201.35,252.28 L202.55,250.67 L203.75,249.01 L204.95,247.29 L206.15,245.52 L207.34,243.69 L208.54,241.80 L209.74,239.86 L210.94,237.86 L212.14,235.80 L213.33,233.68 L214.53,231.51 L215.73,229.28 L216.93,226.99 L218.13,224.64 L219.32,222.23 L220.52,219.77 L221.72,217.26 L222.92,214.69 L224.12,212.06 L225.31,209.39 L226.51,206.66 L227.71,203.88 L228.91,201.06 L230.11,198.19 L231.30,195.27 L232.50,192.31 L233.70,189.32 L234.90,186.28 L236.10,183.21 L237.29,180.11 L238.49,176.98 L239.69,173.83 L240.89,170.65 L242.09,167.46 L243.28,164.25 L244.48,161.02 L245.68,157.79 L246.88,154.56 L248.08,151.33 L249.27,148.10 L250.47,144.88 L251.67,141.67 L252.87,138.49 L254.07,135.32 L255.26,132.19 L256.46,129.08 L257.66,126.01 L258.86,122.99 L260.06,120.01 L261.25,117.09 L262.45,114.22 L263.65,111.42 L264.85,108.68 L266.05,106.01 L267.24,103.42 L268.44,100.91 L269.64,98.48 L270.84,96.15 L272.04,93.91 L273.23,91.77 L274.43,89.73 L275.63,87.80 L276.83,85.98 L278.03,84.28 L279.22,82.69 L280.42,81.22 L281.62,79.88 L282.82,78.66 L284.02,77.57 L285.21,76.61 L286.41,75.79 L287.61,75.10 L288.81,74.55 L290.01,74.13 L291.20,73.85 L292.40,73.71 L293.60,73.71 L294.80,73.85 L295.99,74.13 L297.19,74.55 L298.39,75.10 L299.59,75.79 L300.79,76.61 L301.98,77.57 L303.18,78.66 L304.38,79.88 L305.58,81.22 L306.78,82.69 L307.97,84.28 L309.17,85.98 L310.37,87.80 L311.57,89.73 L312.77,91.77 L313.96,93.91 L315.16,96.15 L316.36,98.48 L317.56,100.91 L318.76,103.42 L319.95,106.01 L321.15,108.68 L322.35,111.42 L323.55,114.22 L324.75,117.09 L325.94,120.01 L327.14,122.99 L328.34,126.01 L329.54,129.08 L330.74,132.19 L331.93,135.32 L333.13,138.49 L334.33,141.67 L335.53,144.88 L336.73,148.10 L337.92,151.33 L339.12,154.56 L340.32,157.79 L341.52,161.02 L342.72,164.25 L343.91,167.46 L345.11,170.65 L346.31,173.83 L347.51,176.98 L348.71,180.11 L349.90,183.21 L351.10,186.28 L352.30,189.32 L353.50,192.31 L354.70,195.27 L355.89,198.19 L357.09,201.06 L358.29,203.88 L359.49,206.66 L360.69,209.39 L361.88,212.06 L363.08,214.69 L364.28,217.26 L365.48,219.77 L366.68,222.23 L367.87,224.64 L369.07,226.99 L370.27,229.28 L371.47,231.51 L372.67,233.68 L373.86,235.80 L375.06,237.86 L376.26,239.86 L377.46,241.80 L378.66,243.69 L379.85,245.52 L381.05,247.29 L382.25,249.01 L383.45,250.67 L384.65,252.28 L385.84,253.83 L387.04,255.33 L388.24,256.78 L389.44,258.18 L390.64,259.52 L391.83,260.82 L393.03,262.07 L394.23,263.28 L395.43,264.43 L396.63,265.54 L397.82,266.61 L399.02,267.64 L400.22,268.62 L401.42,269.57 L402.62,270.47 L403.81,271.34 L405.01,272.17 L406.21,272.96 L407.41,273.72 L408.61,274.45 L409.80,275.14 L411.00,275.81 L412.20,276.44 L413.40,277.04 L414.60,277.62 L415.79,278.17 L416.99,278.69 L418.19,279.19 L419.39,279.67 L420.59,280.12 L421.78,280.55 L422.98,280.96 L424.18,281.34 L425.38,281.71 L426.58,282.06 L427.77,282.39 L428.97,282.71 L430.17,283.01 L431.37,283.29 L432.57,283.56 L433.76,283.81 L434.96,284.06 L436.16,284.28 L437.36,284.50 L438.56,284.70 L439.75,284.90 L440.95,285.08 L442.15,285.25 L443.35,285.42 L444.55,285.57 L445.74,285.71 L446.94,285.85 L448.14,285.98 L449.34,286.10 L450.54,286.22 L451.73,286.33 L452.93,286.43 L454.13,286.52 L455.33,286.62 L456.53,286.70 L457.72,286.78 L458.92,286.86 L460.12,286.93 L461.32,286.99 L462.52,287.06 L463.71,287.12 L464.91,287.17 L466.11,287.22 L467.31,287.27 L468.51,287.32 L469.70,287.36 L470.90,287.40 L472.10,287.44 L473.30,287.48 L474.50,287.51 L475.69,287.54 L476.89,287.57 L478.09,287.60 L479.29,287.63 L480.49,287.65 L481.68,287.67 L482.88,287.69 L484.08,287.71 L485.28,287.73 L486.48,287.75 L487.67,287.77 L488.87,287.78 L490.07,287.80 L491.27,287.81 L492.47,287.82 L493.66,287.83 L494.86,287.84 L496.06,287.86 L497.26,287.86 L498.46,287.87 L499.65,287.88 L500.85,287.89 L502.05,287.90 L503.25,287.90 L504.45,287.91 L505.64,287.92 L506.84,287.92 L508.04,287.93 L509.24,287.93 L510.44,287.94 L511.63,287.94 L512.83,287.95 L514.03,287.95 L515.23,287.95 L516.43,287.96 L517.62,287.96 L518.82,287.96 L520.02,287.96 L521.22,287.97 L522.42,287.97 L523.61,287.97 L524.81,287.97 L526.01,287.97 L527.21,287.98 L528.41,287.98 L529.60,287.98 L530.80,287.98 L532.00,287.98 L532.00,288.00Z" fill="url(#fillGrad)"/>
  </g>

  <!-- normal ref curve -->
  <g clip-path="url(#plotClip)">
    <path d="M54.00,288.00 L55.20,288.00 L56.40,288.00 L57.59,288.00 L58.79,288.00 L59.99,288.00 L61.19,288.00 L62.39,288.00 L63.58,288.00 L64.78,288.00 L65.98,288.00 L67.18,288.00 L68.38,288.00 L69.57,288.00 L70.77,288.00 L71.97,288.00 L73.17,287.99 L74.37,287.99 L75.56,287.99 L76.76,287.99 L77.96,287.99 L79.16,287.99 L80.36,287.99 L81.55,287.99 L82.75,287.99 L83.95,287.98 L85.15,287.98 L86.35,287.98 L87.54,287.98 L88.74,287.98 L89.94,287.97 L91.14,287.97 L92.34,287.97 L93.53,287.96 L94.73,287.96 L95.93,287.96 L97.13,287.95 L98.33,287.95 L99.52,287.94 L100.72,287.93 L101.92,287.93 L103.12,287.92 L104.32,287.91 L105.51,287.90 L106.71,287.89 L107.91,287.88 L109.11,287.87 L110.31,287.85 L111.50,287.84 L112.70,287.82 L113.90,287.81 L115.10,287.79 L116.30,287.77 L117.49,287.74 L118.69,287.72 L119.89,287.69 L121.09,287.66 L122.29,287.63 L123.48,287.60 L124.68,287.56 L125.88,287.52 L127.08,287.48 L128.28,287.43 L129.47,287.38 L130.67,287.32 L131.87,287.26 L133.07,287.20 L134.27,287.13 L135.46,287.05 L136.66,286.97 L137.86,286.89 L139.06,286.79 L140.26,286.69 L141.45,286.58 L142.65,286.46 L143.85,286.34 L145.05,286.20 L146.25,286.06 L147.44,285.91 L148.64,285.74 L149.84,285.56 L151.04,285.37 L152.24,285.17 L153.43,284.96 L154.63,284.73 L155.83,284.48 L157.03,284.22 L158.23,283.94 L159.42,283.65 L160.62,283.33 L161.82,283.00 L163.02,282.64 L164.22,282.27 L165.41,281.87 L166.61,281.45 L167.81,281.00 L169.01,280.53 L170.21,280.03 L171.40,279.50 L172.60,278.94 L173.80,278.36 L175.00,277.74 L176.20,277.09 L177.39,276.40 L178.59,275.68 L179.79,274.92 L180.99,274.13 L182.19,273.29 L183.38,272.42 L184.58,271.50 L185.78,270.54 L186.98,269.54 L188.18,268.49 L189.37,267.39 L190.57,266.25 L191.77,265.05 L192.97,263.81 L194.17,262.51 L195.36,261.17 L196.56,259.77 L197.76,258.31 L198.96,256.80 L200.16,255.24 L201.35,253.61 L202.55,251.93 L203.75,250.19 L204.95,248.39 L206.15,246.53 L207.34,244.61 L208.54,242.64 L209.74,240.60 L210.94,238.50 L212.14,236.34 L213.33,234.12 L214.53,231.84 L215.73,229.49 L216.93,227.09 L218.13,224.64 L219.32,222.12 L220.52,219.55 L221.72,216.92 L222.92,214.23 L224.12,211.50 L225.31,208.71 L226.51,205.87 L227.71,202.98 L228.91,200.05 L230.11,197.07 L231.30,194.05 L232.50,190.99 L233.70,187.90 L234.90,184.77 L236.10,181.61 L237.29,178.42 L238.49,175.21 L239.69,171.98 L240.89,168.73 L242.09,165.46 L243.28,162.18 L244.48,158.90 L245.68,155.62 L246.88,152.33 L248.08,149.06 L249.27,145.79 L250.47,142.54 L251.67,139.30 L252.87,136.09 L254.07,132.91 L255.26,129.76 L256.46,126.65 L257.66,123.58 L258.86,120.56 L260.06,117.59 L261.25,114.67 L262.45,111.82 L263.65,109.03 L264.85,106.31 L266.05,103.67 L267.24,101.11 L268.44,98.62 L269.64,96.23 L270.84,93.93 L272.04,91.72 L273.23,89.61 L274.43,87.61 L275.63,85.71 L276.83,83.93 L278.03,82.25 L279.22,80.70 L280.42,79.26 L281.62,77.94 L282.82,76.75 L284.02,75.69 L285.21,74.75 L286.41,73.95 L287.61,73.27 L288.81,72.73 L290.01,72.33 L291.20,72.06 L292.40,71.92 L293.60,71.92 L294.80,72.06 L295.99,72.33 L297.19,72.73 L298.39,73.27 L299.59,73.95 L300.79,74.75 L301.98,75.69 L303.18,76.75 L304.38,77.94 L305.58,79.26 L306.78,80.70 L307.97,82.25 L309.17,83.93 L310.37,85.71 L311.57,87.61 L312.77,89.61 L313.96,91.72 L315.16,93.93 L316.36,96.23 L317.56,98.62 L318.76,101.11 L319.95,103.67 L321.15,106.31 L322.35,109.03 L323.55,111.82 L324.75,114.67 L325.94,117.59 L327.14,120.56 L328.34,123.58 L329.54,126.65 L330.74,129.76 L331.93,132.91 L333.13,136.09 L334.33,139.30 L335.53,142.54 L336.73,145.79 L337.92,149.06 L339.12,152.33 L340.32,155.62 L341.52,158.90 L342.72,162.18 L343.91,165.46 L345.11,168.73 L346.31,171.98 L347.51,175.21 L348.71,178.42 L349.90,181.61 L351.10,184.77 L352.30,187.90 L353.50,190.99 L354.70,194.05 L355.89,197.07 L357.09,200.05 L358.29,202.98 L359.49,205.87 L360.69,208.71 L361.88,211.50 L363.08,214.23 L364.28,216.92 L365.48,219.55 L366.68,222.12 L367.87,224.64 L369.07,227.09 L370.27,229.49 L371.47,231.84 L372.67,234.12 L373.86,236.34 L375.06,238.50 L376.26,240.60 L377.46,242.64 L378.66,244.61 L379.85,246.53 L381.05,248.39 L382.25,250.19 L383.45,251.93 L384.65,253.61 L385.84,255.24 L387.04,256.80 L388.24,258.31 L389.44,259.77 L390.64,261.17 L391.83,262.51 L393.03,263.81 L394.23,265.05 L395.43,266.25 L396.63,267.39 L397.82,268.49 L399.02,269.54 L400.22,270.54 L401.42,271.50 L402.62,272.42 L403.81,273.29 L405.01,274.13 L406.21,274.92 L407.41,275.68 L408.61,276.40 L409.80,277.09 L411.00,277.74 L412.20,278.36 L413.40,278.94 L414.60,279.50 L415.79,280.03 L416.99,280.53 L418.19,281.00 L419.39,281.45 L420.59,281.87 L421.78,282.27 L422.98,282.64 L424.18,283.00 L425.38,283.33 L426.58,283.65 L427.77,283.94 L428.97,284.22 L430.17,284.48 L431.37,284.73 L432.57,284.96 L433.76,285.17 L434.96,285.37 L436.16,285.56 L437.36,285.74 L438.56,285.91 L439.75,286.06 L440.95,286.20 L442.15,286.34 L443.35,286.46 L444.55,286.58 L445.74,286.69 L446.94,286.79 L448.14,286.89 L449.34,286.97 L450.54,287.05 L451.73,287.13 L452.93,287.20 L454.13,287.26 L455.33,287.32 L456.53,287.38 L457.72,287.43 L458.92,287.48 L460.12,287.52 L461.32,287.56 L462.52,287.60 L463.71,287.63 L464.91,287.66 L466.11,287.69 L467.31,287.72 L468.51,287.74 L469.70,287.77 L470.90,287.79 L472.10,287.81 L473.30,287.82 L474.50,287.84 L475.69,287.85 L476.89,287.87 L478.09,287.88 L479.29,287.89 L480.49,287.90 L481.68,287.91 L482.88,287.92 L484.08,287.93 L485.28,287.93 L486.48,287.94 L487.67,287.95 L488.87,287.95 L490.07,287.96 L491.27,287.96 L492.47,287.96 L493.66,287.97 L494.86,287.97 L496.06,287.97 L497.26,287.98 L498.46,287.98 L499.65,287.98 L500.85,287.98 L502.05,287.98 L503.25,287.99 L504.45,287.99 L505.64,287.99 L506.84,287.99 L508.04,287.99 L509.24,287.99 L510.44,287.99 L511.63,287.99 L512.83,287.99 L514.03,288.00 L515.23,288.00 L516.43,288.00 L517.62,288.00 L518.82,288.00 L520.02,288.00 L521.22,288.00 L522.42,288.00 L523.61,288.00 L524.81,288.00 L526.01,288.00 L527.21,288.00 L528.41,288.00 L529.60,288.00 L530.80,288.00 L532.00,288.00" fill="none" stroke="#C8D8B0" stroke-width="1.5" stroke-dasharray="6 4" opacity="0.7"/>
  </g>

  <!-- main t curve -->
  <g clip-path="url(#plotClip)">
    <path d="M54.00,287.98 L55.20,287.98 L56.40,287.98 L57.59,287.98 L58.79,287.98 L59.99,287.97 L61.19,287.97 L62.39,287.97 L63.58,287.97 L64.78,287.97 L65.98,287.96 L67.18,287.96 L68.38,287.96 L69.57,287.96 L70.77,287.95 L71.97,287.95 L73.17,287.95 L74.37,287.94 L75.56,287.94 L76.76,287.93 L77.96,287.93 L79.16,287.92 L80.36,287.92 L81.55,287.91 L82.75,287.90 L83.95,287.90 L85.15,287.89 L86.35,287.88 L87.54,287.87 L88.74,287.86 L89.94,287.86 L91.14,287.84 L92.34,287.83 L93.53,287.82 L94.73,287.81 L95.93,287.80 L97.13,287.78 L98.33,287.77 L99.52,287.75 L100.72,287.73 L101.92,287.71 L103.12,287.69 L104.32,287.67 L105.51,287.65 L106.71,287.63 L107.91,287.60 L109.11,287.57 L110.31,287.54 L111.50,287.51 L112.70,287.48 L113.90,287.44 L115.10,287.40 L116.30,287.36 L117.49,287.32 L118.69,287.27 L119.89,287.22 L121.09,287.17 L122.29,287.12 L123.48,287.06 L124.68,286.99 L125.88,286.93 L127.08,286.86 L128.28,286.78 L129.47,286.70 L130.67,286.62 L131.87,286.52 L133.07,286.43 L134.27,286.33 L135.46,286.22 L136.66,286.10 L137.86,285.98 L139.06,285.85 L140.26,285.71 L141.45,285.57 L142.65,285.42 L143.85,285.25 L145.05,285.08 L146.25,284.90 L147.44,284.70 L148.64,284.50 L149.84,284.28 L151.04,284.06 L152.24,283.81 L153.43,283.56 L154.63,283.29 L155.83,283.01 L157.03,282.71 L158.23,282.39 L159.42,282.06 L160.62,281.71 L161.82,281.34 L163.02,280.96 L164.22,280.55 L165.41,280.12 L166.61,279.67 L167.81,279.19 L169.01,278.69 L170.21,278.17 L171.40,277.62 L172.60,277.04 L173.80,276.44 L175.00,275.81 L176.20,275.14 L177.39,274.45 L178.59,273.72 L179.79,272.96 L180.99,272.17 L182.19,271.34 L183.38,270.47 L184.58,269.57 L185.78,268.62 L186.98,267.64 L188.18,266.61 L189.37,265.54 L190.57,264.43 L191.77,263.28 L192.97,262.07 L194.17,260.82 L195.36,259.52 L196.56,258.18 L197.76,256.78 L198.96,255.33 L200.16,253.83 L201.35,252.28 L202.55,250.67 L203.75,249.01 L204.95,247.29 L206.15,245.52 L207.34,243.69 L208.54,241.80 L209.74,239.86 L210.94,237.86 L212.14,235.80 L213.33,233.68 L214.53,231.51 L215.73,229.28 L216.93,226.99 L218.13,224.64 L219.32,222.23 L220.52,219.77 L221.72,217.26 L222.92,214.69 L224.12,212.06 L225.31,209.39 L226.51,206.66 L227.71,203.88 L228.91,201.06 L230.11,198.19 L231.30,195.27 L232.50,192.31 L233.70,189.32 L234.90,186.28 L236.10,183.21 L237.29,180.11 L238.49,176.98 L239.69,173.83 L240.89,170.65 L242.09,167.46 L243.28,164.25 L244.48,161.02 L245.68,157.79 L246.88,154.56 L248.08,151.33 L249.27,148.10 L250.47,144.88 L251.67,141.67 L252.87,138.49 L254.07,135.32 L255.26,132.19 L256.46,129.08 L257.66,126.01 L258.86,122.99 L260.06,120.01 L261.25,117.09 L262.45,114.22 L263.65,111.42 L264.85,108.68 L266.05,106.01 L267.24,103.42 L268.44,100.91 L269.64,98.48 L270.84,96.15 L272.04,93.91 L273.23,91.77 L274.43,89.73 L275.63,87.80 L276.83,85.98 L278.03,84.28 L279.22,82.69 L280.42,81.22 L281.62,79.88 L282.82,78.66 L284.02,77.57 L285.21,76.61 L286.41,75.79 L287.61,75.10 L288.81,74.55 L290.01,74.13 L291.20,73.85 L292.40,73.71 L293.60,73.71 L294.80,73.85 L295.99,74.13 L297.19,74.55 L298.39,75.10 L299.59,75.79 L300.79,76.61 L301.98,77.57 L303.18,78.66 L304.38,79.88 L305.58,81.22 L306.78,82.69 L307.97,84.28 L309.17,85.98 L310.37,87.80 L311.57,89.73 L312.77,91.77 L313.96,93.91 L315.16,96.15 L316.36,98.48 L317.56,100.91 L318.76,103.42 L319.95,106.01 L321.15,108.68 L322.35,111.42 L323.55,114.22 L324.75,117.09 L325.94,120.01 L327.14,122.99 L328.34,126.01 L329.54,129.08 L330.74,132.19 L331.93,135.32 L333.13,138.49 L334.33,141.67 L335.53,144.88 L336.73,148.10 L337.92,151.33 L339.12,154.56 L340.32,157.79 L341.52,161.02 L342.72,164.25 L343.91,167.46 L345.11,170.65 L346.31,173.83 L347.51,176.98 L348.71,180.11 L349.90,183.21 L351.10,186.28 L352.30,189.32 L353.50,192.31 L354.70,195.27 L355.89,198.19 L357.09,201.06 L358.29,203.88 L359.49,206.66 L360.69,209.39 L361.88,212.06 L363.08,214.69 L364.28,217.26 L365.48,219.77 L366.68,222.23 L367.87,224.64 L369.07,226.99 L370.27,229.28 L371.47,231.51 L372.67,233.68 L373.86,235.80 L375.06,237.86 L376.26,239.86 L377.46,241.80 L378.66,243.69 L379.85,245.52 L381.05,247.29 L382.25,249.01 L383.45,250.67 L384.65,252.28 L385.84,253.83 L387.04,255.33 L388.24,256.78 L389.44,258.18 L390.64,259.52 L391.83,260.82 L393.03,262.07 L394.23,263.28 L395.43,264.43 L396.63,265.54 L397.82,266.61 L399.02,267.64 L400.22,268.62 L401.42,269.57 L402.62,270.47 L403.81,271.34 L405.01,272.17 L406.21,272.96 L407.41,273.72 L408.61,274.45 L409.80,275.14 L411.00,275.81 L412.20,276.44 L413.40,277.04 L414.60,277.62 L415.79,278.17 L416.99,278.69 L418.19,279.19 L419.39,279.67 L420.59,280.12 L421.78,280.55 L422.98,280.96 L424.18,281.34 L425.38,281.71 L426.58,282.06 L427.77,282.39 L428.97,282.71 L430.17,283.01 L431.37,283.29 L432.57,283.56 L433.76,283.81 L434.96,284.06 L436.16,284.28 L437.36,284.50 L438.56,284.70 L439.75,284.90 L440.95,285.08 L442.15,285.25 L443.35,285.42 L444.55,285.57 L445.74,285.71 L446.94,285.85 L448.14,285.98 L449.34,286.10 L450.54,286.22 L451.73,286.33 L452.93,286.43 L454.13,286.52 L455.33,286.62 L456.53,286.70 L457.72,286.78 L458.92,286.86 L460.12,286.93 L461.32,286.99 L462.52,287.06 L463.71,287.12 L464.91,287.17 L466.11,287.22 L467.31,287.27 L468.51,287.32 L469.70,287.36 L470.90,287.40 L472.10,287.44 L473.30,287.48 L474.50,287.51 L475.69,287.54 L476.89,287.57 L478.09,287.60 L479.29,287.63 L480.49,287.65 L481.68,287.67 L482.88,287.69 L484.08,287.71 L485.28,287.73 L486.48,287.75 L487.67,287.77 L488.87,287.78 L490.07,287.80 L491.27,287.81 L492.47,287.82 L493.66,287.83 L494.86,287.84 L496.06,287.86 L497.26,287.86 L498.46,287.87 L499.65,287.88 L500.85,287.89 L502.05,287.90 L503.25,287.90 L504.45,287.91 L505.64,287.92 L506.84,287.92 L508.04,287.93 L509.24,287.93 L510.44,287.94 L511.63,287.94 L512.83,287.95 L514.03,287.95 L515.23,287.95 L516.43,287.96 L517.62,287.96 L518.82,287.96 L520.02,287.96 L521.22,287.97 L522.42,287.97 L523.61,287.97 L524.81,287.97 L526.01,287.97 L527.21,287.98 L528.41,287.98 L529.60,287.98 L530.80,287.98 L532.00,287.98" fill="none" stroke="#3A7DB8" stroke-width="2.4" stroke-linejoin="round" stroke-linecap="round"/>
  </g>

  <!-- axes -->
  <line x1="54" y1="288" x2="532" y2="288" stroke="#C8B89A" stroke-width="1.5"/>
  <line x1="54" y1="48" x2="54" y2="288" stroke="#C8B89A" stroke-width="1.5"/>

  <!-- zero vertical -->
  <line x1="293.0" y1="48" x2="293.0" y2="288" stroke="#B8A888" stroke-width="1" stroke-dasharray="3 3" opacity="0.5"/>

  <!-- tick labels -->
  <text x="101.8" y="306" text-anchor="middle" font-family="Courier New,monospace" font-size="11" fill="#7A6A56">-4</text>
<text x="149.6" y="306" text-anchor="middle" font-family="Courier New,monospace" font-size="11" fill="#7A6A56">-3</text>
<text x="197.4" y="306" text-anchor="middle" font-family="Courier New,monospace" font-size="11" fill="#7A6A56">-2</text>
<text x="245.2" y="306" text-anchor="middle" font-family="Courier New,monospace" font-size="11" fill="#7A6A56">-1</text>
<text x="293.0" y="306" text-anchor="middle" font-family="Courier New,monospace" font-size="11" fill="#7A6A56">0</text>
<text x="340.8" y="306" text-anchor="middle" font-family="Courier New,monospace" font-size="11" fill="#7A6A56">1</text>
<text x="388.6" y="306" text-anchor="middle" font-family="Courier New,monospace" font-size="11" fill="#7A6A56">2</text>
<text x="436.4" y="306" text-anchor="middle" font-family="Courier New,monospace" font-size="11" fill="#7A6A56">3</text>
<text x="484.2" y="306" text-anchor="middle" font-family="Courier New,monospace" font-size="11" fill="#7A6A56">4</text>

  <text x="46" y="292.0" text-anchor="end" font-family="Courier New,monospace" font-size="10" fill="#7A6A56">0</text>
<text x="46" y="237.8" text-anchor="end" font-family="Courier New,monospace" font-size="10" fill="#7A6A56">0.10</text>
<text x="46" y="183.7" text-anchor="end" font-family="Courier New,monospace" font-size="10" fill="#7A6A56">0.20</text>
<text x="46" y="129.5" text-anchor="end" font-family="Courier New,monospace" font-size="10" fill="#7A6A56">0.30</text>
<text x="46" y="75.3" text-anchor="end" font-family="Courier New,monospace" font-size="10" fill="#7A6A56">0.40</text>


  <!-- axis labels -->
  <text x="293.0" y="332" text-anchor="middle" font-family="Palatino Linotype,Palatino,Georgia,serif" font-size="12" fill="#7A6A56" font-style="italic">t</text>
  <text x="13" y="168.0" text-anchor="middle" font-family="Palatino Linotype,Palatino,Georgia,serif" font-size="12" fill="#7A6A56" font-style="italic" transform="rotate(-90,13,168.0)">f(t)</text>

  <!-- legend -->
  <rect x="372" y="62" width="152" height="46" rx="7" fill="#FFF1DC" stroke="#E8D9C0" stroke-width="1"/>
  <line x1="384" y1="76" x2="404" y2="76" stroke="#3A7DB8" stroke-width="2.4"/>
  <text x="410" y="80" font-family="Courier New,monospace" font-size="11" fill="#3A2E22">t (ν = 30)</text>
  <line x1="384" y1="96" x2="404" y2="96" stroke="#C8D8B0" stroke-width="1.5" stroke-dasharray="6 4"/>
  <text x="410" y="100" font-family="Courier New,monospace" font-size="11" fill="#7A6A56">Normal (ref)</text>

  <!-- title -->
  <text x="54" y="30" font-family="Didot,Bodoni MT,Georgia,serif" font-size="15" font-weight="700" fill="#3A2E22">Student t Distribution — ν = 30</text>
  <text x="54" y="44" font-family="Palatino Linotype,Palatino,Georgia,serif" font-size="11" fill="#7A6A56" font-style="italic">Near-normal · Converges to N(0,1) as ν → ∞</text>

  <!-- border -->
  <rect width="560" height="340" fill="none" stroke="#E8D9C0" stroke-width="1.5" rx="14"/>
</svg>