<svg xmlns="http://www.w3.org/2000/svg" viewBox="0 0 560 340" width="560" height="340">
  <defs>
    <linearGradient id="fillGrad" x1="0" y1="0" x2="0" y2="1">
      <stop offset="0%" stop-color="#9B5FB5" stop-opacity="0.55"/>
      <stop offset="100%" stop-color="#9B5FB5" stop-opacity="0.04"/>
    </linearGradient>
    <clipPath id="plotClip">
      <rect x="54" y="48" width="478" height="240"/>
    </clipPath>
  </defs>

  <!-- background -->
  <rect width="560" height="340" fill="#FFFAF3" rx="14"/>
  <rect x="54" y="48" width="478" height="240" fill="#FDF6EC" rx="4"/>

  <!-- grid -->
  <g clip-path="url(#plotClip)">
    <line x1="54" y1="231.5" x2="532" y2="231.5" stroke="#E8D9C0" stroke-width="1" stroke-dasharray="4 4"/>
<line x1="54" y1="175.1" x2="532" y2="175.1" stroke="#E8D9C0" stroke-width="1" stroke-dasharray="4 4"/>
<line x1="54" y1="118.6" x2="532" y2="118.6" stroke="#E8D9C0" stroke-width="1" stroke-dasharray="4 4"/>
<line x1="101.8" y1="48" x2="101.8" y2="288" stroke="#E8D9C0" stroke-width="1" stroke-dasharray="4 4"/>
<line x1="149.6" y1="48" x2="149.6" y2="288" stroke="#E8D9C0" stroke-width="1" stroke-dasharray="4 4"/>
<line x1="197.4" y1="48" x2="197.4" y2="288" stroke="#E8D9C0" stroke-width="1" stroke-dasharray="4 4"/>
<line x1="245.2" y1="48" x2="245.2" y2="288" stroke="#E8D9C0" stroke-width="1" stroke-dasharray="4 4"/>
<line x1="293.0" y1="48" x2="293.0" y2="288" stroke="#E8D9C0" stroke-width="1" stroke-dasharray="4 4"/>
<line x1="340.8" y1="48" x2="340.8" y2="288" stroke="#E8D9C0" stroke-width="1" stroke-dasharray="4 4"/>
<line x1="388.6" y1="48" x2="388.6" y2="288" stroke="#E8D9C0" stroke-width="1" stroke-dasharray="4 4"/>
<line x1="436.4" y1="48" x2="436.4" y2="288" stroke="#E8D9C0" stroke-width="1" stroke-dasharray="4 4"/>
<line x1="484.2" y1="48" x2="484.2" y2="288" stroke="#E8D9C0" stroke-width="1" stroke-dasharray="4 4"/>

  </g>

  <!-- fill under curve -->
  <g clip-path="url(#plotClip)">
    <path d="M54.00,288.00 L54.00,287.01 L55.20,286.98 L56.40,286.96 L57.59,286.93 L58.79,286.90 L59.99,286.87 L61.19,286.85 L62.39,286.82 L63.58,286.78 L64.78,286.75 L65.98,286.72 L67.18,286.69 L68.38,286.65 L69.57,286.62 L70.77,286.58 L71.97,286.54 L73.17,286.50 L74.37,286.46 L75.56,286.42 L76.76,286.38 L77.96,286.33 L79.16,286.29 L80.36,286.24 L81.55,286.19 L82.75,286.14 L83.95,286.09 L85.15,286.04 L86.35,285.99 L87.54,285.93 L88.74,285.87 L89.94,285.81 L91.14,285.75 L92.34,285.69 L93.53,285.62 L94.73,285.55 L95.93,285.48 L97.13,285.41 L98.33,285.34 L99.52,285.26 L100.72,285.18 L101.92,285.10 L103.12,285.01 L104.32,284.93 L105.51,284.84 L106.71,284.74 L107.91,284.65 L109.11,284.55 L110.31,284.45 L111.50,284.34 L112.70,284.23 L113.90,284.12 L115.10,284.00 L116.30,283.88 L117.49,283.76 L118.69,283.63 L119.89,283.49 L121.09,283.36 L122.29,283.21 L123.48,283.07 L124.68,282.91 L125.88,282.76 L127.08,282.59 L128.28,282.43 L129.47,282.25 L130.67,282.07 L131.87,281.89 L133.07,281.69 L134.27,281.49 L135.46,281.29 L136.66,281.07 L137.86,280.85 L139.06,280.63 L140.26,280.39 L141.45,280.14 L142.65,279.89 L143.85,279.63 L145.05,279.36 L146.25,279.08 L147.44,278.79 L148.64,278.49 L149.84,278.17 L151.04,277.85 L152.24,277.52 L153.43,277.17 L154.63,276.82 L155.83,276.45 L157.03,276.06 L158.23,275.66 L159.42,275.25 L160.62,274.83 L161.82,274.39 L163.02,273.93 L164.22,273.46 L165.41,272.97 L166.61,272.46 L167.81,271.94 L169.01,271.40 L170.21,270.84 L171.40,270.25 L172.60,269.65 L173.80,269.03 L175.00,268.38 L176.20,267.71 L177.39,267.02 L178.59,266.31 L179.79,265.57 L180.99,264.80 L182.19,264.01 L183.38,263.19 L184.58,262.34 L185.78,261.46 L186.98,260.56 L188.18,259.62 L189.37,258.65 L190.57,257.64 L191.77,256.61 L192.97,255.54 L194.17,254.43 L195.36,253.28 L196.56,252.10 L197.76,250.88 L198.96,249.62 L200.16,248.32 L201.35,246.98 L202.55,245.60 L203.75,244.17 L204.95,242.70 L206.15,241.18 L207.34,239.61 L208.54,238.00 L209.74,236.34 L210.94,234.63 L212.14,232.87 L213.33,231.07 L214.53,229.20 L215.73,227.29 L216.93,225.33 L218.13,223.31 L219.32,221.24 L220.52,219.11 L221.72,216.94 L222.92,214.70 L224.12,212.41 L225.31,210.07 L226.51,207.68 L227.71,205.23 L228.91,202.72 L230.11,200.17 L231.30,197.56 L232.50,194.90 L233.70,192.19 L234.90,189.44 L236.10,186.63 L237.29,183.78 L238.49,180.89 L239.69,177.95 L240.89,174.98 L242.09,171.96 L243.28,168.92 L244.48,165.84 L245.68,162.74 L246.88,159.60 L248.08,156.45 L249.27,153.29 L250.47,150.11 L251.67,146.92 L252.87,143.72 L254.07,140.53 L255.26,137.35 L256.46,134.17 L257.66,131.02 L258.86,127.88 L260.06,124.78 L261.25,121.70 L262.45,118.67 L263.65,115.69 L264.85,112.76 L266.05,109.88 L267.24,107.08 L268.44,104.34 L269.64,101.69 L270.84,99.12 L272.04,96.64 L273.23,94.26 L274.43,91.98 L275.63,89.82 L276.83,87.76 L278.03,85.83 L279.22,84.03 L280.42,82.36 L281.62,80.82 L282.82,79.43 L284.02,78.17 L285.21,77.07 L286.41,76.12 L287.61,75.32 L288.81,74.68 L290.01,74.20 L291.20,73.88 L292.40,73.71 L293.60,73.71 L294.80,73.88 L295.99,74.20 L297.19,74.68 L298.39,75.32 L299.59,76.12 L300.79,77.07 L301.98,78.17 L303.18,79.43 L304.38,80.82 L305.58,82.36 L306.78,84.03 L307.97,85.83 L309.17,87.76 L310.37,89.82 L311.57,91.98 L312.77,94.26 L313.96,96.64 L315.16,99.12 L316.36,101.69 L317.56,104.34 L318.76,107.08 L319.95,109.88 L321.15,112.76 L322.35,115.69 L323.55,118.67 L324.75,121.70 L325.94,124.78 L327.14,127.88 L328.34,131.02 L329.54,134.17 L330.74,137.35 L331.93,140.53 L333.13,143.72 L334.33,146.92 L335.53,150.11 L336.73,153.29 L337.92,156.45 L339.12,159.60 L340.32,162.74 L341.52,165.84 L342.72,168.92 L343.91,171.96 L345.11,174.98 L346.31,177.95 L347.51,180.89 L348.71,183.78 L349.90,186.63 L351.10,189.44 L352.30,192.19 L353.50,194.90 L354.70,197.56 L355.89,200.17 L357.09,202.72 L358.29,205.23 L359.49,207.68 L360.69,210.07 L361.88,212.41 L363.08,214.70 L364.28,216.94 L365.48,219.11 L366.68,221.24 L367.87,223.31 L369.07,225.33 L370.27,227.29 L371.47,229.20 L372.67,231.07 L373.86,232.87 L375.06,234.63 L376.26,236.34 L377.46,238.00 L378.66,239.61 L379.85,241.18 L381.05,242.70 L382.25,244.17 L383.45,245.60 L384.65,246.98 L385.84,248.32 L387.04,249.62 L388.24,250.88 L389.44,252.10 L390.64,253.28 L391.83,254.43 L393.03,255.54 L394.23,256.61 L395.43,257.64 L396.63,258.65 L397.82,259.62 L399.02,260.56 L400.22,261.46 L401.42,262.34 L402.62,263.19 L403.81,264.01 L405.01,264.80 L406.21,265.57 L407.41,266.31 L408.61,267.02 L409.80,267.71 L411.00,268.38 L412.20,269.03 L413.40,269.65 L414.60,270.25 L415.79,270.84 L416.99,271.40 L418.19,271.94 L419.39,272.46 L420.59,272.97 L421.78,273.46 L422.98,273.93 L424.18,274.39 L425.38,274.83 L426.58,275.25 L427.77,275.66 L428.97,276.06 L430.17,276.45 L431.37,276.82 L432.57,277.17 L433.76,277.52 L434.96,277.85 L436.16,278.17 L437.36,278.49 L438.56,278.79 L439.75,279.08 L440.95,279.36 L442.15,279.63 L443.35,279.89 L444.55,280.14 L445.74,280.39 L446.94,280.63 L448.14,280.85 L449.34,281.07 L450.54,281.29 L451.73,281.49 L452.93,281.69 L454.13,281.89 L455.33,282.07 L456.53,282.25 L457.72,282.43 L458.92,282.59 L460.12,282.76 L461.32,282.91 L462.52,283.07 L463.71,283.21 L464.91,283.36 L466.11,283.49 L467.31,283.63 L468.51,283.76 L469.70,283.88 L470.90,284.00 L472.10,284.12 L473.30,284.23 L474.50,284.34 L475.69,284.45 L476.89,284.55 L478.09,284.65 L479.29,284.74 L480.49,284.84 L481.68,284.93 L482.88,285.01 L484.08,285.10 L485.28,285.18 L486.48,285.26 L487.67,285.34 L488.87,285.41 L490.07,285.48 L491.27,285.55 L492.47,285.62 L493.66,285.69 L494.86,285.75 L496.06,285.81 L497.26,285.87 L498.46,285.93 L499.65,285.99 L500.85,286.04 L502.05,286.09 L503.25,286.14 L504.45,286.19 L505.64,286.24 L506.84,286.29 L508.04,286.33 L509.24,286.38 L510.44,286.42 L511.63,286.46 L512.83,286.50 L514.03,286.54 L515.23,286.58 L516.43,286.62 L517.62,286.65 L518.82,286.69 L520.02,286.72 L521.22,286.75 L522.42,286.78 L523.61,286.82 L524.81,286.85 L526.01,286.87 L527.21,286.90 L528.41,286.93 L529.60,286.96 L530.80,286.98 L532.00,287.01 L532.00,288.00Z" fill="url(#fillGrad)"/>
  </g>

  <!-- normal ref curve -->
  <g clip-path="url(#plotClip)">
    <path d="M54.00,288.00 L55.20,288.00 L56.40,288.00 L57.59,288.00 L58.79,288.00 L59.99,288.00 L61.19,288.00 L62.39,288.00 L63.58,288.00 L64.78,288.00 L65.98,288.00 L67.18,288.00 L68.38,288.00 L69.57,288.00 L70.77,288.00 L71.97,287.99 L73.17,287.99 L74.37,287.99 L75.56,287.99 L76.76,287.99 L77.96,287.99 L79.16,287.99 L80.36,287.99 L81.55,287.99 L82.75,287.99 L83.95,287.98 L85.15,287.98 L86.35,287.98 L87.54,287.98 L88.74,287.98 L89.94,287.97 L91.14,287.97 L92.34,287.97 L93.53,287.96 L94.73,287.96 L95.93,287.95 L97.13,287.95 L98.33,287.94 L99.52,287.94 L100.72,287.93 L101.92,287.92 L103.12,287.92 L104.32,287.91 L105.51,287.90 L106.71,287.89 L107.91,287.88 L109.11,287.86 L110.31,287.85 L111.50,287.83 L112.70,287.82 L113.90,287.80 L115.10,287.78 L116.30,287.76 L117.49,287.73 L118.69,287.71 L119.89,287.68 L121.09,287.65 L122.29,287.62 L123.48,287.58 L124.68,287.54 L125.88,287.50 L127.08,287.46 L128.28,287.41 L129.47,287.35 L130.67,287.29 L131.87,287.23 L133.07,287.16 L134.27,287.09 L135.46,287.01 L136.66,286.93 L137.86,286.84 L139.06,286.74 L140.26,286.63 L141.45,286.52 L142.65,286.40 L143.85,286.27 L145.05,286.13 L146.25,285.98 L147.44,285.82 L148.64,285.64 L149.84,285.46 L151.04,285.26 L152.24,285.05 L153.43,284.83 L154.63,284.59 L155.83,284.33 L157.03,284.06 L158.23,283.77 L159.42,283.46 L160.62,283.13 L161.82,282.79 L163.02,282.42 L164.22,282.02 L165.41,281.61 L166.61,281.17 L167.81,280.70 L169.01,280.21 L170.21,279.69 L171.40,279.14 L172.60,278.56 L173.80,277.95 L175.00,277.30 L176.20,276.62 L177.39,275.91 L178.59,275.16 L179.79,274.37 L180.99,273.54 L182.19,272.67 L183.38,271.76 L184.58,270.80 L185.78,269.80 L186.98,268.76 L188.18,267.66 L189.37,266.52 L190.57,265.33 L191.77,264.08 L192.97,262.79 L194.17,261.44 L195.36,260.03 L196.56,258.58 L197.76,257.06 L198.96,255.48 L200.16,253.85 L201.35,252.16 L202.55,250.41 L203.75,248.59 L204.95,246.72 L206.15,244.78 L207.34,242.78 L208.54,240.72 L209.74,238.59 L210.94,236.41 L212.14,234.15 L213.33,231.84 L214.53,229.46 L215.73,227.02 L216.93,224.52 L218.13,221.96 L219.32,219.34 L220.52,216.66 L221.72,213.92 L222.92,211.12 L224.12,208.27 L225.31,205.36 L226.51,202.40 L227.71,199.39 L228.91,196.33 L230.11,193.23 L231.30,190.09 L232.50,186.90 L233.70,183.67 L234.90,180.41 L236.10,177.12 L237.29,173.80 L238.49,170.45 L239.69,167.08 L240.89,163.69 L242.09,160.29 L243.28,156.87 L244.48,153.45 L245.68,150.03 L246.88,146.60 L248.08,143.19 L249.27,139.78 L250.47,136.39 L251.67,133.02 L252.87,129.68 L254.07,126.36 L255.26,123.08 L256.46,119.84 L257.66,116.64 L258.86,113.49 L260.06,110.39 L261.25,107.36 L262.45,104.38 L263.65,101.47 L264.85,98.64 L266.05,95.89 L267.24,93.21 L268.44,90.63 L269.64,88.13 L270.84,85.73 L272.04,83.43 L273.23,81.24 L274.43,79.15 L275.63,77.17 L276.83,75.31 L278.03,73.56 L279.22,71.94 L280.42,70.44 L281.62,69.07 L282.82,67.83 L284.02,66.72 L285.21,65.75 L286.41,64.91 L287.61,64.21 L288.81,63.64 L290.01,63.22 L291.20,62.94 L292.40,62.80 L293.60,62.80 L294.80,62.94 L295.99,63.22 L297.19,63.64 L298.39,64.21 L299.59,64.91 L300.79,65.75 L301.98,66.72 L303.18,67.83 L304.38,69.07 L305.58,70.44 L306.78,71.94 L307.97,73.56 L309.17,75.31 L310.37,77.17 L311.57,79.15 L312.77,81.24 L313.96,83.43 L315.16,85.73 L316.36,88.13 L317.56,90.63 L318.76,93.21 L319.95,95.89 L321.15,98.64 L322.35,101.47 L323.55,104.38 L324.75,107.36 L325.94,110.39 L327.14,113.49 L328.34,116.64 L329.54,119.84 L330.74,123.08 L331.93,126.36 L333.13,129.68 L334.33,133.02 L335.53,136.39 L336.73,139.78 L337.92,143.19 L339.12,146.60 L340.32,150.03 L341.52,153.45 L342.72,156.87 L343.91,160.29 L345.11,163.69 L346.31,167.08 L347.51,170.45 L348.71,173.80 L349.90,177.12 L351.10,180.41 L352.30,183.67 L353.50,186.90 L354.70,190.09 L355.89,193.23 L357.09,196.33 L358.29,199.39 L359.49,202.40 L360.69,205.36 L361.88,208.27 L363.08,211.12 L364.28,213.92 L365.48,216.66 L366.68,219.34 L367.87,221.96 L369.07,224.52 L370.27,227.02 L371.47,229.46 L372.67,231.84 L373.86,234.15 L375.06,236.41 L376.26,238.59 L377.46,240.72 L378.66,242.78 L379.85,244.78 L381.05,246.72 L382.25,248.59 L383.45,250.41 L384.65,252.16 L385.84,253.85 L387.04,255.48 L388.24,257.06 L389.44,258.58 L390.64,260.03 L391.83,261.44 L393.03,262.79 L394.23,264.08 L395.43,265.33 L396.63,266.52 L397.82,267.66 L399.02,268.76 L400.22,269.80 L401.42,270.80 L402.62,271.76 L403.81,272.67 L405.01,273.54 L406.21,274.37 L407.41,275.16 L408.61,275.91 L409.80,276.62 L411.00,277.30 L412.20,277.95 L413.40,278.56 L414.60,279.14 L415.79,279.69 L416.99,280.21 L418.19,280.70 L419.39,281.17 L420.59,281.61 L421.78,282.02 L422.98,282.42 L424.18,282.79 L425.38,283.13 L426.58,283.46 L427.77,283.77 L428.97,284.06 L430.17,284.33 L431.37,284.59 L432.57,284.83 L433.76,285.05 L434.96,285.26 L436.16,285.46 L437.36,285.64 L438.56,285.82 L439.75,285.98 L440.95,286.13 L442.15,286.27 L443.35,286.40 L444.55,286.52 L445.74,286.63 L446.94,286.74 L448.14,286.84 L449.34,286.93 L450.54,287.01 L451.73,287.09 L452.93,287.16 L454.13,287.23 L455.33,287.29 L456.53,287.35 L457.72,287.41 L458.92,287.46 L460.12,287.50 L461.32,287.54 L462.52,287.58 L463.71,287.62 L464.91,287.65 L466.11,287.68 L467.31,287.71 L468.51,287.73 L469.70,287.76 L470.90,287.78 L472.10,287.80 L473.30,287.82 L474.50,287.83 L475.69,287.85 L476.89,287.86 L478.09,287.88 L479.29,287.89 L480.49,287.90 L481.68,287.91 L482.88,287.92 L484.08,287.92 L485.28,287.93 L486.48,287.94 L487.67,287.94 L488.87,287.95 L490.07,287.95 L491.27,287.96 L492.47,287.96 L493.66,287.97 L494.86,287.97 L496.06,287.97 L497.26,287.98 L498.46,287.98 L499.65,287.98 L500.85,287.98 L502.05,287.98 L503.25,287.99 L504.45,287.99 L505.64,287.99 L506.84,287.99 L508.04,287.99 L509.24,287.99 L510.44,287.99 L511.63,287.99 L512.83,287.99 L514.03,287.99 L515.23,288.00 L516.43,288.00 L517.62,288.00 L518.82,288.00 L520.02,288.00 L521.22,288.00 L522.42,288.00 L523.61,288.00 L524.81,288.00 L526.01,288.00 L527.21,288.00 L528.41,288.00 L529.60,288.00 L530.80,288.00 L532.00,288.00" fill="none" stroke="#C8D8B0" stroke-width="1.5" stroke-dasharray="6 4" opacity="0.7"/>
  </g>

  <!-- main t curve -->
  <g clip-path="url(#plotClip)">
    <path d="M54.00,287.01 L55.20,286.98 L56.40,286.96 L57.59,286.93 L58.79,286.90 L59.99,286.87 L61.19,286.85 L62.39,286.82 L63.58,286.78 L64.78,286.75 L65.98,286.72 L67.18,286.69 L68.38,286.65 L69.57,286.62 L70.77,286.58 L71.97,286.54 L73.17,286.50 L74.37,286.46 L75.56,286.42 L76.76,286.38 L77.96,286.33 L79.16,286.29 L80.36,286.24 L81.55,286.19 L82.75,286.14 L83.95,286.09 L85.15,286.04 L86.35,285.99 L87.54,285.93 L88.74,285.87 L89.94,285.81 L91.14,285.75 L92.34,285.69 L93.53,285.62 L94.73,285.55 L95.93,285.48 L97.13,285.41 L98.33,285.34 L99.52,285.26 L100.72,285.18 L101.92,285.10 L103.12,285.01 L104.32,284.93 L105.51,284.84 L106.71,284.74 L107.91,284.65 L109.11,284.55 L110.31,284.45 L111.50,284.34 L112.70,284.23 L113.90,284.12 L115.10,284.00 L116.30,283.88 L117.49,283.76 L118.69,283.63 L119.89,283.49 L121.09,283.36 L122.29,283.21 L123.48,283.07 L124.68,282.91 L125.88,282.76 L127.08,282.59 L128.28,282.43 L129.47,282.25 L130.67,282.07 L131.87,281.89 L133.07,281.69 L134.27,281.49 L135.46,281.29 L136.66,281.07 L137.86,280.85 L139.06,280.63 L140.26,280.39 L141.45,280.14 L142.65,279.89 L143.85,279.63 L145.05,279.36 L146.25,279.08 L147.44,278.79 L148.64,278.49 L149.84,278.17 L151.04,277.85 L152.24,277.52 L153.43,277.17 L154.63,276.82 L155.83,276.45 L157.03,276.06 L158.23,275.66 L159.42,275.25 L160.62,274.83 L161.82,274.39 L163.02,273.93 L164.22,273.46 L165.41,272.97 L166.61,272.46 L167.81,271.94 L169.01,271.40 L170.21,270.84 L171.40,270.25 L172.60,269.65 L173.80,269.03 L175.00,268.38 L176.20,267.71 L177.39,267.02 L178.59,266.31 L179.79,265.57 L180.99,264.80 L182.19,264.01 L183.38,263.19 L184.58,262.34 L185.78,261.46 L186.98,260.56 L188.18,259.62 L189.37,258.65 L190.57,257.64 L191.77,256.61 L192.97,255.54 L194.17,254.43 L195.36,253.28 L196.56,252.10 L197.76,250.88 L198.96,249.62 L200.16,248.32 L201.35,246.98 L202.55,245.60 L203.75,244.17 L204.95,242.70 L206.15,241.18 L207.34,239.61 L208.54,238.00 L209.74,236.34 L210.94,234.63 L212.14,232.87 L213.33,231.07 L214.53,229.20 L215.73,227.29 L216.93,225.33 L218.13,223.31 L219.32,221.24 L220.52,219.11 L221.72,216.94 L222.92,214.70 L224.12,212.41 L225.31,210.07 L226.51,207.68 L227.71,205.23 L228.91,202.72 L230.11,200.17 L231.30,197.56 L232.50,194.90 L233.70,192.19 L234.90,189.44 L236.10,186.63 L237.29,183.78 L238.49,180.89 L239.69,177.95 L240.89,174.98 L242.09,171.96 L243.28,168.92 L244.48,165.84 L245.68,162.74 L246.88,159.60 L248.08,156.45 L249.27,153.29 L250.47,150.11 L251.67,146.92 L252.87,143.72 L254.07,140.53 L255.26,137.35 L256.46,134.17 L257.66,131.02 L258.86,127.88 L260.06,124.78 L261.25,121.70 L262.45,118.67 L263.65,115.69 L264.85,112.76 L266.05,109.88 L267.24,107.08 L268.44,104.34 L269.64,101.69 L270.84,99.12 L272.04,96.64 L273.23,94.26 L274.43,91.98 L275.63,89.82 L276.83,87.76 L278.03,85.83 L279.22,84.03 L280.42,82.36 L281.62,80.82 L282.82,79.43 L284.02,78.17 L285.21,77.07 L286.41,76.12 L287.61,75.32 L288.81,74.68 L290.01,74.20 L291.20,73.88 L292.40,73.71 L293.60,73.71 L294.80,73.88 L295.99,74.20 L297.19,74.68 L298.39,75.32 L299.59,76.12 L300.79,77.07 L301.98,78.17 L303.18,79.43 L304.38,80.82 L305.58,82.36 L306.78,84.03 L307.97,85.83 L309.17,87.76 L310.37,89.82 L311.57,91.98 L312.77,94.26 L313.96,96.64 L315.16,99.12 L316.36,101.69 L317.56,104.34 L318.76,107.08 L319.95,109.88 L321.15,112.76 L322.35,115.69 L323.55,118.67 L324.75,121.70 L325.94,124.78 L327.14,127.88 L328.34,131.02 L329.54,134.17 L330.74,137.35 L331.93,140.53 L333.13,143.72 L334.33,146.92 L335.53,150.11 L336.73,153.29 L337.92,156.45 L339.12,159.60 L340.32,162.74 L341.52,165.84 L342.72,168.92 L343.91,171.96 L345.11,174.98 L346.31,177.95 L347.51,180.89 L348.71,183.78 L349.90,186.63 L351.10,189.44 L352.30,192.19 L353.50,194.90 L354.70,197.56 L355.89,200.17 L357.09,202.72 L358.29,205.23 L359.49,207.68 L360.69,210.07 L361.88,212.41 L363.08,214.70 L364.28,216.94 L365.48,219.11 L366.68,221.24 L367.87,223.31 L369.07,225.33 L370.27,227.29 L371.47,229.20 L372.67,231.07 L373.86,232.87 L375.06,234.63 L376.26,236.34 L377.46,238.00 L378.66,239.61 L379.85,241.18 L381.05,242.70 L382.25,244.17 L383.45,245.60 L384.65,246.98 L385.84,248.32 L387.04,249.62 L388.24,250.88 L389.44,252.10 L390.64,253.28 L391.83,254.43 L393.03,255.54 L394.23,256.61 L395.43,257.64 L396.63,258.65 L397.82,259.62 L399.02,260.56 L400.22,261.46 L401.42,262.34 L402.62,263.19 L403.81,264.01 L405.01,264.80 L406.21,265.57 L407.41,266.31 L408.61,267.02 L409.80,267.71 L411.00,268.38 L412.20,269.03 L413.40,269.65 L414.60,270.25 L415.79,270.84 L416.99,271.40 L418.19,271.94 L419.39,272.46 L420.59,272.97 L421.78,273.46 L422.98,273.93 L424.18,274.39 L425.38,274.83 L426.58,275.25 L427.77,275.66 L428.97,276.06 L430.17,276.45 L431.37,276.82 L432.57,277.17 L433.76,277.52 L434.96,277.85 L436.16,278.17 L437.36,278.49 L438.56,278.79 L439.75,279.08 L440.95,279.36 L442.15,279.63 L443.35,279.89 L444.55,280.14 L445.74,280.39 L446.94,280.63 L448.14,280.85 L449.34,281.07 L450.54,281.29 L451.73,281.49 L452.93,281.69 L454.13,281.89 L455.33,282.07 L456.53,282.25 L457.72,282.43 L458.92,282.59 L460.12,282.76 L461.32,282.91 L462.52,283.07 L463.71,283.21 L464.91,283.36 L466.11,283.49 L467.31,283.63 L468.51,283.76 L469.70,283.88 L470.90,284.00 L472.10,284.12 L473.30,284.23 L474.50,284.34 L475.69,284.45 L476.89,284.55 L478.09,284.65 L479.29,284.74 L480.49,284.84 L481.68,284.93 L482.88,285.01 L484.08,285.10 L485.28,285.18 L486.48,285.26 L487.67,285.34 L488.87,285.41 L490.07,285.48 L491.27,285.55 L492.47,285.62 L493.66,285.69 L494.86,285.75 L496.06,285.81 L497.26,285.87 L498.46,285.93 L499.65,285.99 L500.85,286.04 L502.05,286.09 L503.25,286.14 L504.45,286.19 L505.64,286.24 L506.84,286.29 L508.04,286.33 L509.24,286.38 L510.44,286.42 L511.63,286.46 L512.83,286.50 L514.03,286.54 L515.23,286.58 L516.43,286.62 L517.62,286.65 L518.82,286.69 L520.02,286.72 L521.22,286.75 L522.42,286.78 L523.61,286.82 L524.81,286.85 L526.01,286.87 L527.21,286.90 L528.41,286.93 L529.60,286.96 L530.80,286.98 L532.00,287.01" fill="none" stroke="#9B5FB5" stroke-width="2.4" stroke-linejoin="round" stroke-linecap="round"/>
  </g>

  <!-- axes -->
  <line x1="54" y1="288" x2="532" y2="288" stroke="#C8B89A" stroke-width="1.5"/>
  <line x1="54" y1="48" x2="54" y2="288" stroke="#C8B89A" stroke-width="1.5"/>

  <!-- zero vertical -->
  <line x1="293.0" y1="48" x2="293.0" y2="288" stroke="#B8A888" stroke-width="1" stroke-dasharray="3 3" opacity="0.5"/>

  <!-- tick labels -->
  <text x="101.8" y="306" text-anchor="middle" font-family="Courier New,monospace" font-size="11" fill="#7A6A56">-4</text>
<text x="149.6" y="306" text-anchor="middle" font-family="Courier New,monospace" font-size="11" fill="#7A6A56">-3</text>
<text x="197.4" y="306" text-anchor="middle" font-family="Courier New,monospace" font-size="11" fill="#7A6A56">-2</text>
<text x="245.2" y="306" text-anchor="middle" font-family="Courier New,monospace" font-size="11" fill="#7A6A56">-1</text>
<text x="293.0" y="306" text-anchor="middle" font-family="Courier New,monospace" font-size="11" fill="#7A6A56">0</text>
<text x="340.8" y="306" text-anchor="middle" font-family="Courier New,monospace" font-size="11" fill="#7A6A56">1</text>
<text x="388.6" y="306" text-anchor="middle" font-family="Courier New,monospace" font-size="11" fill="#7A6A56">2</text>
<text x="436.4" y="306" text-anchor="middle" font-family="Courier New,monospace" font-size="11" fill="#7A6A56">3</text>
<text x="484.2" y="306" text-anchor="middle" font-family="Courier New,monospace" font-size="11" fill="#7A6A56">4</text>

  <text x="46" y="292.0" text-anchor="end" font-family="Courier New,monospace" font-size="10" fill="#7A6A56">0</text>
<text x="46" y="235.5" text-anchor="end" font-family="Courier New,monospace" font-size="10" fill="#7A6A56">0.10</text>
<text x="46" y="179.1" text-anchor="end" font-family="Courier New,monospace" font-size="10" fill="#7A6A56">0.20</text>
<text x="46" y="122.6" text-anchor="end" font-family="Courier New,monospace" font-size="10" fill="#7A6A56">0.30</text>


  <!-- axis labels -->
  <text x="293.0" y="332" text-anchor="middle" font-family="Palatino Linotype,Palatino,Georgia,serif" font-size="12" fill="#7A6A56" font-style="italic">t</text>
  <text x="13" y="168.0" text-anchor="middle" font-family="Palatino Linotype,Palatino,Georgia,serif" font-size="12" fill="#7A6A56" font-style="italic" transform="rotate(-90,13,168.0)">f(t)</text>

  <!-- legend -->
  <rect x="372" y="62" width="152" height="46" rx="7" fill="#FFF1DC" stroke="#E8D9C0" stroke-width="1"/>
  <line x1="384" y1="76" x2="404" y2="76" stroke="#9B5FB5" stroke-width="2.4"/>
  <text x="410" y="80" font-family="Courier New,monospace" font-size="11" fill="#3A2E22">t (ν = 5)</text>
  <line x1="384" y1="96" x2="404" y2="96" stroke="#C8D8B0" stroke-width="1.5" stroke-dasharray="6 4"/>
  <text x="410" y="100" font-family="Courier New,monospace" font-size="11" fill="#7A6A56">Normal (ref)</text>

  <!-- title -->
  <text x="54" y="30" font-family="Didot,Bodoni MT,Georgia,serif" font-size="15" font-weight="700" fill="#3A2E22">Student t Distribution — ν = 5</text>
  <text x="54" y="44" font-family="Palatino Linotype,Palatino,Georgia,serif" font-size="11" fill="#7A6A56" font-style="italic">Moderate tails · Defined mean, finite variance for ν > 2</text>

  <!-- border -->
  <rect width="560" height="340" fill="none" stroke="#E8D9C0" stroke-width="1.5" rx="14"/>
</svg>