<?xml version="1.0" encoding="utf-8" standalone="no"?>
<!DOCTYPE svg PUBLIC "-//W3C//DTD SVG 1.1//EN"
  "http://www.w3.org/Graphics/SVG/1.1/DTD/svg11.dtd">
<svg xmlns:xlink="http://www.w3.org/1999/xlink" width="921.6pt" height="468pt" viewBox="0 0 921.6 468" xmlns="http://www.w3.org/2000/svg" version="1.1">
 <metadata>
  <rdf:RDF xmlns:dc="http://purl.org/dc/elements/1.1/" xmlns:cc="http://creativecommons.org/ns#" xmlns:rdf="http://www.w3.org/1999/02/22-rdf-syntax-ns#">
   <cc:Work>
    <dc:type rdf:resource="http://purl.org/dc/dcmitype/StillImage"/>
    <dc:date>2025-04-21T12:27:02.086837</dc:date>
    <dc:format>image/svg+xml</dc:format>
    <dc:creator>
     <cc:Agent>
      <dc:title>Matplotlib v3.10.0, https://matplotlib.org/</dc:title>
     </cc:Agent>
    </dc:creator>
   </cc:Work>
  </rdf:RDF>
 </metadata>
 <defs>
  <style type="text/css">*{stroke-linejoin: round; stroke-linecap: butt}</style>
 </defs>
 <g id="figure_1">
  <g id="patch_1">
   <path d="M 0 468 
L 921.6 468 
L 921.6 0 
L 0 0 
z
" style="fill: #ffffff"/>
  </g>
  <g id="axes_1">
   <g id="patch_2">
    <path d="M 52.662857 426.771429 
L 916.114286 426.771429 
L 916.114286 25.071429 
L 52.662857 25.071429 
z
" style="fill: #ffffff"/>
   </g>
   <g id="patch_3">
    <path d="M 91.910649 426.771429 
L 114.997586 426.771429 
L 114.997586 187.639419 
L 91.910649 187.639419 
z
" clip-path="url(#p66e4f24d39)" style="fill: #fec8c8"/>
   </g>
   <g id="patch_4">
    <path d="M 553.649381 426.771429 
L 576.736318 426.771429 
L 576.736318 368.685609 
L 553.649381 368.685609 
z
" clip-path="url(#p66e4f24d39)" style="fill: #fec8c8"/>
   </g>
   <g id="patch_5">
    <path d="M 114.997586 426.771429 
L 138.084523 426.771429 
L 138.084523 79.100079 
L 114.997586 79.100079 
z
" clip-path="url(#p66e4f24d39)" style="fill: #fe8686"/>
   </g>
   <g id="patch_6">
    <path d="M 576.736318 426.771429 
L 599.823254 426.771429 
L 599.823254 338.678619 
L 576.736318 338.678619 
z
" clip-path="url(#p66e4f24d39)" style="fill: #fe8686"/>
   </g>
   <g id="patch_7">
    <path d="M 138.084523 426.771429 
L 161.171459 426.771429 
L 161.171459 242.712489 
L 138.084523 242.712489 
z
" clip-path="url(#p66e4f24d39)" style="fill: #f95252"/>
   </g>
   <g id="patch_8">
    <path d="M 599.823254 426.771429 
L 622.910191 426.771429 
L 622.910191 378.406749 
L 599.823254 378.406749 
z
" clip-path="url(#p66e4f24d39)" style="fill: #f95252"/>
   </g>
   <g id="patch_9">
    <path d="M 161.171459 426.771429 
L 184.258396 426.771429 
L 184.258396 185.430069 
L 161.171459 185.430069 
z
" clip-path="url(#p66e4f24d39)" style="fill: #df3131"/>
   </g>
   <g id="patch_10">
    <path d="M 622.910191 426.771429 
L 645.997128 426.771429 
L 645.997128 368.846289 
L 622.910191 368.846289 
z
" clip-path="url(#p66e4f24d39)" style="fill: #df3131"/>
   </g>
   <g id="patch_11">
    <path d="M 207.345332 426.771429 
L 230.432269 426.771429 
L 230.432269 95.496267 
L 207.345332 95.496267 
z
" clip-path="url(#p66e4f24d39)" style="fill: #a4d7fe"/>
   </g>
   <g id="patch_12">
    <path d="M 669.084064 426.771429 
L 692.171001 426.771429 
L 692.171001 321.842568 
L 669.084064 321.842568 
z
" clip-path="url(#p66e4f24d39)" style="fill: #a4d7fe"/>
   </g>
   <g id="patch_13">
    <path d="M 230.432269 426.771429 
L 253.519206 426.771429 
L 253.519206 233.186976 
L 230.432269 233.186976 
z
" clip-path="url(#p66e4f24d39)" style="fill: #4daaf6"/>
   </g>
   <g id="patch_14">
    <path d="M 692.171001 426.771429 
L 715.257937 426.771429 
L 715.257937 337.415674 
L 692.171001 337.415674 
z
" clip-path="url(#p66e4f24d39)" style="fill: #4daaf6"/>
   </g>
   <g id="patch_15">
    <path d="M 253.519206 426.771429 
L 276.606142 426.771429 
L 276.606142 197.121949 
L 253.519206 197.121949 
z
" clip-path="url(#p66e4f24d39)" style="fill: #228ae5"/>
   </g>
   <g id="patch_16">
    <path d="M 715.257937 426.771429 
L 738.344874 426.771429 
L 738.344874 352.288616 
L 715.257937 352.288616 
z
" clip-path="url(#p66e4f24d39)" style="fill: #228ae5"/>
   </g>
   <g id="patch_17">
    <path d="M 276.606142 426.771429 
L 299.693079 426.771429 
L 299.693079 111.669915 
L 276.606142 111.669915 
z
" clip-path="url(#p66e4f24d39)" style="fill: #1971c1"/>
   </g>
   <g id="patch_18">
    <path d="M 738.344874 426.771429 
L 761.431811 426.771429 
L 761.431811 352.307496 
L 738.344874 352.307496 
z
" clip-path="url(#p66e4f24d39)" style="fill: #1971c1"/>
   </g>
   <g id="patch_19">
    <path d="M 322.780015 426.771429 
L 345.866952 426.771429 
L 345.866952 258.525811 
L 322.780015 258.525811 
z
" clip-path="url(#p66e4f24d39)" style="fill: #b1f1ba"/>
   </g>
   <g id="patch_20">
    <path d="M 784.518747 426.771429 
L 807.605684 426.771429 
L 807.605684 413.91502 
L 784.518747 413.91502 
z
" clip-path="url(#p66e4f24d39)" style="fill: #b1f1ba"/>
   </g>
   <g id="patch_21">
    <path d="M 345.866952 426.771429 
L 368.953888 426.771429 
L 368.953888 368.536578 
L 345.866952 368.536578 
z
" clip-path="url(#p66e4f24d39)" style="fill: #69da7c"/>
   </g>
   <g id="patch_22">
    <path d="M 807.605684 426.771429 
L 830.69262 426.771429 
L 830.69262 415.196845 
L 807.605684 415.196845 
z
" clip-path="url(#p66e4f24d39)" style="fill: #69da7c"/>
   </g>
   <g id="patch_23">
    <path d="M 368.953888 426.771429 
L 392.040825 426.771429 
L 392.040825 239.296432 
L 368.953888 239.296432 
z
" clip-path="url(#p66e4f24d39)" style="fill: #40bf57"/>
   </g>
   <g id="patch_24">
    <path d="M 830.69262 426.771429 
L 853.779557 426.771429 
L 853.779557 415.152658 
L 830.69262 415.152658 
z
" clip-path="url(#p66e4f24d39)" style="fill: #40bf57"/>
   </g>
   <g id="patch_25">
    <path d="M 392.040825 426.771429 
L 415.127762 426.771429 
L 415.127762 119.578986 
L 392.040825 119.578986 
z
" clip-path="url(#p66e4f24d39)" style="fill: #2f9d44"/>
   </g>
   <g id="patch_26">
    <path d="M 853.779557 426.771429 
L 876.866494 426.771429 
L 876.866494 415.216528 
L 853.779557 415.216528 
z
" clip-path="url(#p66e4f24d39)" style="fill: #2f9d44"/>
   </g>
   <g id="matplotlib.axis_1">
    <g id="xtick_1">
     <g id="line2d_1">
      <defs>
       <path id="m8bc8f92280" d="M 0 0 
L 0 3.5 
" style="stroke: #000000; stroke-width: 0.8"/>
      </defs>
      <g>
       <use xlink:href="#m8bc8f92280" x="253.519206" y="426.771429" style="stroke: #000000; stroke-width: 0.8"/>
      </g>
     </g>
     <g id="text_1">
      <!-- O0 (default) -->
      <g transform="translate(216.531559 444.232201) scale(0.14 -0.14)">
       <defs>
        <path id="CMR17-4f" d="M 4307 2135 
C 4307 3437 3366 4416 2304 4416 
C 1216 4416 294 3424 294 2135 
C 294 845 1229 -128 2298 -128 
C 3392 -128 4307 864 4307 2135 
z
M 2304 -13 
C 1574 -13 781 711 781 2217 
C 781 3716 1651 4301 2298 4301 
C 2976 4301 3821 3698 3821 2217 
C 3821 686 3008 -13 2304 -13 
z
" transform="scale(0.015625)"/>
        <path id="CMR17-30" d="M 2688 2025 
C 2688 2416 2682 3080 2413 3591 
C 2176 4039 1798 4198 1466 4198 
C 1158 4198 768 4058 525 3597 
C 269 3118 243 2524 243 2025 
C 243 1661 250 1106 448 619 
C 723 -39 1216 -128 1466 -128 
C 1760 -128 2208 -7 2470 600 
C 2662 1042 2688 1559 2688 2025 
z
M 1466 -26 
C 1056 -26 813 325 723 812 
C 653 1188 653 1738 653 2096 
C 653 2588 653 2997 736 3387 
C 858 3929 1216 4096 1466 4096 
C 1728 4096 2067 3923 2189 3400 
C 2272 3036 2278 2607 2278 2096 
C 2278 1680 2278 1169 2202 792 
C 2067 95 1690 -26 1466 -26 
z
" transform="scale(0.015625)"/>
        <path id="CMR17-28" d="M 1958 -1561 
C 1958 -1555 1958 -1542 1939 -1523 
C 1645 -1224 858 -407 858 1581 
C 858 3569 1632 4379 1946 4697 
C 1946 4704 1958 4717 1958 4736 
C 1958 4755 1939 4768 1914 4768 
C 1843 4768 1299 4296 986 3594 
C 666 2887 576 2199 576 1588 
C 576 1128 621 351 1005 -471 
C 1312 -1135 1837 -1600 1914 -1600 
C 1946 -1600 1958 -1587 1958 -1561 
z
" transform="scale(0.015625)"/>
        <path id="CMR17-64" d="M 1869 4326 
L 1869 4160 
C 2246 4160 2304 4122 2304 3820 
L 2304 2345 
C 2278 2377 2016 2790 1498 2790 
C 845 2790 211 2208 211 1364 
C 211 525 806 -64 1434 -64 
C 1978 -64 2259 337 2291 380 
L 2291 -63 
L 3066 -63 
L 3066 128 
C 2688 128 2630 166 2630 473 
L 2630 4396 
L 1869 4326 
z
M 2291 755 
C 2291 563 2176 390 2029 262 
C 1811 70 1594 38 1472 38 
C 1286 38 621 134 621 1356 
C 621 2612 1363 2688 1530 2688 
C 1824 2688 2061 2522 2208 2291 
C 2291 2157 2291 2138 2291 2023 
L 2291 755 
z
" transform="scale(0.015625)"/>
        <path id="CMR17-65" d="M 2438 1472 
C 2464 1498 2464 1511 2464 1576 
C 2464 2238 2118 2816 1389 2816 
C 710 2816 173 2169 173 1383 
C 173 551 781 -64 1459 -64 
C 2176 -64 2458 607 2458 740 
C 2458 784 2419 784 2406 784 
C 2362 784 2355 771 2330 696 
C 2189 265 1837 51 1504 51 
C 1229 51 954 203 781 480 
C 582 803 582 1176 582 1472 
L 2438 1472 
z
M 589 1568 
C 634 2505 1126 2714 1382 2714 
C 1818 2714 2112 2297 2118 1568 
L 589 1568 
z
" transform="scale(0.015625)"/>
        <path id="CMR17-66" d="M 979 2560 
L 1709 2560 
L 1709 2725 
L 966 2725 
L 966 3494 
C 966 4022 1235 4352 1510 4352 
C 1594 4352 1690 4327 1754 4282 
C 1702 4269 1568 4225 1568 4067 
C 1568 3901 1696 3850 1786 3850 
C 1875 3850 2003 3901 2003 4067 
C 2003 4308 1773 4454 1517 4454 
C 1152 4454 653 4156 653 3481 
L 653 2725 
L 141 2725 
L 141 2560 
L 653 2560 
L 653 427 
C 653 184 627 153 218 153 
L 218 -13 
C 371 0 666 0 832 0 
C 1018 0 1344 0 1517 -13 
L 1517 153 
C 1056 153 979 153 979 439 
L 979 2560 
z
" transform="scale(0.015625)"/>
        <path id="CMR17-61" d="M 2304 1653 
C 2304 2072 2304 2294 2035 2543 
C 1798 2752 1523 2816 1306 2816 
C 800 2816 435 2407 435 1971 
C 435 1728 627 1728 666 1728 
C 749 1728 896 1778 896 1954 
C 896 2112 774 2181 666 2181 
C 640 2181 608 2174 589 2168 
C 723 2592 1069 2714 1293 2714 
C 1613 2714 1965 2429 1965 1885 
L 1965 1600 
C 1587 1600 1133 1549 774 1357 
C 371 1133 256 813 256 570 
C 256 77 832 -64 1171 -64 
C 1523 -64 1850 139 1990 511 
C 2003 233 2182 -18 2464 -18 
C 2598 -18 2938 70 2938 567 
L 2938 920 
L 2822 920 
L 2822 562 
C 2822 178 2650 128 2566 128 
C 2304 128 2304 458 2304 738 
L 2304 1653 
z
M 1965 870 
C 1965 317 1568 38 1216 38 
C 896 38 646 275 646 570 
C 646 761 730 1100 1101 1305 
C 1408 1478 1760 1504 1965 1504 
L 1965 870 
z
" transform="scale(0.015625)"/>
        <path id="CMR17-75" d="M 1882 2693 
L 1882 2528 
C 2259 2528 2317 2489 2317 2186 
L 2317 1032 
C 2317 500 2029 38 1555 38 
C 1030 38 986 348 986 678 
L 986 2763 
L 211 2693 
L 211 2528 
C 467 2528 640 2528 646 2274 
L 646 1058 
C 646 633 646 361 813 183 
C 896 101 1056 -64 1517 -64 
C 2061 -64 2272 377 2323 506 
L 2330 506 
L 2330 -63 
L 3091 -63 
L 3091 128 
C 2714 128 2656 166 2656 473 
L 2656 2763 
L 1882 2693 
z
" transform="scale(0.015625)"/>
        <path id="CMR17-6c" d="M 979 4396 
L 218 4326 
L 218 4160 
C 595 4160 653 4122 653 3817 
L 653 426 
C 653 184 627 153 218 153 
L 218 -13 
C 371 0 653 0 813 0 
C 979 0 1261 0 1414 -13 
L 1414 153 
C 1005 153 979 178 979 426 
L 979 4396 
z
" transform="scale(0.015625)"/>
        <path id="CMR17-74" d="M 966 2560 
L 1862 2560 
L 1862 2725 
L 966 2725 
L 966 3904 
L 851 3904 
C 838 3245 614 2668 70 2668 
L 70 2560 
L 627 2560 
L 627 771 
C 627 650 627 -64 1370 -64 
C 1747 -64 1965 306 1965 777 
L 1965 1140 
L 1850 1140 
L 1850 783 
C 1850 344 1677 51 1408 51 
C 1222 51 966 178 966 758 
L 966 2560 
z
" transform="scale(0.015625)"/>
        <path id="CMR17-29" d="M 1683 1581 
C 1683 2040 1638 2817 1254 3639 
C 947 4303 422 4768 346 4768 
C 326 4768 301 4761 301 4729 
C 301 4717 307 4710 314 4697 
C 621 4378 1402 3568 1402 1584 
C 1402 -407 627 -1217 314 -1537 
C 307 -1549 301 -1556 301 -1568 
C 301 -1600 326 -1600 346 -1600 
C 416 -1600 960 -1128 1274 -426 
C 1594 281 1683 969 1683 1581 
z
" transform="scale(0.015625)"/>
       </defs>
       <use xlink:href="#CMR17-4f" transform="scale(0.996264)"/>
       <use xlink:href="#CMR17-30" transform="translate(71.714788 0) scale(0.996264)"/>
       <use xlink:href="#CMR17-28" transform="translate(147.481232 0) scale(0.996264)"/>
       <use xlink:href="#CMR17-64" transform="translate(182.762 0) scale(0.996264)"/>
       <use xlink:href="#CMR17-65" transform="translate(233.657369 0) scale(0.996264)"/>
       <use xlink:href="#CMR17-66" transform="translate(274.14303 0) scale(0.996264)"/>
       <use xlink:href="#CMR17-61" transform="translate(301.616542 0) scale(0.996264)"/>
       <use xlink:href="#CMR17-75" transform="translate(347.307019 0) scale(0.996264)"/>
       <use xlink:href="#CMR17-6c" transform="translate(398.202389 0) scale(0.996264)"/>
       <use xlink:href="#CMR17-74" transform="translate(423.073448 0) scale(0.996264)"/>
       <use xlink:href="#CMR17-29" transform="translate(458.354216 0) scale(0.996264)"/>
      </g>
     </g>
    </g>
    <g id="xtick_2">
     <g id="line2d_2">
      <g>
       <use xlink:href="#m8bc8f92280" x="715.257937" y="426.771429" style="stroke: #000000; stroke-width: 0.8"/>
      </g>
     </g>
     <g id="text_2">
      <!-- O3 -->
      <g transform="translate(706.532646 443.457305) scale(0.14 -0.14)">
       <defs>
        <path id="CMR17-33" d="M 1414 2157 
C 1984 2157 2234 1662 2234 1090 
C 2234 320 1824 25 1453 25 
C 1114 25 563 194 390 693 
C 422 680 454 680 486 680 
C 640 680 755 782 755 948 
C 755 1133 614 1216 486 1216 
C 378 1216 211 1165 211 926 
C 211 335 787 -128 1466 -128 
C 2176 -128 2720 430 2720 1085 
C 2720 1707 2208 2157 1600 2227 
C 2086 2328 2554 2756 2554 3329 
C 2554 3820 2048 4179 1472 4179 
C 890 4179 378 3829 378 3329 
C 378 3110 544 3072 627 3072 
C 762 3072 877 3155 877 3321 
C 877 3486 762 3569 627 3569 
C 602 3569 570 3569 544 3557 
C 730 3959 1235 4032 1459 4032 
C 1683 4032 2106 3925 2106 3320 
C 2106 3143 2080 2828 1862 2550 
C 1670 2304 1453 2304 1242 2284 
C 1210 2284 1062 2269 1037 2269 
C 992 2263 966 2257 966 2208 
C 966 2163 973 2157 1101 2157 
L 1414 2157 
z
" transform="scale(0.015625)"/>
       </defs>
       <use xlink:href="#CMR17-4f" transform="scale(0.996264)"/>
       <use xlink:href="#CMR17-33" transform="translate(71.714788 0) scale(0.996264)"/>
      </g>
     </g>
    </g>
    <g id="text_3">
     <!-- The optimization level of GCC compiler -->
     <g transform="translate(364.274158 461.405001) scale(0.14 -0.14)">
      <defs>
       <path id="CMR17-54" d="M 3981 4326 
L 288 4326 
L 179 2918 
L 294 2918 
C 378 3976 467 4160 1453 4160 
C 1568 4160 1754 4160 1805 4154 
C 1926 4135 1926 4058 1926 3912 
L 1926 459 
C 1926 230 1907 160 1376 160 
L 1197 160 
L 1197 0 
C 1504 0 1824 0 2138 0 
C 2451 0 2771 0 3078 0 
L 3078 160 
L 2899 160 
C 2368 160 2349 230 2349 459 
L 2349 3912 
C 2349 4052 2349 4129 2464 4154 
C 2515 4160 2701 4160 2816 4160 
C 3795 4160 3891 3976 3974 2918 
L 4090 2918 
L 3981 4326 
z
" transform="scale(0.015625)"/>
       <path id="CMR17-68" d="M 2656 1933 
C 2656 2259 2592 2790 1837 2790 
C 1312 2790 1056 2368 979 2157 
L 973 2157 
L 973 4396 
L 211 4326 
L 211 4160 
C 589 4160 646 4122 646 3817 
L 646 426 
C 646 184 621 153 211 153 
L 211 -13 
C 365 0 646 0 813 0 
C 979 0 1267 0 1421 -13 
L 1421 153 
C 1011 153 986 178 986 428 
L 986 1658 
C 986 2247 1344 2688 1792 2688 
C 2266 2688 2317 2266 2317 1958 
L 2317 428 
C 2317 184 2291 153 1882 153 
L 1882 -13 
C 2035 0 2317 0 2483 0 
C 2650 0 2938 0 3091 -13 
L 3091 153 
C 2682 153 2656 178 2656 428 
L 2656 1933 
z
" transform="scale(0.015625)"/>
       <path id="CMR17-6f" d="M 2758 1356 
C 2758 2176 2163 2816 1466 2816 
C 768 2816 173 2176 173 1356 
C 173 551 768 -64 1466 -64 
C 2163 -64 2758 551 2758 1356 
z
M 1466 51 
C 1165 51 909 230 762 480 
C 602 767 582 1126 582 1408 
C 582 1677 595 2010 762 2298 
C 890 2509 1139 2714 1466 2714 
C 1754 2714 1997 2554 2150 2330 
C 2349 2029 2349 1607 2349 1408 
C 2349 1158 2336 775 2163 467 
C 1984 173 1709 51 1466 51 
z
" transform="scale(0.015625)"/>
       <path id="CMR17-70" d="M 1408 -1063 
C 998 -1063 973 -1037 973 -789 
L 973 402 
C 1158 134 1427 -38 1766 -38 
C 2406 -38 3053 523 3053 1388 
C 3053 2191 2496 2802 1837 2802 
C 1453 2802 1139 2592 960 2338 
L 960 2802 
L 198 2732 
L 198 2567 
C 576 2567 634 2528 634 2223 
L 634 -789 
C 634 -1031 608 -1063 198 -1063 
L 198 -1228 
C 352 -1216 634 -1216 800 -1216 
C 966 -1216 1254 -1216 1408 -1228 
L 1408 -1063 
z
M 973 2012 
C 973 2102 973 2235 1222 2471 
C 1254 2497 1472 2688 1792 2688 
C 2259 2688 2643 2108 2643 1382 
C 2643 656 2234 64 1728 64 
C 1498 64 1248 172 1056 472 
C 973 612 973 650 973 752 
L 973 2012 
z
" transform="scale(0.015625)"/>
       <path id="CMR17-69" d="M 992 3909 
C 992 4049 877 4170 730 4170 
C 589 4170 467 4056 467 3909 
C 467 3769 582 3648 730 3648 
C 870 3648 992 3763 992 3909 
z
M 243 2706 
L 243 2541 
C 602 2541 653 2502 653 2197 
L 653 427 
C 653 184 627 153 218 153 
L 218 -13 
C 371 0 646 0 806 0 
C 960 0 1222 0 1370 -13 
L 1370 153 
C 992 153 979 191 979 420 
L 979 2776 
L 243 2706 
z
" transform="scale(0.015625)"/>
       <path id="CMR17-6d" d="M 4326 1933 
C 4326 2252 4269 2790 3507 2790 
C 3072 2790 2771 2496 2656 2151 
L 2650 2151 
C 2573 2676 2195 2790 1837 2790 
C 1331 2790 1069 2400 973 2144 
L 966 2144 
L 966 2790 
L 211 2720 
L 211 2554 
C 589 2554 646 2515 646 2208 
L 646 428 
C 646 184 621 153 211 153 
L 211 -13 
C 365 0 646 0 813 0 
C 979 0 1267 0 1421 -13 
L 1421 153 
C 1011 153 986 178 986 428 
L 986 1658 
C 986 2247 1344 2688 1792 2688 
C 2266 2688 2317 2266 2317 1958 
L 2317 428 
C 2317 184 2291 153 1882 153 
L 1882 -13 
C 2035 0 2317 0 2483 0 
C 2650 0 2938 0 3091 -13 
L 3091 153 
C 2682 153 2656 178 2656 428 
L 2656 1658 
C 2656 2247 3014 2688 3462 2688 
C 3936 2688 3987 2266 3987 1958 
L 3987 428 
C 3987 184 3962 153 3552 153 
L 3552 -13 
C 3706 0 3987 0 4154 0 
C 4320 0 4608 0 4762 -13 
L 4762 153 
C 4352 153 4326 178 4326 428 
L 4326 1933 
z
" transform="scale(0.015625)"/>
       <path id="CMR17-7a" d="M 2310 2605 
C 2362 2670 2362 2682 2362 2695 
C 2362 2752 2336 2752 2221 2752 
L 275 2752 
L 211 1760 
L 326 1760 
C 371 2381 442 2650 1178 2650 
L 1958 2650 
L 128 96 
C 128 0 134 0 269 0 
L 2291 0 
L 2381 1152 
L 2266 1152 
C 2214 442 2131 115 1350 115 
L 531 115 
L 2310 2605 
z
" transform="scale(0.015625)"/>
       <path id="CMR17-6e" d="M 2656 1933 
C 2656 2259 2592 2790 1837 2790 
C 1331 2790 1069 2400 973 2144 
L 966 2144 
L 966 2790 
L 211 2720 
L 211 2554 
C 589 2554 646 2515 646 2208 
L 646 428 
C 646 184 621 153 211 153 
L 211 -13 
C 365 0 646 0 813 0 
C 979 0 1267 0 1421 -13 
L 1421 153 
C 1011 153 986 178 986 428 
L 986 1658 
C 986 2247 1344 2688 1792 2688 
C 2266 2688 2317 2266 2317 1958 
L 2317 428 
C 2317 184 2291 153 1882 153 
L 1882 -13 
C 2035 0 2317 0 2483 0 
C 2650 0 2938 0 3091 -13 
L 3091 153 
C 2682 153 2656 178 2656 428 
L 2656 1933 
z
" transform="scale(0.015625)"/>
       <path id="CMR17-76" d="M 2502 2163 
C 2560 2304 2662 2560 3034 2560 
L 3034 2726 
C 2912 2726 2752 2726 2630 2726 
C 2496 2726 2285 2726 2157 2732 
L 2157 2566 
C 2317 2553 2406 2477 2406 2311 
C 2406 2253 2406 2240 2368 2151 
L 1664 377 
L 902 2286 
C 864 2369 864 2381 864 2407 
C 864 2560 1075 2560 1171 2560 
L 1171 2732 
C 1018 2726 736 2726 576 2726 
C 403 2726 205 2726 64 2732 
L 64 2560 
C 307 2560 442 2560 518 2362 
L 1446 44 
C 1485 -51 1491 -64 1549 -64 
C 1606 -64 1613 -51 1651 44 
L 2502 2163 
z
" transform="scale(0.015625)"/>
       <path id="CMR17-47" d="M 3974 1233 
C 3974 1473 3994 1505 4390 1505 
L 4390 1670 
C 4237 1664 3891 1664 3718 1664 
C 3539 1664 3040 1664 2797 1664 
L 2797 1505 
L 2989 1505 
C 3539 1505 3552 1434 3552 1201 
L 3552 774 
C 3552 63 2720 63 2522 63 
C 1862 63 781 511 781 2160 
C 781 3808 1843 4250 2464 4250 
C 3187 4250 3712 3626 3834 2741 
C 3846 2664 3846 2651 3904 2651 
C 3974 2651 3974 2664 3974 2779 
L 3974 4288 
C 3974 4402 3968 4409 3930 4409 
C 3904 4409 3898 4402 3853 4326 
L 3571 3791 
C 3258 4187 2874 4416 2381 4416 
C 1286 4416 294 3456 294 2148 
C 294 845 1267 -128 2394 -128 
C 2912 -128 3418 56 3616 417 
C 3725 158 3904 -20 3936 -20 
C 3968 -20 3974 -13 3974 100 
L 3974 1233 
z
" transform="scale(0.015625)"/>
       <path id="CMR17-43" d="M 3974 4289 
C 3974 4403 3968 4410 3930 4410 
C 3904 4410 3898 4403 3853 4327 
L 3571 3792 
C 3258 4187 2874 4416 2381 4416 
C 1286 4416 294 3456 294 2148 
C 294 826 1286 -128 2387 -128 
C 3366 -128 3974 730 3974 1461 
C 3974 1524 3974 1550 3917 1550 
C 3866 1550 3866 1531 3859 1474 
C 3808 585 3168 38 2477 38 
C 1824 38 781 495 781 2147 
C 781 3805 1843 4250 2464 4250 
C 3187 4250 3712 3628 3834 2745 
C 3846 2668 3846 2655 3904 2655 
C 3974 2655 3974 2668 3974 2783 
L 3974 4289 
z
" transform="scale(0.015625)"/>
       <path id="CMR17-63" d="M 2234 2240 
C 2112 2240 1933 2240 1933 2017 
C 1933 1838 2080 1787 2163 1787 
C 2208 1787 2394 1807 2394 2024 
C 2394 2467 1958 2803 1466 2803 
C 787 2803 211 2178 211 1363 
C 211 516 813 -64 1466 -64 
C 2259 -64 2458 677 2458 748 
C 2458 774 2451 793 2406 793 
C 2362 793 2355 787 2330 703 
C 2163 180 1798 51 1523 51 
C 1114 51 621 427 621 1369 
C 621 2338 1094 2688 1472 2688 
C 1722 2688 2093 2573 2234 2240 
z
" transform="scale(0.015625)"/>
       <path id="CMR17-72" d="M 960 1497 
C 960 2112 1222 2688 1702 2688 
C 1747 2688 1792 2682 1837 2662 
C 1837 2662 1696 2617 1696 2452 
C 1696 2298 1818 2234 1914 2234 
C 1990 2234 2131 2279 2131 2458 
C 2131 2663 1926 2790 1709 2790 
C 1222 2790 1011 2317 947 2093 
L 941 2093 
L 941 2790 
L 198 2720 
L 198 2554 
C 576 2554 634 2515 634 2208 
L 634 428 
C 634 184 608 153 198 153 
L 198 -13 
C 352 0 646 0 813 0 
C 998 0 1325 0 1498 -13 
L 1498 153 
C 1037 153 960 153 960 440 
L 960 1497 
z
" transform="scale(0.015625)"/>
      </defs>
      <use xlink:href="#CMR17-54" transform="scale(0.996264)"/>
      <use xlink:href="#CMR17-68" transform="translate(66.509881 0) scale(0.996264)"/>
      <use xlink:href="#CMR17-65" transform="translate(117.40525 0) scale(0.996264)"/>
      <use xlink:href="#CMR17-6f" transform="translate(187.966877 0) scale(0.996264)"/>
      <use xlink:href="#CMR17-70" transform="translate(233.657354 0) scale(0.996264)"/>
      <use xlink:href="#CMR17-74" transform="translate(284.552724 0) scale(0.996264)"/>
      <use xlink:href="#CMR17-69" transform="translate(319.833492 0) scale(0.996264)"/>
      <use xlink:href="#CMR17-6d" transform="translate(344.70455 0) scale(0.996264)"/>
      <use xlink:href="#CMR17-69" transform="translate(421.62414 0) scale(0.996264)"/>
      <use xlink:href="#CMR17-7a" transform="translate(446.495199 0) scale(0.996264)"/>
      <use xlink:href="#CMR17-61" transform="translate(486.980859 0) scale(0.996264)"/>
      <use xlink:href="#CMR17-74" transform="translate(532.671336 0) scale(0.996264)"/>
      <use xlink:href="#CMR17-69" transform="translate(567.952104 0) scale(0.996264)"/>
      <use xlink:href="#CMR17-6f" transform="translate(592.823163 0) scale(0.996264)"/>
      <use xlink:href="#CMR17-6e" transform="translate(638.51364 0) scale(0.996264)"/>
      <use xlink:href="#CMR17-6c" transform="translate(719.484976 0) scale(0.996264)"/>
      <use xlink:href="#CMR17-65" transform="translate(744.356034 0) scale(0.996264)"/>
      <use xlink:href="#CMR17-76" transform="translate(784.841695 0) scale(0.996264)"/>
      <use xlink:href="#CMR17-65" transform="translate(830.532157 0) scale(0.996264)"/>
      <use xlink:href="#CMR17-6c" transform="translate(871.017817 0) scale(0.996264)"/>
      <use xlink:href="#CMR17-6f" transform="translate(925.964842 0) scale(0.996264)"/>
      <use xlink:href="#CMR17-66" transform="translate(971.655319 0) scale(0.996264)"/>
      <use xlink:href="#CMR17-47" transform="translate(1029.204798 0) scale(0.996264)"/>
      <use xlink:href="#CMR17-43" transform="translate(1101.560144 0) scale(0.996264)"/>
      <use xlink:href="#CMR17-43" transform="translate(1168.070024 0) scale(0.996264)"/>
      <use xlink:href="#CMR17-63" transform="translate(1264.655871 0) scale(0.996264)"/>
      <use xlink:href="#CMR17-6f" transform="translate(1305.141532 0) scale(0.996264)"/>
      <use xlink:href="#CMR17-6d" transform="translate(1350.832009 0) scale(0.996264)"/>
      <use xlink:href="#CMR17-70" transform="translate(1427.751599 0) scale(0.996264)"/>
      <use xlink:href="#CMR17-69" transform="translate(1478.646968 0) scale(0.996264)"/>
      <use xlink:href="#CMR17-6c" transform="translate(1503.518027 0) scale(0.996264)"/>
      <use xlink:href="#CMR17-65" transform="translate(1528.389085 0) scale(0.996264)"/>
      <use xlink:href="#CMR17-72" transform="translate(1568.874746 0) scale(0.996264)"/>
     </g>
    </g>
   </g>
   <g id="matplotlib.axis_2">
    <g id="ytick_1">
     <g id="line2d_3">
      <path d="M 52.662857 426.771429 
L 916.114286 426.771429 
" clip-path="url(#p66e4f24d39)" style="fill: none; stroke-dasharray: 2.96,1.28; stroke-dashoffset: 0; stroke: #000000; stroke-opacity: 0.25; stroke-width: 0.8"/>
     </g>
     <g id="line2d_4">
      <defs>
       <path id="md83b12b24d" d="M 0 0 
L -3.5 0 
" style="stroke: #000000; stroke-width: 0.8"/>
      </defs>
      <g>
       <use xlink:href="#md83b12b24d" x="52.662857" y="426.771429" style="stroke: #000000; stroke-width: 0.8"/>
      </g>
     </g>
     <g id="text_4">
      <!-- $\mathdefault{0.0}$ -->
      <g transform="translate(28.212275 431.614367) scale(0.14 -0.14)">
       <defs>
        <path id="CMMI12-3a" d="M 1178 307 
C 1178 492 1024 619 870 619 
C 685 619 557 466 557 313 
C 557 128 710 0 864 0 
C 1050 0 1178 153 1178 307 
z
" transform="scale(0.015625)"/>
       </defs>
       <use xlink:href="#CMR17-30" transform="scale(0.996264)"/>
       <use xlink:href="#CMMI12-3a" transform="translate(45.690477 0) scale(0.996264)"/>
       <use xlink:href="#CMR17-30" transform="translate(72.787654 0) scale(0.996264)"/>
      </g>
     </g>
    </g>
    <g id="ytick_2">
     <g id="line2d_5">
      <path d="M 52.662857 406.686429 
L 916.114286 406.686429 
" clip-path="url(#p66e4f24d39)" style="fill: none; stroke-dasharray: 2.96,1.28; stroke-dashoffset: 0; stroke: #000000; stroke-opacity: 0.25; stroke-width: 0.8"/>
     </g>
     <g id="line2d_6">
      <g>
       <use xlink:href="#md83b12b24d" x="52.662857" y="406.686429" style="stroke: #000000; stroke-width: 0.8"/>
      </g>
     </g>
     <g id="text_5">
      <!-- $\mathdefault{0.5}$ -->
      <g transform="translate(28.212275 411.529367) scale(0.14 -0.14)">
       <defs>
        <path id="CMR17-35" d="M 730 3692 
C 794 3666 1056 3584 1325 3584 
C 1920 3584 2246 3911 2432 4100 
C 2432 4157 2432 4192 2394 4192 
C 2387 4192 2374 4192 2323 4163 
C 2099 4058 1837 3973 1517 3973 
C 1325 3973 1037 3999 723 4139 
C 653 4171 640 4171 634 4171 
C 602 4171 595 4164 595 4037 
L 595 2203 
C 595 2089 595 2057 659 2057 
C 691 2057 704 2070 736 2114 
C 941 2401 1222 2522 1542 2522 
C 1766 2522 2246 2382 2246 1289 
C 2246 1085 2246 715 2054 421 
C 1894 159 1645 25 1370 25 
C 947 25 518 320 403 814 
C 429 807 480 795 506 795 
C 589 795 749 840 749 1038 
C 749 1210 627 1280 506 1280 
C 358 1280 262 1190 262 1011 
C 262 454 704 -128 1382 -128 
C 2042 -128 2669 440 2669 1264 
C 2669 2030 2170 2624 1549 2624 
C 1222 2624 947 2503 730 2274 
L 730 3692 
z
" transform="scale(0.015625)"/>
       </defs>
       <use xlink:href="#CMR17-30" transform="scale(0.996264)"/>
       <use xlink:href="#CMMI12-3a" transform="translate(45.690477 0) scale(0.996264)"/>
       <use xlink:href="#CMR17-35" transform="translate(72.787654 0) scale(0.996264)"/>
      </g>
     </g>
    </g>
    <g id="ytick_3">
     <g id="line2d_7">
      <path d="M 52.662857 386.601429 
L 916.114286 386.601429 
" clip-path="url(#p66e4f24d39)" style="fill: none; stroke-dasharray: 2.96,1.28; stroke-dashoffset: 0; stroke: #000000; stroke-opacity: 0.25; stroke-width: 0.8"/>
     </g>
     <g id="line2d_8">
      <g>
       <use xlink:href="#md83b12b24d" x="52.662857" y="386.601429" style="stroke: #000000; stroke-width: 0.8"/>
      </g>
     </g>
     <g id="text_6">
      <!-- $\mathdefault{1.0}$ -->
      <g transform="translate(28.212275 391.444367) scale(0.14 -0.14)">
       <defs>
        <path id="CMR17-31" d="M 1702 4058 
C 1702 4192 1696 4192 1606 4192 
C 1357 3916 979 3827 621 3827 
C 602 3827 570 3827 563 3808 
C 557 3795 557 3782 557 3648 
C 755 3648 1088 3686 1344 3839 
L 1344 461 
C 1344 236 1331 160 781 160 
L 589 160 
L 589 0 
C 896 0 1216 0 1523 0 
C 1830 0 2150 0 2458 0 
L 2458 160 
L 2266 160 
C 1715 160 1702 230 1702 458 
L 1702 4058 
z
" transform="scale(0.015625)"/>
       </defs>
       <use xlink:href="#CMR17-31" transform="scale(0.996264)"/>
       <use xlink:href="#CMMI12-3a" transform="translate(45.690477 0) scale(0.996264)"/>
       <use xlink:href="#CMR17-30" transform="translate(72.787654 0) scale(0.996264)"/>
      </g>
     </g>
    </g>
    <g id="ytick_4">
     <g id="line2d_9">
      <path d="M 52.662857 366.516429 
L 916.114286 366.516429 
" clip-path="url(#p66e4f24d39)" style="fill: none; stroke-dasharray: 2.96,1.28; stroke-dashoffset: 0; stroke: #000000; stroke-opacity: 0.25; stroke-width: 0.8"/>
     </g>
     <g id="line2d_10">
      <g>
       <use xlink:href="#md83b12b24d" x="52.662857" y="366.516429" style="stroke: #000000; stroke-width: 0.8"/>
      </g>
     </g>
     <g id="text_7">
      <!-- $\mathdefault{1.5}$ -->
      <g transform="translate(28.212275 371.359367) scale(0.14 -0.14)">
       <use xlink:href="#CMR17-31" transform="scale(0.996264)"/>
       <use xlink:href="#CMMI12-3a" transform="translate(45.690477 0) scale(0.996264)"/>
       <use xlink:href="#CMR17-35" transform="translate(72.787654 0) scale(0.996264)"/>
      </g>
     </g>
    </g>
    <g id="ytick_5">
     <g id="line2d_11">
      <path d="M 52.662857 346.431429 
L 916.114286 346.431429 
" clip-path="url(#p66e4f24d39)" style="fill: none; stroke-dasharray: 2.96,1.28; stroke-dashoffset: 0; stroke: #000000; stroke-opacity: 0.25; stroke-width: 0.8"/>
     </g>
     <g id="line2d_12">
      <g>
       <use xlink:href="#md83b12b24d" x="52.662857" y="346.431429" style="stroke: #000000; stroke-width: 0.8"/>
      </g>
     </g>
     <g id="text_8">
      <!-- $\mathdefault{2.0}$ -->
      <g transform="translate(28.212275 351.274367) scale(0.14 -0.14)">
       <defs>
        <path id="CMR17-32" d="M 2669 989 
L 2554 989 
C 2490 536 2438 459 2413 420 
C 2381 369 1920 369 1830 369 
L 602 369 
C 832 619 1280 1072 1824 1597 
C 2214 1967 2669 2402 2669 3035 
C 2669 3790 2067 4224 1395 4224 
C 691 4224 262 3604 262 3030 
C 262 2780 448 2748 525 2748 
C 589 2748 781 2787 781 3010 
C 781 3207 614 3264 525 3264 
C 486 3264 448 3258 422 3245 
C 544 3790 915 4058 1306 4058 
C 1862 4058 2227 3617 2227 3035 
C 2227 2479 1901 2000 1536 1584 
L 262 146 
L 262 0 
L 2515 0 
L 2669 989 
z
" transform="scale(0.015625)"/>
       </defs>
       <use xlink:href="#CMR17-32" transform="scale(0.996264)"/>
       <use xlink:href="#CMMI12-3a" transform="translate(45.690477 0) scale(0.996264)"/>
       <use xlink:href="#CMR17-30" transform="translate(72.787654 0) scale(0.996264)"/>
      </g>
     </g>
    </g>
    <g id="ytick_6">
     <g id="line2d_13">
      <path d="M 52.662857 326.346429 
L 916.114286 326.346429 
" clip-path="url(#p66e4f24d39)" style="fill: none; stroke-dasharray: 2.96,1.28; stroke-dashoffset: 0; stroke: #000000; stroke-opacity: 0.25; stroke-width: 0.8"/>
     </g>
     <g id="line2d_14">
      <g>
       <use xlink:href="#md83b12b24d" x="52.662857" y="326.346429" style="stroke: #000000; stroke-width: 0.8"/>
      </g>
     </g>
     <g id="text_9">
      <!-- $\mathdefault{2.5}$ -->
      <g transform="translate(28.212275 331.189367) scale(0.14 -0.14)">
       <use xlink:href="#CMR17-32" transform="scale(0.996264)"/>
       <use xlink:href="#CMMI12-3a" transform="translate(45.690477 0) scale(0.996264)"/>
       <use xlink:href="#CMR17-35" transform="translate(72.787654 0) scale(0.996264)"/>
      </g>
     </g>
    </g>
    <g id="ytick_7">
     <g id="line2d_15">
      <path d="M 52.662857 306.261429 
L 916.114286 306.261429 
" clip-path="url(#p66e4f24d39)" style="fill: none; stroke-dasharray: 2.96,1.28; stroke-dashoffset: 0; stroke: #000000; stroke-opacity: 0.25; stroke-width: 0.8"/>
     </g>
     <g id="line2d_16">
      <g>
       <use xlink:href="#md83b12b24d" x="52.662857" y="306.261429" style="stroke: #000000; stroke-width: 0.8"/>
      </g>
     </g>
     <g id="text_10">
      <!-- $\mathdefault{3.0}$ -->
      <g transform="translate(28.212275 311.104367) scale(0.14 -0.14)">
       <use xlink:href="#CMR17-33" transform="scale(0.996264)"/>
       <use xlink:href="#CMMI12-3a" transform="translate(45.690477 0) scale(0.996264)"/>
       <use xlink:href="#CMR17-30" transform="translate(72.787654 0) scale(0.996264)"/>
      </g>
     </g>
    </g>
    <g id="ytick_8">
     <g id="line2d_17">
      <path d="M 52.662857 286.176429 
L 916.114286 286.176429 
" clip-path="url(#p66e4f24d39)" style="fill: none; stroke-dasharray: 2.96,1.28; stroke-dashoffset: 0; stroke: #000000; stroke-opacity: 0.25; stroke-width: 0.8"/>
     </g>
     <g id="line2d_18">
      <g>
       <use xlink:href="#md83b12b24d" x="52.662857" y="286.176429" style="stroke: #000000; stroke-width: 0.8"/>
      </g>
     </g>
     <g id="text_11">
      <!-- $\mathdefault{3.5}$ -->
      <g transform="translate(28.212275 291.019367) scale(0.14 -0.14)">
       <use xlink:href="#CMR17-33" transform="scale(0.996264)"/>
       <use xlink:href="#CMMI12-3a" transform="translate(45.690477 0) scale(0.996264)"/>
       <use xlink:href="#CMR17-35" transform="translate(72.787654 0) scale(0.996264)"/>
      </g>
     </g>
    </g>
    <g id="ytick_9">
     <g id="line2d_19">
      <path d="M 52.662857 266.091429 
L 916.114286 266.091429 
" clip-path="url(#p66e4f24d39)" style="fill: none; stroke-dasharray: 2.96,1.28; stroke-dashoffset: 0; stroke: #000000; stroke-opacity: 0.25; stroke-width: 0.8"/>
     </g>
     <g id="line2d_20">
      <g>
       <use xlink:href="#md83b12b24d" x="52.662857" y="266.091429" style="stroke: #000000; stroke-width: 0.8"/>
      </g>
     </g>
     <g id="text_12">
      <!-- $\mathdefault{4.0}$ -->
      <g transform="translate(28.212275 270.934367) scale(0.14 -0.14)">
       <defs>
        <path id="CMR17-34" d="M 2150 4122 
C 2150 4256 2144 4256 2029 4256 
L 128 1254 
L 128 1088 
L 1779 1088 
L 1779 457 
C 1779 224 1766 160 1318 160 
L 1197 160 
L 1197 0 
C 1402 0 1747 0 1965 0 
C 2182 0 2528 0 2733 0 
L 2733 160 
L 2611 160 
C 2163 160 2150 224 2150 457 
L 2150 1088 
L 2803 1088 
L 2803 1254 
L 2150 1254 
L 2150 4122 
z
M 1798 3703 
L 1798 1254 
L 256 1254 
L 1798 3703 
z
" transform="scale(0.015625)"/>
       </defs>
       <use xlink:href="#CMR17-34" transform="scale(0.996264)"/>
       <use xlink:href="#CMMI12-3a" transform="translate(45.690477 0) scale(0.996264)"/>
       <use xlink:href="#CMR17-30" transform="translate(72.787654 0) scale(0.996264)"/>
      </g>
     </g>
    </g>
    <g id="ytick_10">
     <g id="line2d_21">
      <path d="M 52.662857 246.006429 
L 916.114286 246.006429 
" clip-path="url(#p66e4f24d39)" style="fill: none; stroke-dasharray: 2.96,1.28; stroke-dashoffset: 0; stroke: #000000; stroke-opacity: 0.25; stroke-width: 0.8"/>
     </g>
     <g id="line2d_22">
      <g>
       <use xlink:href="#md83b12b24d" x="52.662857" y="246.006429" style="stroke: #000000; stroke-width: 0.8"/>
      </g>
     </g>
     <g id="text_13">
      <!-- $\mathdefault{4.5}$ -->
      <g transform="translate(28.212275 250.849367) scale(0.14 -0.14)">
       <use xlink:href="#CMR17-34" transform="scale(0.996264)"/>
       <use xlink:href="#CMMI12-3a" transform="translate(45.690477 0) scale(0.996264)"/>
       <use xlink:href="#CMR17-35" transform="translate(72.787654 0) scale(0.996264)"/>
      </g>
     </g>
    </g>
    <g id="ytick_11">
     <g id="line2d_23">
      <path d="M 52.662857 225.921429 
L 916.114286 225.921429 
" clip-path="url(#p66e4f24d39)" style="fill: none; stroke-dasharray: 2.96,1.28; stroke-dashoffset: 0; stroke: #000000; stroke-opacity: 0.25; stroke-width: 0.8"/>
     </g>
     <g id="line2d_24">
      <g>
       <use xlink:href="#md83b12b24d" x="52.662857" y="225.921429" style="stroke: #000000; stroke-width: 0.8"/>
      </g>
     </g>
     <g id="text_14">
      <!-- $\mathdefault{5.0}$ -->
      <g transform="translate(28.212275 230.764367) scale(0.14 -0.14)">
       <use xlink:href="#CMR17-35" transform="scale(0.996264)"/>
       <use xlink:href="#CMMI12-3a" transform="translate(45.690477 0) scale(0.996264)"/>
       <use xlink:href="#CMR17-30" transform="translate(72.787654 0) scale(0.996264)"/>
      </g>
     </g>
    </g>
    <g id="ytick_12">
     <g id="line2d_25">
      <path d="M 52.662857 205.836429 
L 916.114286 205.836429 
" clip-path="url(#p66e4f24d39)" style="fill: none; stroke-dasharray: 2.96,1.28; stroke-dashoffset: 0; stroke: #000000; stroke-opacity: 0.25; stroke-width: 0.8"/>
     </g>
     <g id="line2d_26">
      <g>
       <use xlink:href="#md83b12b24d" x="52.662857" y="205.836429" style="stroke: #000000; stroke-width: 0.8"/>
      </g>
     </g>
     <g id="text_15">
      <!-- $\mathdefault{5.5}$ -->
      <g transform="translate(28.212275 210.679367) scale(0.14 -0.14)">
       <use xlink:href="#CMR17-35" transform="scale(0.996264)"/>
       <use xlink:href="#CMMI12-3a" transform="translate(45.690477 0) scale(0.996264)"/>
       <use xlink:href="#CMR17-35" transform="translate(72.787654 0) scale(0.996264)"/>
      </g>
     </g>
    </g>
    <g id="ytick_13">
     <g id="line2d_27">
      <path d="M 52.662857 185.751429 
L 916.114286 185.751429 
" clip-path="url(#p66e4f24d39)" style="fill: none; stroke-dasharray: 2.96,1.28; stroke-dashoffset: 0; stroke: #000000; stroke-opacity: 0.25; stroke-width: 0.8"/>
     </g>
     <g id="line2d_28">
      <g>
       <use xlink:href="#md83b12b24d" x="52.662857" y="185.751429" style="stroke: #000000; stroke-width: 0.8"/>
      </g>
     </g>
     <g id="text_16">
      <!-- $\mathdefault{6.0}$ -->
      <g transform="translate(28.212275 190.594367) scale(0.14 -0.14)">
       <defs>
        <path id="CMR17-36" d="M 678 2176 
C 678 3690 1395 4032 1811 4032 
C 1946 4032 2272 4009 2400 3776 
C 2298 3776 2106 3776 2106 3553 
C 2106 3381 2246 3323 2336 3323 
C 2394 3323 2566 3348 2566 3560 
C 2566 3954 2246 4179 1805 4179 
C 1043 4179 243 3390 243 1984 
C 243 253 966 -128 1478 -128 
C 2099 -128 2688 427 2688 1283 
C 2688 2081 2170 2662 1517 2662 
C 1126 2662 838 2407 678 1960 
L 678 2176 
z
M 1478 25 
C 691 25 691 1200 691 1436 
C 691 1896 909 2560 1504 2560 
C 1613 2560 1926 2560 2138 2120 
C 2253 1870 2253 1609 2253 1289 
C 2253 944 2253 690 2118 434 
C 1978 171 1773 25 1478 25 
z
" transform="scale(0.015625)"/>
       </defs>
       <use xlink:href="#CMR17-36" transform="scale(0.996264)"/>
       <use xlink:href="#CMMI12-3a" transform="translate(45.690477 0) scale(0.996264)"/>
       <use xlink:href="#CMR17-30" transform="translate(72.787654 0) scale(0.996264)"/>
      </g>
     </g>
    </g>
    <g id="ytick_14">
     <g id="line2d_29">
      <path d="M 52.662857 165.666429 
L 916.114286 165.666429 
" clip-path="url(#p66e4f24d39)" style="fill: none; stroke-dasharray: 2.96,1.28; stroke-dashoffset: 0; stroke: #000000; stroke-opacity: 0.25; stroke-width: 0.8"/>
     </g>
     <g id="line2d_30">
      <g>
       <use xlink:href="#md83b12b24d" x="52.662857" y="165.666429" style="stroke: #000000; stroke-width: 0.8"/>
      </g>
     </g>
     <g id="text_17">
      <!-- $\mathdefault{6.5}$ -->
      <g transform="translate(28.212275 170.509367) scale(0.14 -0.14)">
       <use xlink:href="#CMR17-36" transform="scale(0.996264)"/>
       <use xlink:href="#CMMI12-3a" transform="translate(45.690477 0) scale(0.996264)"/>
       <use xlink:href="#CMR17-35" transform="translate(72.787654 0) scale(0.996264)"/>
      </g>
     </g>
    </g>
    <g id="ytick_15">
     <g id="line2d_31">
      <path d="M 52.662857 145.581429 
L 916.114286 145.581429 
" clip-path="url(#p66e4f24d39)" style="fill: none; stroke-dasharray: 2.96,1.28; stroke-dashoffset: 0; stroke: #000000; stroke-opacity: 0.25; stroke-width: 0.8"/>
     </g>
     <g id="line2d_32">
      <g>
       <use xlink:href="#md83b12b24d" x="52.662857" y="145.581429" style="stroke: #000000; stroke-width: 0.8"/>
      </g>
     </g>
     <g id="text_18">
      <!-- $\mathdefault{7.0}$ -->
      <g transform="translate(28.212275 150.424367) scale(0.14 -0.14)">
       <defs>
        <path id="CMR17-37" d="M 2886 3941 
L 2886 4081 
L 1382 4081 
C 634 4081 621 4165 595 4288 
L 480 4288 
L 294 3094 
L 410 3094 
C 429 3215 474 3540 550 3661 
C 589 3712 1062 3712 1171 3712 
L 2579 3712 
L 1869 2661 
C 1395 1954 1069 999 1069 165 
C 1069 89 1069 -128 1299 -128 
C 1530 -128 1530 89 1530 171 
L 1530 465 
C 1530 1508 1709 2196 2003 2636 
L 2886 3941 
z
" transform="scale(0.015625)"/>
       </defs>
       <use xlink:href="#CMR17-37" transform="scale(0.996264)"/>
       <use xlink:href="#CMMI12-3a" transform="translate(45.690477 0) scale(0.996264)"/>
       <use xlink:href="#CMR17-30" transform="translate(72.787654 0) scale(0.996264)"/>
      </g>
     </g>
    </g>
    <g id="ytick_16">
     <g id="line2d_33">
      <path d="M 52.662857 125.496429 
L 916.114286 125.496429 
" clip-path="url(#p66e4f24d39)" style="fill: none; stroke-dasharray: 2.96,1.28; stroke-dashoffset: 0; stroke: #000000; stroke-opacity: 0.25; stroke-width: 0.8"/>
     </g>
     <g id="line2d_34">
      <g>
       <use xlink:href="#md83b12b24d" x="52.662857" y="125.496429" style="stroke: #000000; stroke-width: 0.8"/>
      </g>
     </g>
     <g id="text_19">
      <!-- $\mathdefault{7.5}$ -->
      <g transform="translate(28.212275 130.339367) scale(0.14 -0.14)">
       <use xlink:href="#CMR17-37" transform="scale(0.996264)"/>
       <use xlink:href="#CMMI12-3a" transform="translate(45.690477 0) scale(0.996264)"/>
       <use xlink:href="#CMR17-35" transform="translate(72.787654 0) scale(0.996264)"/>
      </g>
     </g>
    </g>
    <g id="ytick_17">
     <g id="line2d_35">
      <path d="M 52.662857 105.411429 
L 916.114286 105.411429 
" clip-path="url(#p66e4f24d39)" style="fill: none; stroke-dasharray: 2.96,1.28; stroke-dashoffset: 0; stroke: #000000; stroke-opacity: 0.25; stroke-width: 0.8"/>
     </g>
     <g id="line2d_36">
      <g>
       <use xlink:href="#md83b12b24d" x="52.662857" y="105.411429" style="stroke: #000000; stroke-width: 0.8"/>
      </g>
     </g>
     <g id="text_20">
      <!-- $\mathdefault{8.0}$ -->
      <g transform="translate(28.212275 110.254367) scale(0.14 -0.14)">
       <defs>
        <path id="CMR17-38" d="M 1741 2264 
C 2144 2467 2554 2773 2554 3263 
C 2554 3841 1990 4179 1472 4179 
C 890 4179 378 3759 378 3180 
C 378 3021 416 2747 666 2505 
C 730 2442 998 2251 1171 2130 
C 883 1983 211 1634 211 934 
C 211 279 838 -128 1459 -128 
C 2144 -128 2720 362 2720 1010 
C 2720 1590 2330 1857 2074 2029 
L 1741 2264 
z
M 902 2822 
C 851 2854 595 3051 595 3351 
C 595 3739 998 4032 1459 4032 
C 1965 4032 2336 3676 2336 3262 
C 2336 2669 1670 2331 1638 2331 
C 1632 2331 1626 2331 1574 2370 
L 902 2822 
z
M 2080 1519 
C 2176 1449 2483 1240 2483 851 
C 2483 381 2010 25 1472 25 
C 890 25 448 438 448 940 
C 448 1443 838 1862 1280 2060 
L 2080 1519 
z
" transform="scale(0.015625)"/>
       </defs>
       <use xlink:href="#CMR17-38" transform="scale(0.996264)"/>
       <use xlink:href="#CMMI12-3a" transform="translate(45.690477 0) scale(0.996264)"/>
       <use xlink:href="#CMR17-30" transform="translate(72.787654 0) scale(0.996264)"/>
      </g>
     </g>
    </g>
    <g id="ytick_18">
     <g id="line2d_37">
      <path d="M 52.662857 85.326429 
L 916.114286 85.326429 
" clip-path="url(#p66e4f24d39)" style="fill: none; stroke-dasharray: 2.96,1.28; stroke-dashoffset: 0; stroke: #000000; stroke-opacity: 0.25; stroke-width: 0.8"/>
     </g>
     <g id="line2d_38">
      <g>
       <use xlink:href="#md83b12b24d" x="52.662857" y="85.326429" style="stroke: #000000; stroke-width: 0.8"/>
      </g>
     </g>
     <g id="text_21">
      <!-- $\mathdefault{8.5}$ -->
      <g transform="translate(28.212275 90.169367) scale(0.14 -0.14)">
       <use xlink:href="#CMR17-38" transform="scale(0.996264)"/>
       <use xlink:href="#CMMI12-3a" transform="translate(45.690477 0) scale(0.996264)"/>
       <use xlink:href="#CMR17-35" transform="translate(72.787654 0) scale(0.996264)"/>
      </g>
     </g>
    </g>
    <g id="ytick_19">
     <g id="line2d_39">
      <path d="M 52.662857 65.241429 
L 916.114286 65.241429 
" clip-path="url(#p66e4f24d39)" style="fill: none; stroke-dasharray: 2.96,1.28; stroke-dashoffset: 0; stroke: #000000; stroke-opacity: 0.25; stroke-width: 0.8"/>
     </g>
     <g id="line2d_40">
      <g>
       <use xlink:href="#md83b12b24d" x="52.662857" y="65.241429" style="stroke: #000000; stroke-width: 0.8"/>
      </g>
     </g>
     <g id="text_22">
      <!-- $\mathdefault{9.0}$ -->
      <g transform="translate(28.212275 70.084367) scale(0.14 -0.14)">
       <defs>
        <path id="CMR17-39" d="M 2253 1864 
C 2253 464 1670 31 1190 31 
C 1043 31 685 31 538 294 
C 704 268 826 357 826 518 
C 826 692 685 749 595 749 
C 538 749 365 723 365 506 
C 365 71 742 -128 1203 -128 
C 1939 -128 2688 674 2688 2073 
C 2688 3817 1971 4179 1485 4179 
C 851 4179 243 3628 243 2778 
C 243 1991 762 1408 1414 1408 
C 1952 1408 2189 1903 2253 2112 
L 2253 1864 
z
M 1427 1510 
C 1254 1510 1011 1542 813 1922 
C 678 2169 678 2461 678 2771 
C 678 3146 678 3405 858 3684 
C 947 3817 1114 4032 1485 4032 
C 2240 4032 2240 2885 2240 2632 
C 2240 2182 2035 1510 1427 1510 
z
" transform="scale(0.015625)"/>
       </defs>
       <use xlink:href="#CMR17-39" transform="scale(0.996264)"/>
       <use xlink:href="#CMMI12-3a" transform="translate(45.690477 0) scale(0.996264)"/>
       <use xlink:href="#CMR17-30" transform="translate(72.787654 0) scale(0.996264)"/>
      </g>
     </g>
    </g>
    <g id="ytick_20">
     <g id="line2d_41">
      <path d="M 52.662857 45.156429 
L 916.114286 45.156429 
" clip-path="url(#p66e4f24d39)" style="fill: none; stroke-dasharray: 2.96,1.28; stroke-dashoffset: 0; stroke: #000000; stroke-opacity: 0.25; stroke-width: 0.8"/>
     </g>
     <g id="line2d_42">
      <g>
       <use xlink:href="#md83b12b24d" x="52.662857" y="45.156429" style="stroke: #000000; stroke-width: 0.8"/>
      </g>
     </g>
     <g id="text_23">
      <!-- $\mathdefault{9.5}$ -->
      <g transform="translate(28.212275 49.999367) scale(0.14 -0.14)">
       <use xlink:href="#CMR17-39" transform="scale(0.996264)"/>
       <use xlink:href="#CMMI12-3a" transform="translate(45.690477 0) scale(0.996264)"/>
       <use xlink:href="#CMR17-35" transform="translate(72.787654 0) scale(0.996264)"/>
      </g>
     </g>
    </g>
    <g id="ytick_21">
     <g id="line2d_43">
      <path d="M 52.662857 25.071429 
L 916.114286 25.071429 
" clip-path="url(#p66e4f24d39)" style="fill: none; stroke-dasharray: 2.96,1.28; stroke-dashoffset: 0; stroke: #000000; stroke-opacity: 0.25; stroke-width: 0.8"/>
     </g>
     <g id="line2d_44">
      <g>
       <use xlink:href="#md83b12b24d" x="52.662857" y="25.071429" style="stroke: #000000; stroke-width: 0.8"/>
      </g>
     </g>
     <g id="text_24">
      <!-- $\mathdefault{10.0}$ -->
      <g transform="translate(21.383786 29.914367) scale(0.14 -0.14)">
       <use xlink:href="#CMR17-31" transform="scale(0.996264)"/>
       <use xlink:href="#CMR17-30" transform="translate(45.690477 0) scale(0.996264)"/>
       <use xlink:href="#CMMI12-3a" transform="translate(91.380954 0) scale(0.996264)"/>
       <use xlink:href="#CMR17-30" transform="translate(118.478131 0) scale(0.996264)"/>
      </g>
     </g>
    </g>
    <g id="text_25">
     <!-- Total time cost (s) -->
     <g transform="translate(13.896862 281.573611) rotate(-90) scale(0.14 -0.14)">
      <defs>
       <path id="CMR17-73" d="M 1978 2697 
C 1978 2813 1971 2819 1933 2819 
C 1907 2819 1901 2813 1824 2717 
C 1805 2691 1747 2626 1728 2601 
C 1523 2819 1235 2819 1126 2819 
C 416 2819 160 2447 160 2076 
C 160 1498 813 1365 998 1325 
C 1402 1243 1542 1217 1677 1101 
C 1760 1025 1901 884 1901 654 
C 1901 384 1747 38 1158 38 
C 602 38 403 460 288 1021 
C 269 1110 269 1117 218 1117 
C 166 1117 160 1110 160 983 
L 160 63 
C 160 -51 166 -58 205 -58 
C 237 -58 243 -51 275 0 
C 314 57 410 211 448 276 
C 576 103 800 -64 1158 -64 
C 1792 -64 2131 283 2131 784 
C 2131 1112 1958 1285 1875 1362 
C 1683 1561 1459 1606 1190 1657 
C 838 1735 390 1825 390 2217 
C 390 2383 480 2737 1126 2737 
C 1811 2737 1850 2094 1862 1888 
C 1869 1856 1901 1849 1920 1849 
C 1978 1849 1978 1869 1978 1978 
L 1978 2697 
z
" transform="scale(0.015625)"/>
      </defs>
      <use xlink:href="#CMR17-54" transform="scale(0.996264)"/>
      <use xlink:href="#CMR17-6f" transform="translate(58.702625 0) scale(0.996264)"/>
      <use xlink:href="#CMR17-74" transform="translate(104.393102 0) scale(0.996264)"/>
      <use xlink:href="#CMR17-61" transform="translate(139.67387 0) scale(0.996264)"/>
      <use xlink:href="#CMR17-6c" transform="translate(185.364347 0) scale(0.996264)"/>
      <use xlink:href="#CMR17-74" transform="translate(240.311372 0) scale(0.996264)"/>
      <use xlink:href="#CMR17-69" transform="translate(275.59214 0) scale(0.996264)"/>
      <use xlink:href="#CMR17-6d" transform="translate(300.463198 0) scale(0.996264)"/>
      <use xlink:href="#CMR17-65" transform="translate(377.382788 0) scale(0.996264)"/>
      <use xlink:href="#CMR17-63" transform="translate(447.944415 0) scale(0.996264)"/>
      <use xlink:href="#CMR17-6f" transform="translate(488.430075 0) scale(0.996264)"/>
      <use xlink:href="#CMR17-73" transform="translate(534.120553 0) scale(0.996264)"/>
      <use xlink:href="#CMR17-74" transform="translate(569.92189 0) scale(0.996264)"/>
      <use xlink:href="#CMR17-28" transform="translate(635.278624 0) scale(0.996264)"/>
      <use xlink:href="#CMR17-73" transform="translate(670.559392 0) scale(0.996264)"/>
      <use xlink:href="#CMR17-29" transform="translate(706.36073 0) scale(0.996264)"/>
     </g>
    </g>
   </g>
   <g id="line2d_45">
    <path d="M 484.388571 426.771429 
L 484.388571 25.071429 
" clip-path="url(#p66e4f24d39)" style="fill: none; stroke: #000000; stroke-width: 1.5; stroke-linecap: square"/>
   </g>
   <g id="patch_27">
    <path d="M 52.662857 426.771429 
L 52.662857 25.071429 
" style="fill: none; stroke: #000000; stroke-width: 0.8; stroke-linejoin: miter; stroke-linecap: square"/>
   </g>
   <g id="patch_28">
    <path d="M 916.114286 426.771429 
L 916.114286 25.071429 
" style="fill: none; stroke: #000000; stroke-width: 0.8; stroke-linejoin: miter; stroke-linecap: square"/>
   </g>
   <g id="patch_29">
    <path d="M 52.662857 426.771429 
L 916.114286 426.771429 
" style="fill: none; stroke: #000000; stroke-width: 0.8; stroke-linejoin: miter; stroke-linecap: square"/>
   </g>
   <g id="patch_30">
    <path d="M 52.662857 25.071429 
L 916.114286 25.071429 
" style="fill: none; stroke: #000000; stroke-width: 0.8; stroke-linejoin: miter; stroke-linecap: square"/>
   </g>
   <g id="text_26">
    <!-- Calculate $\rm e^{-0.5}$ a billion times -->
    <g transform="translate(378.274589 19.071429) scale(0.168 -0.168)">
     <defs>
      <path id="CMSY10-0" d="M 4218 1472 
C 4326 1472 4442 1472 4442 1600 
C 4442 1728 4326 1728 4218 1728 
L 755 1728 
C 646 1728 531 1728 531 1600 
C 531 1472 646 1472 755 1472 
L 4218 1472 
z
" transform="scale(0.015625)"/>
      <path id="CMR17-62" d="M 960 4396 
L 198 4326 
L 198 4160 
C 576 4160 634 4122 634 3817 
L 634 -13 
L 749 -13 
L 934 441 
C 1120 141 1395 -64 1766 -64 
C 2406 -64 3053 500 3053 1370 
C 3053 2188 2477 2790 1830 2790 
C 1434 2790 1152 2579 960 2330 
L 960 4396 
z
M 973 2004 
C 973 2118 973 2138 1062 2272 
C 1312 2657 1670 2688 1792 2688 
C 1984 2688 2643 2585 2643 1376 
C 2643 108 1888 38 1734 38 
C 1536 38 1248 114 1043 486 
C 973 608 973 621 973 735 
L 973 2004 
z
" transform="scale(0.015625)"/>
     </defs>
     <use xlink:href="#CMR17-43" transform="scale(0.996264)"/>
     <use xlink:href="#CMR17-61" transform="translate(66.509881 0) scale(0.996264)"/>
     <use xlink:href="#CMR17-6c" transform="translate(112.200358 0) scale(0.996264)"/>
     <use xlink:href="#CMR17-63" transform="translate(137.071416 0) scale(0.996264)"/>
     <use xlink:href="#CMR17-75" transform="translate(177.557077 0) scale(0.996264)"/>
     <use xlink:href="#CMR17-6c" transform="translate(228.452446 0) scale(0.996264)"/>
     <use xlink:href="#CMR17-61" transform="translate(253.323505 0) scale(0.996264)"/>
     <use xlink:href="#CMR17-74" transform="translate(299.013982 0) scale(0.996264)"/>
     <use xlink:href="#CMR17-65" transform="translate(334.29475 0) scale(0.996264)"/>
     <use xlink:href="#CMR17-65" transform="translate(404.856377 0) scale(0.996264)"/>
     <use xlink:href="#CMSY10-0" transform="translate(445.342037 36.153639) scale(0.697382)"/>
     <use xlink:href="#CMR17-30" transform="translate(499.58303 36.153639) scale(0.697382)"/>
     <use xlink:href="#CMMI12-3a" transform="translate(531.566212 36.153639) scale(0.697382)"/>
     <use xlink:href="#CMR17-35" transform="translate(550.534145 36.153639) scale(0.697382)"/>
     <use xlink:href="#CMR17-61" transform="translate(613.091425 0) scale(0.996264)"/>
     <use xlink:href="#CMR17-62" transform="translate(688.857869 0) scale(0.996264)"/>
     <use xlink:href="#CMR17-69" transform="translate(739.753239 0) scale(0.996264)"/>
     <use xlink:href="#CMR17-6c" transform="translate(764.624297 0) scale(0.996264)"/>
     <use xlink:href="#CMR17-6c" transform="translate(789.495356 0) scale(0.996264)"/>
     <use xlink:href="#CMR17-69" transform="translate(814.366414 0) scale(0.996264)"/>
     <use xlink:href="#CMR17-6f" transform="translate(839.237473 0) scale(0.996264)"/>
     <use xlink:href="#CMR17-6e" transform="translate(884.92795 0) scale(0.996264)"/>
     <use xlink:href="#CMR17-74" transform="translate(965.899286 0) scale(0.996264)"/>
     <use xlink:href="#CMR17-69" transform="translate(1001.180054 0) scale(0.996264)"/>
     <use xlink:href="#CMR17-6d" transform="translate(1026.051112 0) scale(0.996264)"/>
     <use xlink:href="#CMR17-65" transform="translate(1102.970702 0) scale(0.996264)"/>
     <use xlink:href="#CMR17-73" transform="translate(1143.456362 0) scale(0.996264)"/>
    </g>
   </g>
   <g id="legend_1">
    <g id="patch_31">
     <path d="M 336.452095 101.569812 
L 907.714286 101.569812 
Q 910.114286 101.569812 910.114286 99.169812 
L 910.114286 33.471429 
Q 910.114286 31.071429 907.714286 31.071429 
L 336.452095 31.071429 
Q 334.052095 31.071429 334.052095 33.471429 
L 334.052095 99.169812 
Q 334.052095 101.569812 336.452095 101.569812 
z
" style="fill: #ffffff; opacity: 0.8; stroke: #cccccc; stroke-linejoin: miter"/>
    </g>
    <g id="patch_32">
     <path d="M 338.852095 44.271429 
L 362.852095 44.271429 
L 362.852095 35.871429 
L 338.852095 35.871429 
z
" style="fill: #fec8c8"/>
    </g>
    <g id="text_27">
     <!-- Windows Q_rsqrt -->
     <g transform="translate(372.452095 44.271429) scale(0.12 -0.12)">
      <defs>
       <path id="CMR17-57" d="M 5523 3764 
C 5581 3936 5677 4160 6048 4160 
L 6048 4326 
C 5939 4326 5715 4326 5600 4326 
C 5440 4326 5158 4326 5005 4332 
L 5005 4160 
C 5293 4160 5414 4000 5414 3847 
C 5414 3802 5408 3777 5382 3707 
L 4390 555 
L 3347 3873 
C 3328 3937 3322 3963 3322 3988 
C 3322 4160 3603 4160 3725 4160 
L 3725 4326 
C 3539 4326 3219 4326 3021 4326 
C 2861 4326 2573 4326 2426 4332 
L 2426 4160 
C 2720 4160 2797 4141 2861 4027 
C 2886 3969 2989 3638 2989 3619 
C 2989 3593 2976 3555 2970 3536 
L 2029 561 
L 986 3867 
C 954 3957 954 3969 954 3982 
C 954 4160 1235 4160 1363 4160 
L 1363 4326 
C 1178 4326 858 4326 659 4326 
C 493 4326 211 4326 58 4332 
L 58 4160 
C 442 4160 467 4122 531 3918 
L 1779 -20 
C 1811 -115 1811 -128 1869 -128 
C 1920 -128 1939 -115 1965 -26 
L 3053 3433 
L 4141 -26 
C 4166 -115 4186 -128 4237 -128 
C 4294 -128 4294 -115 4326 -20 
L 5523 3764 
z
" transform="scale(0.015625)"/>
       <path id="CMR17-77" d="M 3725 2183 
C 3853 2560 4109 2560 4205 2560 
L 4205 2732 
C 4077 2732 3949 2732 3821 2732 
C 3699 2732 3424 2732 3315 2738 
L 3315 2560 
C 3514 2560 3622 2445 3622 2286 
C 3622 2241 3610 2184 3597 2140 
L 2995 407 
L 2342 2275 
C 2330 2319 2310 2370 2310 2395 
C 2310 2560 2528 2560 2630 2560 
L 2630 2738 
C 2483 2732 2214 2732 2061 2732 
C 1901 2732 1734 2732 1587 2738 
L 1587 2560 
C 1939 2560 1939 2547 2074 2149 
L 1485 451 
L 851 2281 
C 819 2363 819 2376 819 2395 
C 819 2560 1037 2560 1139 2560 
L 1139 2738 
C 986 2732 717 2732 557 2732 
C 416 2732 198 2732 64 2738 
L 64 2560 
C 346 2560 416 2541 486 2331 
L 1274 49 
C 1299 -33 1318 -52 1370 -52 
C 1414 -52 1440 -39 1472 56 
L 2131 1980 
L 2797 56 
C 2829 -39 2854 -52 2899 -52 
C 2950 -52 2970 -33 2995 50 
L 3725 2183 
z
" transform="scale(0.015625)"/>
       <path id="CMR17-51" d="M 3027 83 
C 3789 408 4307 1236 4307 2193 
C 4307 3499 3366 4480 2304 4480 
C 1216 4480 294 3488 294 2199 
C 294 928 1216 -64 2304 -64 
C 2451 -64 2656 -45 2899 38 
C 3008 -747 3078 -1216 3629 -1216 
C 4307 -1216 4339 -213 4339 -33 
C 4339 32 4339 76 4294 76 
C 4262 76 4256 31 4256 18 
C 4211 -603 3866 -732 3661 -732 
C 3283 -732 3149 -394 3027 83 
z
M 1958 100 
C 1293 310 768 1017 768 2199 
C 768 3711 1606 4365 2298 4365 
C 3014 4365 3834 3686 3834 2198 
C 3834 1124 3405 527 2976 254 
C 2880 579 2726 960 2310 960 
C 2003 960 1830 692 1830 450 
C 1830 304 1888 183 1958 100 
z
M 2874 192 
C 2618 57 2413 57 2304 57 
C 2016 57 1933 315 1933 454 
C 1933 650 2067 858 2310 858 
C 2720 858 2822 493 2874 192 
z
" transform="scale(0.015625)"/>
       <path id="CMR17-71" d="M 2630 2802 
L 2528 2802 
L 2336 2172 
C 2189 2509 1920 2802 1491 2802 
C 838 2802 211 2223 211 1383 
C 211 548 800 -38 1440 -38 
C 1933 -38 2208 338 2291 478 
L 2291 -789 
C 2291 -1031 2266 -1063 1856 -1063 
L 1856 -1228 
C 2010 -1216 2291 -1216 2458 -1216 
C 2624 -1216 2912 -1216 3066 -1228 
L 3066 -1063 
C 2656 -1063 2630 -1037 2630 -789 
L 2630 2802 
z
M 2304 886 
C 2304 612 2074 357 2054 338 
C 1856 115 1626 64 1472 64 
C 992 64 621 669 621 1375 
C 621 2121 1043 2688 1536 2688 
C 2048 2688 2304 2108 2304 1777 
L 2304 886 
z
" transform="scale(0.015625)"/>
      </defs>
      <use xlink:href="#CMR17-57" transform="scale(0.996264)"/>
      <use xlink:href="#CMR17-69" transform="translate(95.09665 0) scale(0.996264)"/>
      <use xlink:href="#CMR17-6e" transform="translate(119.967708 0) scale(0.996264)"/>
      <use xlink:href="#CMR17-64" transform="translate(170.863078 0) scale(0.996264)"/>
      <use xlink:href="#CMR17-6f" transform="translate(221.758448 0) scale(0.996264)"/>
      <use xlink:href="#CMR17-77" transform="translate(264.846471 0) scale(0.996264)"/>
      <use xlink:href="#CMR17-73" transform="translate(331.356352 0) scale(0.996264)"/>
      <use xlink:href="#CMR17-51" transform="translate(397.233656 0) scale(0.996264)"/>
      <use xlink:href="#CMR17-72" transform="translate(501.845664 0) scale(0.996264)"/>
      <use xlink:href="#CMR17-73" transform="translate(537.126431 0) scale(0.996264)"/>
      <use xlink:href="#CMR17-71" transform="translate(572.927769 0) scale(0.996264)"/>
      <use xlink:href="#CMR17-72" transform="translate(621.220685 0) scale(0.996264)"/>
      <use xlink:href="#CMR17-74" transform="translate(656.501453 0) scale(0.996264)"/>
      <path d="M 474.431073 0 
L 501.845664 0 
L 501.845664 0.3985 
L 474.431073 0.3985 
L 474.431073 0 
z
"/>
     </g>
    </g>
    <g id="patch_33">
     <path d="M 338.852095 60.996024 
L 362.852095 60.996024 
L 362.852095 52.596024 
L 338.852095 52.596024 
z
" style="fill: #fe8686"/>
    </g>
    <g id="text_28">
     <!-- Windows Math_rsqrt -->
     <g transform="translate(372.452095 60.996024) scale(0.12 -0.12)">
      <defs>
       <path id="CMR17-4d" d="M 1338 4224 
C 1299 4320 1293 4320 1158 4320 
L 339 4320 
L 339 4160 
C 781 4160 851 4160 851 3875 
L 851 610 
C 851 451 851 153 339 153 
L 339 -13 
C 486 0 755 0 915 0 
C 1075 0 1344 0 1491 -13 
L 1491 153 
C 979 153 979 451 979 610 
L 979 4135 
L 986 4135 
L 2490 89 
C 2515 25 2528 -13 2579 -13 
C 2630 -13 2643 25 2669 89 
L 4186 4166 
L 4192 4166 
L 4192 438 
C 4192 153 4122 153 3680 153 
L 3680 -13 
C 3853 0 4198 0 4384 0 
C 4570 0 4922 0 5094 -13 
L 5094 153 
C 4653 153 4582 153 4582 438 
L 4582 3875 
C 4582 4160 4653 4160 5094 4160 
L 5094 4320 
L 4282 4320 
C 4147 4320 4141 4314 4102 4218 
L 2720 502 
L 1338 4224 
z
" transform="scale(0.015625)"/>
      </defs>
      <use xlink:href="#CMR17-57" transform="scale(0.996264)"/>
      <use xlink:href="#CMR17-69" transform="translate(95.09665 0) scale(0.996264)"/>
      <use xlink:href="#CMR17-6e" transform="translate(119.967708 0) scale(0.996264)"/>
      <use xlink:href="#CMR17-64" transform="translate(170.863078 0) scale(0.996264)"/>
      <use xlink:href="#CMR17-6f" transform="translate(221.758448 0) scale(0.996264)"/>
      <use xlink:href="#CMR17-77" transform="translate(264.846471 0) scale(0.996264)"/>
      <use xlink:href="#CMR17-73" transform="translate(331.356352 0) scale(0.996264)"/>
      <use xlink:href="#CMR17-4d" transform="translate(397.233656 0) scale(0.996264)"/>
      <use xlink:href="#CMR17-61" transform="translate(481.920596 0) scale(0.996264)"/>
      <use xlink:href="#CMR17-74" transform="translate(527.611073 0) scale(0.996264)"/>
      <use xlink:href="#CMR17-68" transform="translate(562.891841 0) scale(0.996264)"/>
      <use xlink:href="#CMR17-72" transform="translate(646.68443 0) scale(0.996264)"/>
      <use xlink:href="#CMR17-73" transform="translate(681.965198 0) scale(0.996264)"/>
      <use xlink:href="#CMR17-71" transform="translate(717.766536 0) scale(0.996264)"/>
      <use xlink:href="#CMR17-72" transform="translate(766.059452 0) scale(0.996264)"/>
      <use xlink:href="#CMR17-74" transform="translate(801.34022 0) scale(0.996264)"/>
      <path d="M 619.26984 0 
L 646.68443 0 
L 646.68443 0.3985 
L 619.26984 0.3985 
L 619.26984 0 
z
"/>
     </g>
    </g>
    <g id="patch_34">
     <path d="M 338.852095 77.72062 
L 362.852095 77.72062 
L 362.852095 69.32062 
L 338.852095 69.32062 
z
" style="fill: #f95252"/>
    </g>
    <g id="text_29">
     <!-- Windows SSE_rsqrt -->
     <g transform="translate(372.452095 77.72062) scale(0.12 -0.12)">
      <defs>
       <path id="CMR17-53" d="M 2803 4290 
C 2803 4404 2797 4411 2758 4411 
C 2720 4411 2707 4385 2682 4328 
L 2490 3907 
C 2246 4257 1875 4416 1472 4416 
C 819 4416 294 3901 294 3253 
C 294 3056 339 2776 557 2510 
C 794 2218 1018 2167 1530 2033 
C 1722 1982 2042 1899 2106 1874 
C 2470 1722 2662 1341 2662 985 
C 2662 527 2336 38 1779 38 
C 1094 38 454 419 410 1311 
C 403 1413 397 1419 352 1419 
C 301 1419 294 1413 294 1285 
L 294 -1 
C 294 -115 301 -122 339 -122 
C 384 -122 397 -90 486 108 
C 493 127 493 140 614 381 
C 934 -39 1472 -128 1779 -128 
C 2477 -128 2970 451 2970 1124 
C 2970 1454 2848 1708 2778 1823 
C 2509 2230 2221 2306 1914 2382 
C 1869 2402 1856 2402 1498 2490 
C 1152 2579 1005 2624 845 2796 
C 666 2992 602 3196 602 3399 
C 602 3812 934 4263 1478 4263 
C 2157 4263 2579 3786 2675 2993 
C 2694 2878 2701 2872 2746 2872 
C 2803 2872 2803 2891 2803 2999 
L 2803 4290 
z
" transform="scale(0.015625)"/>
       <path id="CMR17-45" d="M 3885 1615 
L 3770 1615 
C 3629 676 3546 166 2419 166 
L 1530 166 
C 1274 166 1261 197 1261 414 
L 1261 2176 
L 1862 2176 
C 2464 2176 2522 1960 2522 1430 
L 2637 1430 
L 2637 3081 
L 2522 3081 
C 2522 2557 2464 2342 1862 2342 
L 1261 2342 
L 1261 3913 
C 1261 4128 1274 4160 1530 4160 
L 2406 4160 
C 3398 4160 3514 3769 3603 2929 
L 3718 2929 
L 3565 4325 
L 326 4325 
L 326 4160 
C 768 4160 838 4160 838 3874 
L 838 451 
C 838 166 768 166 326 166 
L 326 0 
L 3654 0 
L 3885 1615 
z
" transform="scale(0.015625)"/>
      </defs>
      <use xlink:href="#CMR17-57" transform="scale(0.996264)"/>
      <use xlink:href="#CMR17-69" transform="translate(95.09665 0) scale(0.996264)"/>
      <use xlink:href="#CMR17-6e" transform="translate(119.967708 0) scale(0.996264)"/>
      <use xlink:href="#CMR17-64" transform="translate(170.863078 0) scale(0.996264)"/>
      <use xlink:href="#CMR17-6f" transform="translate(221.758448 0) scale(0.996264)"/>
      <use xlink:href="#CMR17-77" transform="translate(264.846471 0) scale(0.996264)"/>
      <use xlink:href="#CMR17-73" transform="translate(331.356352 0) scale(0.996264)"/>
      <use xlink:href="#CMR17-53" transform="translate(397.233656 0) scale(0.996264)"/>
      <use xlink:href="#CMR17-53" transform="translate(448.129025 0) scale(0.996264)"/>
      <use xlink:href="#CMR17-45" transform="translate(499.024395 0) scale(0.996264)"/>
      <use xlink:href="#CMR17-72" transform="translate(594.507915 0) scale(0.996264)"/>
      <use xlink:href="#CMR17-73" transform="translate(629.788683 0) scale(0.996264)"/>
      <use xlink:href="#CMR17-71" transform="translate(665.590021 0) scale(0.996264)"/>
      <use xlink:href="#CMR17-72" transform="translate(713.882937 0) scale(0.996264)"/>
      <use xlink:href="#CMR17-74" transform="translate(749.163704 0) scale(0.996264)"/>
      <path d="M 567.093325 0 
L 594.507915 0 
L 594.507915 0.3985 
L 567.093325 0.3985 
L 567.093325 0 
z
"/>
     </g>
    </g>
    <g id="patch_35">
     <path d="M 338.852095 94.445216 
L 362.852095 94.445216 
L 362.852095 86.045216 
L 338.852095 86.045216 
z
" style="fill: #df3131"/>
    </g>
    <g id="text_30">
     <!-- Windows SSE_Newton_rsqrt -->
     <g transform="translate(372.452095 94.445216) scale(0.12 -0.12)">
      <defs>
       <path id="CMR17-4e" d="M 1312 4250 
C 1267 4320 1261 4320 1139 4320 
L 326 4320 
L 326 4160 
L 448 4160 
C 704 4160 819 4129 838 4122 
L 838 610 
C 838 451 838 153 326 153 
L 326 -13 
C 474 0 742 0 902 0 
C 1062 0 1331 0 1478 -13 
L 1478 153 
C 966 153 966 451 966 610 
L 966 4033 
C 1011 3995 1011 3982 1056 3919 
L 3430 76 
C 3475 0 3494 0 3526 0 
C 3590 0 3590 19 3590 139 
L 3590 3705 
C 3590 3863 3590 4160 4102 4160 
L 4102 4326 
C 3955 4320 3686 4320 3526 4320 
C 3366 4320 3098 4320 2950 4326 
L 2950 4160 
C 3462 4160 3462 3862 3462 3703 
L 3462 763 
L 1312 4250 
z
" transform="scale(0.015625)"/>
      </defs>
      <use xlink:href="#CMR17-57" transform="scale(0.996264)"/>
      <use xlink:href="#CMR17-69" transform="translate(95.09665 0) scale(0.996264)"/>
      <use xlink:href="#CMR17-6e" transform="translate(119.967708 0) scale(0.996264)"/>
      <use xlink:href="#CMR17-64" transform="translate(170.863078 0) scale(0.996264)"/>
      <use xlink:href="#CMR17-6f" transform="translate(221.758448 0) scale(0.996264)"/>
      <use xlink:href="#CMR17-77" transform="translate(264.846471 0) scale(0.996264)"/>
      <use xlink:href="#CMR17-73" transform="translate(331.356352 0) scale(0.996264)"/>
      <use xlink:href="#CMR17-53" transform="translate(397.233656 0) scale(0.996264)"/>
      <use xlink:href="#CMR17-53" transform="translate(448.129025 0) scale(0.996264)"/>
      <use xlink:href="#CMR17-45" transform="translate(499.024395 0) scale(0.996264)"/>
      <use xlink:href="#CMR17-4e" transform="translate(594.507915 0) scale(0.996264)"/>
      <use xlink:href="#CMR17-65" transform="translate(663.580345 0) scale(0.996264)"/>
      <use xlink:href="#CMR17-77" transform="translate(704.066006 0) scale(0.996264)"/>
      <use xlink:href="#CMR17-74" transform="translate(770.575886 0) scale(0.996264)"/>
      <use xlink:href="#CMR17-6f" transform="translate(805.856654 0) scale(0.996264)"/>
      <use xlink:href="#CMR17-6e" transform="translate(851.547131 0) scale(0.996264)"/>
      <use xlink:href="#CMR17-72" transform="translate(935.33972 0) scale(0.996264)"/>
      <use xlink:href="#CMR17-73" transform="translate(970.620488 0) scale(0.996264)"/>
      <use xlink:href="#CMR17-71" transform="translate(1006.421826 0) scale(0.996264)"/>
      <use xlink:href="#CMR17-72" transform="translate(1054.714742 0) scale(0.996264)"/>
      <use xlink:href="#CMR17-74" transform="translate(1089.995509 0) scale(0.996264)"/>
      <path d="M 567.093325 0 
L 594.507915 0 
L 594.507915 0.3985 
L 567.093325 0.3985 
L 567.093325 0 
z
"/>
      <path d="M 907.92513 0 
L 935.33972 0 
L 935.33972 0.3985 
L 907.92513 0.3985 
L 907.92513 0 
z
"/>
     </g>
    </g>
    <g id="patch_36">
     <path d="M 540.431779 44.271429 
L 564.431779 44.271429 
L 564.431779 35.871429 
L 540.431779 35.871429 
z
" style="fill: #a4d7fe"/>
    </g>
    <g id="text_31">
     <!-- Linux Q_rsqrt -->
     <g transform="translate(574.031779 44.271429) scale(0.12 -0.12)">
      <defs>
       <path id="CMR17-4c" d="M 3469 1615 
L 3354 1615 
C 3302 983 3219 166 2125 166 
L 1530 166 
C 1274 166 1261 197 1261 414 
L 1261 3898 
C 1261 4129 1274 4192 1760 4192 
L 1901 4192 
L 1901 4352 
C 1638 4352 1331 4352 1069 4352 
C 870 4352 512 4352 326 4352 
L 326 4192 
C 768 4192 838 4192 838 3905 
L 838 452 
C 838 166 768 166 326 166 
L 326 0 
L 3315 0 
L 3469 1615 
z
" transform="scale(0.015625)"/>
       <path id="CMR17-78" d="M 1664 1477 
C 1856 1726 2074 2006 2253 2216 
C 2464 2458 2707 2560 2989 2560 
L 2989 2726 
C 2880 2726 2656 2726 2541 2726 
C 2368 2726 2170 2726 2022 2732 
L 2022 2566 
C 2112 2553 2163 2489 2163 2400 
C 2163 2285 2099 2215 2067 2171 
L 1594 1573 
L 1030 2306 
C 973 2376 973 2388 973 2420 
C 973 2497 1037 2560 1146 2560 
L 1146 2732 
C 992 2726 717 2726 557 2726 
C 384 2726 179 2726 38 2732 
L 38 2560 
C 384 2560 461 2534 614 2343 
L 1350 1395 
C 1363 1382 1395 1344 1395 1325 
C 1395 1299 838 619 768 530 
C 480 185 179 160 6 160 
L 6 0 
C 115 0 339 0 454 0 
C 582 0 864 0 979 -6 
L 979 160 
C 941 166 838 179 838 325 
C 838 440 890 510 947 586 
L 1478 1236 
L 2035 512 
C 2086 442 2163 346 2163 301 
C 2163 211 2086 160 1984 160 
L 1984 -6 
C 2138 0 2413 0 2573 0 
C 2746 0 2950 0 3091 -6 
L 3091 160 
C 2771 160 2675 172 2522 370 
L 1664 1477 
z
" transform="scale(0.015625)"/>
      </defs>
      <use xlink:href="#CMR17-4c" transform="scale(0.996264)"/>
      <use xlink:href="#CMR17-69" transform="translate(57.381408 0) scale(0.996264)"/>
      <use xlink:href="#CMR17-6e" transform="translate(82.252466 0) scale(0.996264)"/>
      <use xlink:href="#CMR17-75" transform="translate(130.545382 0) scale(0.996264)"/>
      <use xlink:href="#CMR17-78" transform="translate(181.440752 0) scale(0.996264)"/>
      <use xlink:href="#CMR17-51" transform="translate(259.809634 0) scale(0.996264)"/>
      <use xlink:href="#CMR17-72" transform="translate(364.421642 0) scale(0.996264)"/>
      <use xlink:href="#CMR17-73" transform="translate(399.70241 0) scale(0.996264)"/>
      <use xlink:href="#CMR17-71" transform="translate(435.503748 0) scale(0.996264)"/>
      <use xlink:href="#CMR17-72" transform="translate(483.796663 0) scale(0.996264)"/>
      <use xlink:href="#CMR17-74" transform="translate(519.077431 0) scale(0.996264)"/>
      <path d="M 337.007052 0 
L 364.421642 0 
L 364.421642 0.3985 
L 337.007052 0.3985 
L 337.007052 0 
z
"/>
     </g>
    </g>
    <g id="patch_37">
     <path d="M 540.431779 60.996024 
L 564.431779 60.996024 
L 564.431779 52.596024 
L 540.431779 52.596024 
z
" style="fill: #4daaf6"/>
    </g>
    <g id="text_32">
     <!-- Linux Math_rsqrt -->
     <g transform="translate(574.031779 60.996024) scale(0.12 -0.12)">
      <use xlink:href="#CMR17-4c" transform="scale(0.996264)"/>
      <use xlink:href="#CMR17-69" transform="translate(57.381408 0) scale(0.996264)"/>
      <use xlink:href="#CMR17-6e" transform="translate(82.252466 0) scale(0.996264)"/>
      <use xlink:href="#CMR17-75" transform="translate(130.545382 0) scale(0.996264)"/>
      <use xlink:href="#CMR17-78" transform="translate(181.440752 0) scale(0.996264)"/>
      <use xlink:href="#CMR17-4d" transform="translate(259.809634 0) scale(0.996264)"/>
      <use xlink:href="#CMR17-61" transform="translate(344.496575 0) scale(0.996264)"/>
      <use xlink:href="#CMR17-74" transform="translate(390.187052 0) scale(0.996264)"/>
      <use xlink:href="#CMR17-68" transform="translate(425.46782 0) scale(0.996264)"/>
      <use xlink:href="#CMR17-72" transform="translate(509.260409 0) scale(0.996264)"/>
      <use xlink:href="#CMR17-73" transform="translate(544.541177 0) scale(0.996264)"/>
      <use xlink:href="#CMR17-71" transform="translate(580.342514 0) scale(0.996264)"/>
      <use xlink:href="#CMR17-72" transform="translate(628.63543 0) scale(0.996264)"/>
      <use xlink:href="#CMR17-74" transform="translate(663.916198 0) scale(0.996264)"/>
      <path d="M 481.845819 0 
L 509.260409 0 
L 509.260409 0.3985 
L 481.845819 0.3985 
L 481.845819 0 
z
"/>
     </g>
    </g>
    <g id="patch_38">
     <path d="M 540.431779 77.72062 
L 564.431779 77.72062 
L 564.431779 69.32062 
L 540.431779 69.32062 
z
" style="fill: #228ae5"/>
    </g>
    <g id="text_33">
     <!-- Linux SSE_rsqrt -->
     <g transform="translate(574.031779 77.72062) scale(0.12 -0.12)">
      <use xlink:href="#CMR17-4c" transform="scale(0.996264)"/>
      <use xlink:href="#CMR17-69" transform="translate(57.381408 0) scale(0.996264)"/>
      <use xlink:href="#CMR17-6e" transform="translate(82.252466 0) scale(0.996264)"/>
      <use xlink:href="#CMR17-75" transform="translate(130.545382 0) scale(0.996264)"/>
      <use xlink:href="#CMR17-78" transform="translate(181.440752 0) scale(0.996264)"/>
      <use xlink:href="#CMR17-53" transform="translate(259.809634 0) scale(0.996264)"/>
      <use xlink:href="#CMR17-53" transform="translate(310.705004 0) scale(0.996264)"/>
      <use xlink:href="#CMR17-45" transform="translate(361.600374 0) scale(0.996264)"/>
      <use xlink:href="#CMR17-72" transform="translate(457.083894 0) scale(0.996264)"/>
      <use xlink:href="#CMR17-73" transform="translate(492.364662 0) scale(0.996264)"/>
      <use xlink:href="#CMR17-71" transform="translate(528.165999 0) scale(0.996264)"/>
      <use xlink:href="#CMR17-72" transform="translate(576.458915 0) scale(0.996264)"/>
      <use xlink:href="#CMR17-74" transform="translate(611.739683 0) scale(0.996264)"/>
      <path d="M 429.669303 0 
L 457.083894 0 
L 457.083894 0.3985 
L 429.669303 0.3985 
L 429.669303 0 
z
"/>
     </g>
    </g>
    <g id="patch_39">
     <path d="M 540.431779 94.445216 
L 564.431779 94.445216 
L 564.431779 86.045216 
L 540.431779 86.045216 
z
" style="fill: #1971c1"/>
    </g>
    <g id="text_34">
     <!-- Linux SSE_Newton_rsqrt -->
     <g transform="translate(574.031779 94.445216) scale(0.12 -0.12)">
      <use xlink:href="#CMR17-4c" transform="scale(0.996264)"/>
      <use xlink:href="#CMR17-69" transform="translate(57.381408 0) scale(0.996264)"/>
      <use xlink:href="#CMR17-6e" transform="translate(82.252466 0) scale(0.996264)"/>
      <use xlink:href="#CMR17-75" transform="translate(130.545382 0) scale(0.996264)"/>
      <use xlink:href="#CMR17-78" transform="translate(181.440752 0) scale(0.996264)"/>
      <use xlink:href="#CMR17-53" transform="translate(259.809634 0) scale(0.996264)"/>
      <use xlink:href="#CMR17-53" transform="translate(310.705004 0) scale(0.996264)"/>
      <use xlink:href="#CMR17-45" transform="translate(361.600374 0) scale(0.996264)"/>
      <use xlink:href="#CMR17-4e" transform="translate(457.083894 0) scale(0.996264)"/>
      <use xlink:href="#CMR17-65" transform="translate(526.156324 0) scale(0.996264)"/>
      <use xlink:href="#CMR17-77" transform="translate(566.641984 0) scale(0.996264)"/>
      <use xlink:href="#CMR17-74" transform="translate(633.151865 0) scale(0.996264)"/>
      <use xlink:href="#CMR17-6f" transform="translate(668.432632 0) scale(0.996264)"/>
      <use xlink:href="#CMR17-6e" transform="translate(714.12311 0) scale(0.996264)"/>
      <use xlink:href="#CMR17-72" transform="translate(797.915699 0) scale(0.996264)"/>
      <use xlink:href="#CMR17-73" transform="translate(833.196467 0) scale(0.996264)"/>
      <use xlink:href="#CMR17-71" transform="translate(868.997804 0) scale(0.996264)"/>
      <use xlink:href="#CMR17-72" transform="translate(917.29072 0) scale(0.996264)"/>
      <use xlink:href="#CMR17-74" transform="translate(952.571488 0) scale(0.996264)"/>
      <path d="M 429.669303 0 
L 457.083894 0 
L 457.083894 0.3985 
L 429.669303 0.3985 
L 429.669303 0 
z
"/>
      <path d="M 770.501109 0 
L 797.915699 0 
L 797.915699 0.3985 
L 770.501109 0.3985 
L 770.501109 0 
z
"/>
     </g>
    </g>
    <g id="patch_40">
     <path d="M 724.552124 44.271429 
L 748.552124 44.271429 
L 748.552124 35.871429 
L 724.552124 35.871429 
z
" style="fill: #b1f1ba"/>
    </g>
    <g id="text_35">
     <!-- macOS Q_rsqrt -->
     <g transform="translate(758.152124 44.271429) scale(0.12 -0.12)">
      <use xlink:href="#CMR17-6d" transform="scale(0.996264)"/>
      <use xlink:href="#CMR17-61" transform="translate(76.91959 0) scale(0.996264)"/>
      <use xlink:href="#CMR17-63" transform="translate(122.610067 0) scale(0.996264)"/>
      <use xlink:href="#CMR17-4f" transform="translate(163.095727 0) scale(0.996264)"/>
      <use xlink:href="#CMR17-53" transform="translate(234.810516 0) scale(0.996264)"/>
      <use xlink:href="#CMR17-51" transform="translate(315.781852 0) scale(0.996264)"/>
      <use xlink:href="#CMR17-72" transform="translate(420.39386 0) scale(0.996264)"/>
      <use xlink:href="#CMR17-73" transform="translate(455.674628 0) scale(0.996264)"/>
      <use xlink:href="#CMR17-71" transform="translate(491.475965 0) scale(0.996264)"/>
      <use xlink:href="#CMR17-72" transform="translate(539.768881 0) scale(0.996264)"/>
      <use xlink:href="#CMR17-74" transform="translate(575.049649 0) scale(0.996264)"/>
      <path d="M 392.97927 0 
L 420.39386 0 
L 420.39386 0.3985 
L 392.97927 0.3985 
L 392.97927 0 
z
"/>
     </g>
    </g>
    <g id="patch_41">
     <path d="M 724.552124 60.996024 
L 748.552124 60.996024 
L 748.552124 52.596024 
L 724.552124 52.596024 
z
" style="fill: #69da7c"/>
    </g>
    <g id="text_36">
     <!-- macOS Math_rsqrt -->
     <g transform="translate(758.152124 60.996024) scale(0.12 -0.12)">
      <use xlink:href="#CMR17-6d" transform="scale(0.996264)"/>
      <use xlink:href="#CMR17-61" transform="translate(76.91959 0) scale(0.996264)"/>
      <use xlink:href="#CMR17-63" transform="translate(122.610067 0) scale(0.996264)"/>
      <use xlink:href="#CMR17-4f" transform="translate(163.095727 0) scale(0.996264)"/>
      <use xlink:href="#CMR17-53" transform="translate(234.810516 0) scale(0.996264)"/>
      <use xlink:href="#CMR17-4d" transform="translate(315.781852 0) scale(0.996264)"/>
      <use xlink:href="#CMR17-61" transform="translate(400.468793 0) scale(0.996264)"/>
      <use xlink:href="#CMR17-74" transform="translate(446.15927 0) scale(0.996264)"/>
      <use xlink:href="#CMR17-68" transform="translate(481.440037 0) scale(0.996264)"/>
      <use xlink:href="#CMR17-72" transform="translate(565.232627 0) scale(0.996264)"/>
      <use xlink:href="#CMR17-73" transform="translate(600.513395 0) scale(0.996264)"/>
      <use xlink:href="#CMR17-71" transform="translate(636.314732 0) scale(0.996264)"/>
      <use xlink:href="#CMR17-72" transform="translate(684.607648 0) scale(0.996264)"/>
      <use xlink:href="#CMR17-74" transform="translate(719.888416 0) scale(0.996264)"/>
      <path d="M 537.818036 0 
L 565.232627 0 
L 565.232627 0.3985 
L 537.818036 0.3985 
L 537.818036 0 
z
"/>
     </g>
    </g>
    <g id="patch_42">
     <path d="M 724.552124 77.72062 
L 748.552124 77.72062 
L 748.552124 69.32062 
L 724.552124 69.32062 
z
" style="fill: #40bf57"/>
    </g>
    <g id="text_37">
     <!-- macOS NEON_rsqrt -->
     <g transform="translate(758.152124 77.72062) scale(0.12 -0.12)">
      <use xlink:href="#CMR17-6d" transform="scale(0.996264)"/>
      <use xlink:href="#CMR17-61" transform="translate(76.91959 0) scale(0.996264)"/>
      <use xlink:href="#CMR17-63" transform="translate(122.610067 0) scale(0.996264)"/>
      <use xlink:href="#CMR17-4f" transform="translate(163.095727 0) scale(0.996264)"/>
      <use xlink:href="#CMR17-53" transform="translate(234.810516 0) scale(0.996264)"/>
      <use xlink:href="#CMR17-4e" transform="translate(315.781852 0) scale(0.996264)"/>
      <use xlink:href="#CMR17-45" transform="translate(384.854282 0) scale(0.996264)"/>
      <use xlink:href="#CMR17-4f" transform="translate(447.440582 0) scale(0.996264)"/>
      <use xlink:href="#CMR17-4e" transform="translate(519.155371 0) scale(0.996264)"/>
      <use xlink:href="#CMR17-72" transform="translate(621.12502 0) scale(0.996264)"/>
      <use xlink:href="#CMR17-73" transform="translate(656.405788 0) scale(0.996264)"/>
      <use xlink:href="#CMR17-71" transform="translate(692.207126 0) scale(0.996264)"/>
      <use xlink:href="#CMR17-72" transform="translate(740.500041 0) scale(0.996264)"/>
      <use xlink:href="#CMR17-74" transform="translate(775.780809 0) scale(0.996264)"/>
      <path d="M 593.71043 0 
L 621.12502 0 
L 621.12502 0.3985 
L 593.71043 0.3985 
L 593.71043 0 
z
"/>
     </g>
    </g>
    <g id="patch_43">
     <path d="M 724.552124 94.445216 
L 748.552124 94.445216 
L 748.552124 86.045216 
L 724.552124 86.045216 
z
" style="fill: #2f9d44"/>
    </g>
    <g id="text_38">
     <!-- macOS NEON_Newton_rsqrt -->
     <g transform="translate(758.152124 94.445216) scale(0.12 -0.12)">
      <use xlink:href="#CMR17-6d" transform="scale(0.996264)"/>
      <use xlink:href="#CMR17-61" transform="translate(76.91959 0) scale(0.996264)"/>
      <use xlink:href="#CMR17-63" transform="translate(122.610067 0) scale(0.996264)"/>
      <use xlink:href="#CMR17-4f" transform="translate(163.095727 0) scale(0.996264)"/>
      <use xlink:href="#CMR17-53" transform="translate(234.810516 0) scale(0.996264)"/>
      <use xlink:href="#CMR17-4e" transform="translate(315.781852 0) scale(0.996264)"/>
      <use xlink:href="#CMR17-45" transform="translate(384.854282 0) scale(0.996264)"/>
      <use xlink:href="#CMR17-4f" transform="translate(447.440582 0) scale(0.996264)"/>
      <use xlink:href="#CMR17-4e" transform="translate(519.155371 0) scale(0.996264)"/>
      <use xlink:href="#CMR17-4e" transform="translate(621.12502 0) scale(0.996264)"/>
      <use xlink:href="#CMR17-65" transform="translate(690.19745 0) scale(0.996264)"/>
      <use xlink:href="#CMR17-77" transform="translate(730.68311 0) scale(0.996264)"/>
      <use xlink:href="#CMR17-74" transform="translate(797.192991 0) scale(0.996264)"/>
      <use xlink:href="#CMR17-6f" transform="translate(832.473759 0) scale(0.996264)"/>
      <use xlink:href="#CMR17-6e" transform="translate(878.164236 0) scale(0.996264)"/>
      <use xlink:href="#CMR17-72" transform="translate(961.956825 0) scale(0.996264)"/>
      <use xlink:href="#CMR17-73" transform="translate(997.237593 0) scale(0.996264)"/>
      <use xlink:href="#CMR17-71" transform="translate(1033.038931 0) scale(0.996264)"/>
      <use xlink:href="#CMR17-72" transform="translate(1081.331846 0) scale(0.996264)"/>
      <use xlink:href="#CMR17-74" transform="translate(1116.612614 0) scale(0.996264)"/>
      <path d="M 593.71043 0 
L 621.12502 0 
L 621.12502 0.3985 
L 593.71043 0.3985 
L 593.71043 0 
z
"/>
      <path d="M 934.542235 0 
L 961.956825 0 
L 961.956825 0.3985 
L 934.542235 0.3985 
L 934.542235 0 
z
"/>
     </g>
    </g>
   </g>
  </g>
 </g>
 <defs>
  <clipPath id="p66e4f24d39">
   <rect x="52.662857" y="25.071429" width="863.451429" height="401.7"/>
  </clipPath>
 </defs>
</svg>
